<?xml version="1.0" standalone="no"?><!DOCTYPE svg PUBLIC "-//W3C//DTD SVG 1.1//EN" "http://www.w3.org/Graphics/SVG/1.1/DTD/svg11.dtd"><svg class="icon" width="200px" height="200.00px" viewBox="0 0 1024 1024" version="1.1" xmlns="http://www.w3.org/2000/svg"><path fill="" d="M166.477 568.55l29.491-91.75c21.3-67.994 40.96-132.71 59.827-203.162h3.277c19.66 69.632 38.4 135.168 60.62 203.162l28.673 91.75H166.477zM424.55 812.698h80.282l-203.98-600.525h-84.48L12.466 812.62h77.005l58.163-183.501h219.571z m401.92 10.65a232.14 232.14 0 0 0 184.32-86.017l-41.779-47.513a182.528 182.528 0 0 1-139.264 67.174c-114.688 0-186.88-95.027-186.88-246.605 0-149.913 75.367-243.2 189.235-243.2a164.02 164.02 0 0 1 122.88 57.344l40.96-49.152a222.054 222.054 0 0 0-164.659-74.573c-152.371 0-266.24 117.99-266.24 312.141 0.077 194.816 112.333 310.323 261.504 310.323z"  /></svg>
