<?xml version="1.0" standalone="no"?><!DOCTYPE svg PUBLIC "-//W3C//DTD SVG 1.1//EN" "http://www.w3.org/Graphics/SVG/1.1/DTD/svg11.dtd"><svg class="icon" width="200px" height="200.00px" viewBox="0 0 1024 1024" version="1.1" xmlns="http://www.w3.org/2000/svg"><path fill="#000000" d="M725.333333 469.333333V384h85.333334v85.333333h85.333333v85.333334h-85.333333v85.333333h-85.333334v-85.333333h-85.333333v-85.333334h85.333333z m-128 251.733334l-38.4-38.4H251.733333l-38.4 38.4V768h384v-46.933333z m85.333334-38.4v170.666666H128v-170.666666h4.266667l85.333333-85.333334h375.466667l89.6 85.333334zM405.333333 170.666667C486.4 170.666667 554.666667 238.933333 554.666667 320v85.333333c0 81.066667-68.266667 149.333333-149.333334 149.333334S256 486.4 256 405.333333v-85.333333C256 238.933333 324.266667 170.666667 405.333333 170.666667z m0 85.333333C371.2 256 341.333333 285.866667 341.333333 320v85.333333c0 34.133333 29.866667 64 64 64s64-29.866667 64-64v-85.333333c0-34.133333-29.866667-64-64-64z"  /></svg>