<svg id="图层_1" data-name="图层 1" xmlns="http://www.w3.org/2000/svg" viewBox="0 0 200 200">
  <title>产品和物料</title>
  <path d="M13.49,104c0-16.32.12-32.65-.1-49,0-3.62,1.23-5.11,4.43-6.47q40.11-17,80.06-34.34a7,7,0,0,1,6.08-.06q40.42,17.48,80.94,34.73c2.7,1.15,3.67,2.5,3.66,5.46q-.16,49.47,0,98.93c0,2.56-.37,4.2-3.1,5.35q-40.34,17-80.55,34.34a8.75,8.75,0,0,1-7.56,0Q57.56,175.9,17.63,159.13c-3.41-1.42-4.25-3.21-4.21-6.64C13.59,136.33,13.49,120.18,13.49,104ZM176,64c-21.54,9.16-42.41,18.11-63.36,26.87-2.76,1.15-2.56,3-2.56,5.14q0,36.23,0,72.45c0,2.74,0,5.49,0,8.81C131.75,168,152.76,158.94,173.8,150c1.93-.82,2.23-2,2.23-3.85C176,119,176,91.87,176,64ZM26,64c0,27.86,0,55.15,0,82.44,0,2,.8,2.88,2.56,3.62q33,13.94,66,28.08c2.93,1.26,3.28.45,3.27-2.27q-.1-39,0-78c0-2.58-.88-3.86-3.19-4.8-9.06-3.71-18.12-7.45-27.06-11.44-3.28-1.47-4.21-1.09-4.11,2.65.22,8.33.07,16.66.07,25,0,1.17,0,2.33,0,3.5-.15,4.1-2.16,6.89-6.34,6.78s-6.14-2.84-6.13-7c0-11.33,0-22.66,0-34,0-1.68.73-3.63-1.74-4.64C41.61,70.8,34,67.49,26,64Zm9.67-9.55c6.52,2.77,12.46,4.66,17.75,7.69,6.94,4,12.88,3.18,19.85-.29C90.4,53.36,107.93,45.64,126,37.26L102.49,27.12a4.61,4.61,0,0,0-3.83.36C77.92,36.4,57.17,45.28,35.67,54.49ZM78.85,73c7.49,3.13,13.9,5.77,20.26,8.5a4.39,4.39,0,0,0,3.79,0c20.91-8.91,41.84-17.78,63.42-26.93-8.09-3.41-15.58-6.5-23-9.75a4,4,0,0,0-3.7.16C119.75,54.12,99.86,63.29,78.85,73Z"/>
</svg>
