<svg id="图层_1" data-name="图层 1" xmlns="http://www.w3.org/2000/svg" viewBox="0 0 200 200">
  <title>数据字典</title>
  <g>
    <path d="M123.22,138.51c-16.65,0-33.3.07-49.95-.06-2.95,0-4.52.41-5.81,3.61a24.34,24.34,0,0,1-27.57,14.71,25,25,0,0,1-20-24.64,24.6,24.6,0,0,1,20.29-24.3c11.88-2.24,23.33,3.86,27.59,15.3,1.19,3.18,3,2.88,5.3,2.88q50.2,0,100.39,0c4.07,0,7.88.4,8.64,5.42.64,4.24-1.87,6.86-6.94,7-6,.2-12,.07-18,.07ZM45,119.89a12.54,12.54,0,0,0-12.9,12.4,13,13,0,0,0,12.49,12.5c6.47.21,12.42-5.66,12.5-12.34A12.23,12.23,0,0,0,45,119.89Z"/>
    <path d="M122.78,54.17c-17,0-34,0-51-.05-2.6,0-4.07.58-5.46,3.06A24.3,24.3,0,0,1,37.17,68.35C25.49,64.56,18.85,54.26,20,41.76,21,30.89,30.59,21.25,41.53,20c12.17-1.34,23,5.32,26.64,17.08,1.23,4,3,4.82,6.83,4.8,32.17-.16,64.33-.09,96.5-.09a48.52,48.52,0,0,1,5,.11c3.17.33,5.3,2,5.6,5.3.33,3.52-1.61,5.71-4.85,6.58a19.46,19.46,0,0,1-5,.32Q147.53,54.19,122.78,54.17ZM57.25,44.69A12.71,12.71,0,0,0,44.34,32.22c-6.54.16-12.28,6.25-12.12,12.86a12.6,12.6,0,0,0,12.27,12A12.23,12.23,0,0,0,57.25,44.69Z"/>
    <path d="M147.86,94.84c-8.64,0-17.28,0-25.91,0-5.59,0-8.36-2.24-8.33-6.38s2.82-6.25,8.44-6.27q25.91-.07,51.83,0c5.63,0,8.34,2.2,8.3,6.38s-2.73,6.23-8.41,6.27C165.14,94.88,156.5,94.84,147.86,94.84Z" style=""/>
    <path d="M148,176c-8.83,0-17.65,0-26.48,0-5.16,0-8-2.3-7.83-6.29.18-4.73,3.33-6.18,7.43-6.19,17.82,0,35.64-.08,53.45,0,5.26,0,7.84,2.38,7.55,6.52-.34,4.7-3.51,6-7.64,6C165.65,176,156.83,176,148,176Z" style=""/>
  </g>
</svg>
