<svg id="图层_1" data-name="图层 1" xmlns="http://www.w3.org/2000/svg" viewBox="0 0 200 200">
  <title>基础</title>
  <g>
    <path d="M124.13,90.49c11.15,0,22.29-.07,33.44,0,8.24.07,12.68,4,12.54,10.87-.13,6.29-5,10.42-12.67,10.43q-33.69.06-67.38,0c-6.57,0-10.63-3.12-11.84-8.56a10.68,10.68,0,0,1,6.1-11.9,13.43,13.43,0,0,1,5.86-.86Q107.16,90.51,124.13,90.49Z" style=""/>
    <path d="M123.86,161.17c-11.31,0-22.62.05-33.93,0-7.31,0-11.91-4.22-11.89-10.53,0-6.1,5-10.58,12-10.6q34.18-.07,68.36,0c7.28,0,11.69,4.17,11.7,10.71s-4.43,10.42-11.82,10.43Q141.08,161.19,123.86,161.17Z"/>
    <path d="M123.92,40.83c11.31,0,22.62,0,33.93,0,7.9,0,12.29,3.88,12.27,10.56,0,6.36-4.9,10.57-12.46,10.58q-34.18,0-68.36,0c-5.82,0-9.77-3.14-11-8.26a10.66,10.66,0,0,1,5.44-11.78,11,11,0,0,1,5.78-1.11Z"/>
    <path d="M60.13,150.75A14.08,14.08,0,1,1,46,136.6,14,14,0,0,1,60.13,150.75Z"/>
    <path d="M60.13,51.64C60,59.27,53.94,65.57,46.7,65.49,38.3,65.4,31.83,59.13,32,51.21a14.45,14.45,0,0,1,14.09-14A14.28,14.28,0,0,1,60.13,51.64Z"/>
    <path d="M46,115.12a14.13,14.13,0,1,1,14.08-14.24A14.08,14.08,0,0,1,46,115.12Z"/>
  </g>
</svg>
