<svg id="图层_1" data-name="图层 1" xmlns="http://www.w3.org/2000/svg" viewBox="0 0 200 200">
  <title>客户和供应商</title>
  <g>
    <path d="M100.5,26q36.74,0,73.47,0c13,0,20.82,7.73,20.84,20.79q.11,54.23,0,108.46c0,13.2-7.65,20.72-20.9,20.73q-73,.06-145.95,0c-13.19,0-20.76-7.59-20.78-20.84q-.09-54.23,0-108.46C7.21,33.45,14.81,26,28,26Q64.26,26,100.5,26Zm.5,137.49q35.73,0,71.47,0c8.23,0,9.69-1.45,9.69-9.5q0-53,0-105.95c0-8.09-1.46-9.52-9.71-9.53q-71.47,0-142.93,0c-8.22,0-9.68,1.46-9.68,9.54q0,53,0,105.95c0,8.07,1.43,9.48,9.69,9.48Q65.27,163.51,101,163.49Z"/>
    <path d="M69.68,145c-10.75-.82-21.47-.44-31.89-3.08-2-.51-4.78-.53-5.33-3-.6-2.72,1.41-4.64,3.41-6.2,5.84-4.56,12.9-5.85,19.89-7.38,1.27-.28,3.24.64,3.73-1.53s-.77-3.26-2.29-4.52c-7.78-6.47-13.15-14.74-17.34-23.83a7.15,7.15,0,0,1,.85-8c1.17-1.42,1.11-3.05,1.29-4.7C44.27,62.25,63.77,51.26,82.38,60c9.2,4.32,13,12.31,14.59,21.79a12.26,12.26,0,0,0,.81,3.83c3.26,6,2.92,10.37-1.41,15.22a9.5,9.5,0,0,0-1.9,2.22,41.12,41.12,0,0,1-12.91,16.81A3.83,3.83,0,0,0,80,123.74c.22,2.16,2,1.22,3.13,1.46,5.34,1.18,10.71,2.24,15.72,4.58a18.33,18.33,0,0,1,6.5,4.51c3,3.55,2.36,5.86-2.12,7.17C92.22,144.68,80.81,144.07,69.68,145Z"/>
    <path d="M141.51,80.16c6.64,0,13.29-.06,19.93,0,5.13.06,8.1,2.3,8.29,6s-3.1,6.57-8.31,6.6q-19.93.13-39.86,0c-5,0-8-2.61-7.93-6.37,0-3.95,2.73-6.17,8-6.25C128.22,80.09,134.86,80.16,141.51,80.16Z" style=""/>
    <path d="M141.16,124c-6.5,0-13,.06-19.49,0-5.08-.06-8-2.45-8-6.27,0-4.06,2.52-6.16,7.94-6.19q20-.13,40,0c5.32,0,8.06,2.24,8.15,6.13.08,3.73-3.33,6.31-8.58,6.35C154.48,124,147.82,124,141.16,124Z" style=""/>
  </g>
</svg>
