<svg id="图层_1" data-name="图层 1" xmlns="http://www.w3.org/2000/svg" viewBox="0 0 200 200">
  <title>bom管理</title>
  <path d="M100.95,13.49c11.66,0,23.33,0,35,0,6.93,0,8.87,2,8.88,9q.06,25.49,0,51c0,6.69-2,8.63-8.64,8.67-8.33,0-16.67.18-25-.07-3.41-.1-4.4,1.07-4.06,4.26.45,4.25-1.83,9.93,1,12.39,2.43,2.1,7.94.73,12.09.75,15.49,0,31,0,46.48,0,7.61,0,9.31,1.79,9.32,9.5,0,8.66.12,17.33-.07,26-.06,2.91.89,3.94,3.66,3.51a3,3,0,0,1,.5,0c14.7.21,14.7.21,14.7,14.71,0,9,.06,18,0,27-.06,6.14-2,8.22-8,8.28q-17,.18-34,0c-6.13-.06-7.91-2-7.94-8.22q-.08-16.74,0-33.49c0-6.38,1.88-8.11,8.46-8.27,10.32-.25,10.35-.25,10.3-10.46,0-5.14,1.77-12-.82-15-3-3.35-10-1-15.24-1-12.16-.15-24.33,0-36.49-.11-2.92,0-4.12.51-4,3.77.28,6.32.26,12.67,0,19-.13,3.22,1,4.08,4,3.84a65.42,65.42,0,0,1,8,0c4.36.18,6.85,2.44,6.87,6.88q.09,18.24,0,36.49c0,4-2.32,6.37-6.18,6.42q-18.74.26-37.48,0c-4.11-.06-6.3-2.6-6.3-6.83,0-11.83-.07-23.66,0-35.49,0-5.18,2.1-7.16,7.26-7.53.33,0,.67,0,1,0,10.55-.34,10.55-.34,10.55-11.18,0-4.17-.11-8.33,0-12.49.08-2.18-.64-2.87-2.82-2.86q-25.24.11-50.48,0c-1.79,0-2.71.29-2.68,2.41.11,7.16.12,14.33,0,21.49,0,2.4,1,2.71,3,2.65,2.83-.1,5.67-.1,8.49,0,4.33.2,6.78,2.38,6.78,6.9q0,18.24,0,36.49c0,4.07-2.28,6.34-6.13,6.4q-18.74.26-37.48,0c-3.91,0-6.24-2.48-6.28-6.38-.12-12.33-.16-24.66,0-37,.06-4.08,2.63-6.31,6.79-6.47,1.33-.05,2.66,0,4,0,8.2,0,8.2,0,8.21-8.44q0-10.5,0-21c0-7.6,1.88-9.54,9.38-9.55,18,0,36-.13,54,.08,4.06,0,5.36-.94,5.27-5.17-.26-12.25-.07-12.25-12.54-12.25-6,0-12,0-18,0-4.79,0-7.16-2.62-7.19-7.08-.11-18.16-.14-36.32,0-54.48,0-5.16,2.44-7,8.22-7.08C77.29,13.43,89.12,13.5,100.95,13.49ZM101,26c-9,0-18,.1-27-.06-3-.05-4.36.31-4.28,3.9.26,12,.23,24,0,36-.06,3.43,1.1,4.09,4.24,4.06q27-.21,54,0c3.1,0,4.34-.56,4.27-4q-.34-18,0-36c.07-3.54-1.25-4-4.25-3.94C119,26.11,110,26,101,26Zm-.48,150.15c4.67-.46,9.82,1.55,12.22-.91s.71-7.58.69-11.53c0-4.11,1.85-9.7-.75-11.92-2.44-2.08-7.87-.82-12-.75-3.93.06-9.08-1.73-11.48.72s-.71,7.58-.69,11.53c0,4.11-1.85,9.69.75,11.93C91.75,177.33,97.17,176,100.54,176.15ZM19.73,163.5c.59,4.06-1.75,9.49,1,11.84,2.34,2,7.6.76,11.55.61s9.5,1.9,11.86-.89c2-2.35.66-7.59.66-11.55s1.34-9.19-.65-11.56c-2.36-2.8-7.78-.75-11.86-.9s-9.2-1.39-11.56.6C18,154,20.33,159.43,19.73,163.5ZM169.8,151.33c-4.08.13-9.5-2.17-11.89.56-2,2.29-.8,7.57-.69,11.52s-1.87,9.51.85,11.89c2.3,2,7.59.77,11.54.66s9.53,1.85,11.9-.83c2-2.26.73-7.58.61-11.53s1.84-9.53-.81-11.87C179.09,149.77,173.76,151.33,169.8,151.33Z"/>
</svg>
