<svg id="图层_1" data-name="图层 1" xmlns="http://www.w3.org/2000/svg" viewBox="0 0 200 200">
  <title>设备管理</title>
  <g>
    <path d="M100.76,19.83q33.48,0,67,0c13.19,0,20.73,7.41,20.76,20.71q.14,60.46,0,120.93c0,13.39-7.44,20.65-20.82,20.67q-66.71.08-133.42,0c-13.14,0-20.65-7.23-20.69-20.27q-.2-61,0-121.93c0-12.81,7.51-20.06,20.26-20.1C56.12,19.79,78.44,19.83,100.76,19.83Zm.33,12.33h-65C27.62,32.17,26,33.83,26,42.44c0,7.33.25,14.68-.1,22-.2,4.22.7,5.58,5.31,5.53,26-.27,52-.13,78-.13q23.5,0,47,0c4,0,6.9,1.52,7.13,5.91.21,3.91-2.53,6.23-7.2,6.41-1.33.05-2.67,0-4,0-40.5,0-81,0-121.49-.08-3.57,0-4.89.61-4.75,4.54.33,9.49.35,19,0,28.49-.15,4.13,1.27,4.81,5,4.8q62.25-.19,124.49-.06c5.35,0,8.07,2.17,8,6.08-.09,4.08-2.68,6.13-7.9,6.24-1.17,0-2.33,0-3.5,0-40.33,0-80.66.08-121-.11-4.31,0-5.25,1.21-5.06,5.25.34,7.48.09,15,.1,22.49,0,8.3,1.68,10,9.84,10H166.33c7.87,0,9.66-1.82,9.67-9.71q0-59,0-118c0-8.23-1.71-10-9.92-10Z"/>
    <path d="M122.86,44.83c10.82,0,21.64,0,32.46,0,5.36,0,8.09,2.14,8,6-.05,4.07-2.67,6.28-7.83,6.29q-32.71.06-65.42,0c-5,0-7.83-2.37-7.9-6.34-.06-3.7,2.91-5.94,8.18-6C101.22,44.8,112,44.83,122.86,44.83Z"/>
    <path d="M122.74,107.17c-10.82,0-21.64,0-32.46,0-5.16,0-7.86-2.18-8-6.18-.17-3.7,2.85-6.11,8-6.12,21.81,0,43.62,0,65.42,0,4.11,0,7.36,1.19,7.67,5.88.27,4.05-2.58,6.41-7.64,6.44C144.71,107.21,133.72,107.17,122.74,107.17Z"/>
    <path d="M123,157.17c-10.82,0-21.64,0-32.46,0-5.45,0-8.32-2.28-8.36-6.38,0-3.69,2.93-5.92,8.22-5.93q32.46-.05,64.92,0c5.33,0,8.07,2.17,8,6-.07,4.07-2.67,6.23-7.86,6.26C144.68,157.2,133.86,157.17,123,157.17Z"/>
    <path d="M54.3,44.92c2.16,0,4.33-.14,6.47,0,3.43.28,5.71,2.27,5.74,5.68S64.77,56.83,60.94,57A121.83,121.83,0,0,1,47,57c-3.53-.24-5.13-2.82-5.2-6.17s1.93-5.29,5-5.74A53.44,53.44,0,0,1,54.3,45Z" style=""/>
    <path d="M53.73,107.07c-2.16,0-4.33.16-6.47,0-3.53-.33-5.27-2.6-5.44-6-.18-3.59,1.92-5.76,5.26-6A105.1,105.1,0,0,1,61,95c3.4.2,5.61,2.4,5.5,5.86s-2,6-5.81,6.2c-2.32.13-4.65,0-7,0Z" style=""/>
    <path d="M53.59,157.05a60.15,60.15,0,0,1-6.47,0c-3.53-.38-5.18-2.73-5.32-6.1s1.83-5.56,4.92-5.8a93.2,93.2,0,0,1,14.91,0c3.09.26,5.06,2.62,4.88,5.88-.17,3-1.67,5.53-5,5.93a66.5,66.5,0,0,1-8,.06Z" style=""/>
  </g>
</svg>
