<?xml version="1.0" standalone="no"?><!DOCTYPE svg PUBLIC "-//W3C//DTD SVG 1.1//EN" "http://www.w3.org/Graphics/SVG/1.1/DTD/svg11.dtd"><svg class="icon" width="16px" height="13.76px" viewBox="0 0 1191 1024" version="1.1" xmlns="http://www.w3.org/2000/svg"><path fill="" d="M591.412245 21.594558C319.042177 21.594558 97.52381 242.416327 97.52381 515.482993s220.821769 493.888435 493.888435 493.888436c272.370068 0 493.888435-220.821769 493.888435-493.888436S864.478912 21.594558 591.412245 21.594558z m296.75102 826.862585c-52.244898-30.65034-151.858503-101.006803-188.778231-140.712925-40.402721 41.09932-101.703401 111.455782-156.038095 141.409523-10.44898-18.808163-20.201361-37.616327-42.492517-71.053061 54.334694-26.470748 107.27619-101.006803 145.589115-139.319728-24.380952-38.312925-29.257143-142.802721-42.492517-187.385034-6.269388 9.752381-34.133333 82.198639-40.402721 91.254422-14.628571-22.987755-20.897959-41.795918-32.740136-57.121088v46.672109H323.221769v181.115646c35.526531-19.504762 148.37551-55.031293 197.834013-79.412245 1.393197 17.414966 4.87619 31.346939 10.44898 68.266667-102.4 50.851701-234.753741 87.771429-258.438095 110.759183l-44.582313-59.210884c11.145578-13.235374 16.021769-29.953741 16.021768-50.851701V454.182313h207.586395V288.391837h-222.911565V211.069388h301.627211V404.027211c37.616327-64.783673 64.087075-143.49932 79.412245-236.843538L689.632653 183.205442c-5.572789 27.863946-11.842177 54.334694-18.111565 79.412245h290.481633v80.108844h-103.793197c-11.145578 101.703401-59.210884 234.057143-103.793197 299.537415 36.223129 37.616327 149.768707 117.72517 200.620408 142.802721l-66.87347 63.390476z"  /><path fill="" d="M661.072109 342.029932c-2.786395 8.359184-5.572789 16.021769-9.055782 23.684354 12.538776 59.210884 18.808163 160.217687 47.368707 205.496598 26.470748-46.672109 66.873469-155.341497 78.715646-229.180952H661.072109z"  /></svg>
