<?xml version="1.0" standalone="no"?><!DOCTYPE svg PUBLIC "-//W3C//DTD SVG 1.1//EN" "http://www.w3.org/Graphics/SVG/1.1/DTD/svg11.dtd"><svg class="icon" width="200px" height="200.00px" viewBox="0 0 1024 1024" version="1.1" xmlns="http://www.w3.org/2000/svg"><path d="M213.333333 213.333333h597.333334v597.333334H213.333333V213.333333z m85.333334 85.333334v426.666666h426.666666V298.666667H298.666667z m153.6 192v-46.933334h-29.866667v34.133334l42.666667 34.133333-4.266667 8.533333 46.933333-12.8 29.866667 106.666667-51.2 12.8-25.6-106.666667-17.066667 34.133334-17.066666-12.8V682.666667H362.666667v-149.333334l-42.666667 81.066667v-85.333333l42.666667-89.6h-34.133334V392.533333h38.4V324.266667h55.466667v68.266666h29.866667v29.866667l98.133333-98.133333h38.4l98.133333 98.133333v72.533333l-38.4-38.4v46.933334h-157.866666v-46.933334l-38.4 34.133334z m234.666666 200.533333h-243.2V640H597.333333l29.866667-128 55.466667 12.8-29.866667 115.2h34.133333v51.2z m-102.4-183.466667l17.066667 102.4-51.2 8.533334-17.066667-102.4 51.2-8.533334z m55.466667-64l-68.266667-68.266666-68.266666 68.266666H640z"  /></svg>