<?xml version="1.0" standalone="no"?><!DOCTYPE svg PUBLIC "-//W3C//DTD SVG 1.1//EN" "http://www.w3.org/Graphics/SVG/1.1/DTD/svg11.dtd"><svg class="icon" width="16px" height="16.00px" viewBox="0 0 1024 1024" version="1.1" xmlns="http://www.w3.org/2000/svg"><path fill="" d="M512 992c-264.654 0-480-215.346-480-480s215.346-480 480-480c264.676 0 480 215.346 480 480s-215.302 480-480 480zM512 73.738c-241.658 0-438.24 196.582-438.24 438.262 0 241.658 196.604 438.262 438.262 438.262 241.68 0 438.262-196.626 438.262-438.262 0-241.68-196.604-438.262-438.284-438.262zM657.026 680.916c-5.346 0-10.691-2.029-14.771-6.087l-288.982-289.026c-8.16-8.16-8.16-21.36 0-29.52s21.36-8.16 29.52 0l288.982 289.026c8.16 8.138 8.16 21.36 0 29.52-4.058 4.058-9.382 6.087-14.749 6.087zM363.92 680.938c-5.346 0-10.669-2.051-14.749-6.087-8.16-8.16-8.16-21.36 0-29.52l296.138-296.138c8.16-8.16 21.36-8.16 29.52 0 8.138 8.16 8.138 21.36 0 29.52l-296.138 296.138c-4.08 4.036-9.426 6.087-14.771 6.087z" /></svg>
