<?xml version="1.0" standalone="no"?><!DOCTYPE svg PUBLIC "-//W3C//DTD SVG 1.1//EN" "http://www.w3.org/Graphics/SVG/1.1/DTD/svg11.dtd"><svg t="1555749561665" class="icon" style="" viewBox="0 0 1024 1024" version="1.1" xmlns="http://www.w3.org/2000/svg" p-id="1966" xmlns:xlink="http://www.w3.org/1999/xlink" width="300" height="300"><defs><style type="text/css"></style></defs><path d="M896 640c-70.656 0-128-57.344-128-128s57.344-128 128-128 128 57.344 128 128-57.344 128-128 128z m-384 0c-70.656 0-128-57.344-128-128s57.344-128 128-128 128 57.344 128 128-57.344 128-128 128zM128 640c-70.656 0-128-57.344-128-128s57.344-128 128-128 128 57.344 128 128-57.344 128-128 128z" p-id="1967"></path></svg>