<svg id="图层_1" data-name="图层 1" xmlns="http://www.w3.org/2000/svg" viewBox="0 0 200 200">
  <title>人事</title>
  <g>
    <path d="M71.82,93.65C45,73.6,47.34,40.71,64.9,23a46.07,46.07,0,0,1,67.52,2.09c17.09,19.3,15.43,51-9.23,68.84,16.8,6.12,31.09,15.26,41.88,30.57-7.41-.31-13.54.85-20-4.8-22.49-19.55-48.66-23.74-75.88-12s-41.83,33.49-44,63.24c-.65,9.05,1,10.62,9.93,10.62,24.83,0,49.66.2,74.49-.15,5.53-.08,4.55,2.87,4.79,6.14.27,3.75-.28,5.53-4.9,5.48-24.83-.27-49.66-.11-74.49-.13-15,0-21.28-6.39-21-21.37.53-33.83,22.72-64.46,55.36-76.4C70.26,94.72,71.29,94.66,71.82,93.65Zm25.66-3.51a35,35,0,0,0,35.14-34.75c.12-19.39-15.68-34.66-36.06-34.88C78.48,20.32,63,36.15,62.9,55A34.69,34.69,0,0,0,97.48,90.14Z"/>
    <path d="M157.1,170c-8.16,0-16.33-.09-24.49,0-3.82.06-6.34-1.53-6.47-5.26-.14-4,2.31-6,6.37-6q24.49,0,49,0c4,0,6.53,1.78,6.45,5.85-.07,3.84-2.56,5.4-6.35,5.36C173.43,169.93,165.26,170,157.1,170Z"/>
    <path d="M156.49,147.17c-7.82,0-15.64,0-23.45,0-3.83,0-6.85-1.35-6.86-5.46,0-4.32,3-5.78,7.1-5.75q24,.12,47.91,0c3.91,0,6.73,1.25,6.77,5.43,0,4.42-2.9,5.85-7,5.8C172.79,147.1,164.64,147.17,156.49,147.17Z"/>
    <path d="M156.85,192.84c-8,0-16-.07-24,0-4,0-6.79-1.5-6.71-5.58s2.9-5.52,6.86-5.5q24,.13,48,0c3.88,0,6.81,1.29,6.93,5.39.13,4.52-3,5.73-7.08,5.68C172.85,192.77,164.85,192.84,156.85,192.84Z" style=""/>
  </g>
</svg>
