<svg id="图层_1" data-name="图层 1" xmlns="http://www.w3.org/2000/svg" viewBox="0 0 200 200">
  <title>岗位</title>
  <g>
    <path d="M13.49,91c0-18.66,0-37.31,0-56,0-14.41,7.08-21.51,21.45-21.52q56.72-.06,113.44,0c14.06,0,21.43,7.53,21.44,21.7q0,56.22,0,112.44,0,22.16-22.09,22.17-56.22,0-112.44,0-21.72,0-21.8-21.86C13.46,129,13.49,110,13.49,91Zm143.67,1q0-28.74,0-57.48c0-6.67-1.88-8.53-8.64-8.53q-57,0-114,0C28,26,26,28,26,34.69q0,56.73,0,113.45c0,7.28,1.77,9,9.2,9q56.48,0,113,0c7.36,0,9-1.68,9-9.16Q157.18,120,157.16,92Z"/>
    <path d="M191.88,107.09q0,31,0,62c0,14.92-7.86,22.74-22.86,22.75q-56.24,0-112.49,0a23.08,23.08,0,0,1-4.95-.41c-3.18-.7-4.81-2.8-4.74-6.1a5.42,5.42,0,0,1,4.62-5.68,26.6,26.6,0,0,1,5.44-.45q55.74,0,111.49,0c9.29,0,10.82-1.5,10.82-10.61q0-61.49,0-123c0-.83,0-1.67,0-2.5,0-6.56,2-9.44,6.35-9.43s6.31,2.92,6.32,9.46Q191.89,75.09,191.88,107.09Z" style=""/>
    <path d="M88,138.6c-12.54-.46-25.21-.41-37.6-3.45-2.1-.52-4.59-.83-5.26-3.15-.78-2.7,1-4.75,2.95-6.42,6.15-5.35,13.79-7,21.48-8.54a22.42,22.42,0,0,0,3.44-.54c1.26-.46,3.26.34,3.61-1.83a4.3,4.3,0,0,0-2-4.67c-6.21-4.19-10.43-10.06-14.24-16.42-2.26-3.78-5.75-6.78-6.83-11.34-.79-3.36-1.37-6.65,1.19-9.42,1.46-1.58,1.11-3.37,1.37-5.13C57.88,55.18,63.33,45,75.92,40.79c12.28-4.12,24.27-3.58,34.61,5.63,4.36,3.89,6.78,8.92,8.49,14.4,1.4,4.47,1.48,9.14,4.44,13.44,2.52,3.66.3,8.65-2.43,12a77.22,77.22,0,0,0-6.31,10A42.35,42.35,0,0,1,103,109.69c-1.78,1.27-3.06,2.56-2.59,4.86.53,2.6,3,1.87,4.47,2.1,7.29,1.07,14.33,2.81,20.75,6.57a19.1,19.1,0,0,1,3.58,2.68c1.69,1.63,3.48,3.48,2.74,6-.69,2.37-3.11,2.7-5.21,3.21C114,138.24,101,138.2,88,138.6Z"/>
  </g>
</svg>
