<svg id="图层_1" data-name="图层 1" xmlns="http://www.w3.org/2000/svg" viewBox="0 0 200 200">
  <title>部门</title>
  <g>
    <path d="M100.21,13.67a28,28,0,0,1,16,4.45q34,21.71,68,43.54c5.78,3.72,5.72,8.94-.19,12.45-22,13.05-44,26.13-66.09,38.93-11,6.38-22.52,6.63-33.67.16Q50.92,93.81,17.74,74.08c-5.87-3.48-5.89-8.73-.12-12.45q33.73-21.7,67.55-43.27A27.24,27.24,0,0,1,100.21,13.67Zm72.43,53.71c-1.7-1.18-2.88-2.06-4.12-2.86-18.42-11.9-36.9-23.7-55.24-35.73C105,23.34,97,23.31,88.67,28.7,70,40.76,51.12,52.6,32.35,64.57c-1.34.86-3,1.33-3.82,3.09,19.89,11.74,39.72,23.53,59.65,35.17,8.14,4.75,16.53,4.62,24.65-.13C132.6,91.11,152.3,79.4,172.64,67.38Z"/>
    <path d="M101,154a35.73,35.73,0,0,1-18.8-5.72q-32.32-20.22-64.66-40.41c-3-1.87-5.47-4.08-3.89-8.09,1.44-3.65,4.82-4.19,9.16-1.44,19.08,12.09,38.62,23.54,57.05,36.56,14.55,10.28,27.17,10.48,41.85.24,18.51-12.91,38.15-24.2,57.29-36.2,2-1.24,3.9-2.7,6.43-1.56a5.29,5.29,0,0,1,3.15,4.22c.42,2.72-1.31,4.33-3.34,5.62q-10.73,6.8-21.51,13.53-21.54,13.48-43.09,27C114.62,151.51,108.2,153.93,101,154Z"/>
    <path d="M97.94,188.43c-3.75-.08-9.74-1.81-15.22-5.24Q50,162.67,17.2,142.19c-3.2-2-5.41-4.28-3.12-8.06s5.52-2.73,8.6-.79c21,13.17,42,26.2,62.89,39.55,10.42,6.67,20.26,6.71,30.71,0,20.14-12.92,40.52-25.47,60.8-38.17,1-.62,2-1.21,3-1.85,3-2,5.78-1.79,7.77,1.27,2.1,3.23.43,5.74-2.35,7.56-3.89,2.55-7.89,4.92-11.84,7.39Q147,165.74,120.37,182.43C114.32,186.24,107.86,188.56,97.94,188.43Z"/>
  </g>
</svg>
