<?xml version="1.0" standalone="no"?><!DOCTYPE svg PUBLIC "-//W3C//DTD SVG 1.1//EN" "http://www.w3.org/Graphics/SVG/1.1/DTD/svg11.dtd"><svg t="1569210517056" class="icon" viewBox="0 0 1024 1024" version="1.1" xmlns="http://www.w3.org/2000/svg" p-id="1346" xmlns:xlink="http://www.w3.org/1999/xlink" width="200" height="200"><defs><style type="text/css"></style></defs><path d="M261.632 878.592c-34.816 0-63.488-28.672-63.488-63.488V215.552c0-34.816 28.672-63.488 63.488-63.488h438.784c34.816 0 63.488 28.672 63.488 63.488v113.152c0 14.336-11.776 26.112-26.112 26.112s-26.112-11.776-26.112-26.112V215.552c0-6.144-5.12-11.264-11.264-11.264H261.632c-6.144 0-11.264 5.12-11.264 11.264v599.552c0 6.144 5.12 11.264 11.264 11.264h215.04c6.656 0 13.312 3.072 17.92 8.192s7.168 11.776 7.168 18.432c-0.512 13.824-11.264 25.088-25.6 25.6H261.632z" fill="" p-id="1347"></path><path d="M324.096 329.728c-12.8 0-23.04-10.24-23.04-23.04s10.24-23.04 23.04-23.04h263.168c12.8 0 23.04 10.24 23.04 23.04s-10.24 23.04-23.04 23.04H324.096z m0 118.272c-12.8 0-23.04-10.24-23.04-23.04s10.24-23.04 23.04-23.04h171.008c12.8 0 23.04 10.24 23.04 23.04S507.904 448 495.104 448H324.096z m0 118.784c-12.8 0-23.04-10.24-23.04-23.552 0-12.8 10.24-23.04 23.04-23.552H435.2c12.8 0 23.04 10.24 23.04 23.552 0 12.8-10.24 23.552-23.04 23.552H324.096z m412.672 52.736c-59.392 0-108.032-48.64-108.032-108.032 0-59.392 48.64-108.032 108.032-108.032 59.392 0 108.032 48.64 108.032 108.032 0 59.904-48.64 108.032-108.032 108.032z m0-169.472c-33.792 0-61.44 27.648-61.44 61.44s27.648 61.44 61.44 61.44 61.44-27.648 61.44-61.44-27.648-61.44-61.44-61.44zM897.024 893.44H576.512c-12.8 0-23.04-10.24-23.04-23.04V757.76c0-12.8 10.24-23.04 23.04-23.04h320.512c12.8 0 23.04 10.24 23.04 23.04V870.4c0.512 12.8-10.24 23.04-23.04 23.04z m-297.472-46.08h274.432v-66.048H599.552v66.048z" fill="" p-id="1348"></path><path d="M626.176 779.776c-9.216 0-17.92-6.144-20.992-15.36-3.584-11.264 3.072-23.552 14.336-27.136 79.36-24.576 62.464-132.608 61.44-137.216-2.048-11.776 6.144-23.04 17.92-25.088 11.776-2.048 23.04 6.144 25.088 17.92 8.704 51.712 1.024 157.184-91.648 185.856-2.048 0.512-4.096 1.024-6.144 1.024z m226.304 0c-2.048 0-4.096-0.512-6.656-1.024-92.672-28.672-100.352-134.144-91.648-185.856 2.048-11.776 13.312-19.968 25.088-17.92 11.776 2.048 19.968 13.312 17.92 25.088-0.512 4.608-17.408 112.64 61.44 137.216 11.264 3.584 17.92 15.872 14.336 27.136-2.56 9.216-11.264 15.36-20.48 15.36z" fill="" p-id="1349"></path></svg>
