<svg id="图层_1" data-name="图层 1" xmlns="http://www.w3.org/2000/svg" viewBox="0 0 200 200">
  <title>员工</title>
  <path d="M99.29,194.92c-18.8-.63-39.33-.23-59.45-4.87a35.38,35.38,0,0,1-11.56-4.45c-5.09-3.31-6.36-7-4.62-12.84s6-9.91,10.89-13.18c10.33-6.86,22.1-9.73,34-12.18,1.48-.3,4.28.81,4.31-2,0-2.49,1.19-5.29-1.36-7.45-10.88-9.21-18.2-20.88-24.41-33.62-2.68-5.51-7.37-10-9.49-16.16-3.05-8.77-3.55-16.9,3.65-24,1.52-1.51,1.36-3.67,1.72-5.61,4.38-23.88,16.15-42,40.63-48.69C116.86.72,152.15,15.14,159,58.34c.35,2.18.79,4.11,2.45,5.8a17.63,17.63,0,0,1,5,15.15c-1.25,9.46-3.35,18.69-11.25,25.31a9.25,9.25,0,0,0-2,3.33c-5.21,11.53-12.26,21.76-22,29.84-2.86,2.36-2.09,5-2,7.67s2.91,1.67,4.4,2c10.3,2.08,20.43,4.63,29.77,9.61,5.36,2.86,10.17,6.43,13.34,11.73,4.83,8.08,2.9,14.4-5.65,18.32-8.12,3.73-16.91,4.88-25.68,5.8C130.56,194.42,115.75,194.72,99.29,194.92Zm-63.52-19.3c4.45,2.09,8.9,2.75,13.32,3.41,23.82,3.56,47.79,3.59,71.77,2.8,14-.46,27.93-1.26,41.56-4.79,1.24-.32,3-.31,3.31-1.64s-1.17-2.27-2.14-3.16a33.6,33.6,0,0,0-10.2-6.14A110.26,110.26,0,0,0,125,158.89c-6.77-.85-8.12-2.45-8.14-9.32,0-3.83.15-7.67,0-11.5a8.4,8.4,0,0,1,3.63-7.69c10.31-7.88,17.45-18.17,22.38-30.07.71-1.71,1.28-3.56,2.87-4.57,6.57-4.18,7.21-11.09,8.3-17.78a5.62,5.62,0,0,0-2.12-5.82c-3.79-2.52-4.43-6.21-4.91-10.31-3.57-30.82-28.48-48-58.6-40.6C69.95,25.77,57.25,41.56,55,62.71c-.32,2.94,0,6.4-2.67,8.28-5.46,3.83-5.5,8.84-2.46,13.53,7.8,12,13,25.67,22.48,36.65.87,1,1.6,2.3,2.7,2.92,10.15,5.73,11.05,15,10.26,25.25-.56,7.25-1.47,8.67-9,9.65-10.09,1.31-19.94,3.6-29.24,7.86C42.79,168.8,38.68,170.94,35.77,175.62Z"/>
</svg>
