<?xml version="1.0" standalone="no"?><!DOCTYPE svg PUBLIC "-//W3C//DTD SVG 1.1//EN" "http://www.w3.org/Graphics/SVG/1.1/DTD/svg11.dtd"><svg t="1566961573459" class="icon" viewBox="0 0 1024 1024" version="1.1" xmlns="http://www.w3.org/2000/svg" p-id="2105" xmlns:xlink="http://www.w3.org/1999/xlink" width="200" height="200"><defs><style type="text/css"></style></defs><path d="M883.9 447.4l-58-216.4-147.4 39.5-20.8-77.6-166.3-96c-30.5-17.6-69.8-7.1-87.4 23.4L99.8 647c-17.6 30.5-7.1 69.8 23.4 87.4l332.6 192c30.5 17.6 69.8 7.1 87.4-23.4l208-360.3-14.9-55.8 147.6-39.5zM487.9 871L155.3 679l304.1-526.7 138 79.7 82.2 307-191.7 332zM695 332.4l76.7-20.6 24.9 92.7-76.7 20.6-24.9-92.7zM862.3 575.9s-64 56.5-64 93.4 28.7 66.7 64 66.7c35.4 0 64-29.9 64-66.7s-64-93.4-64-93.4z" p-id="2106" fill=""></path></svg>
