<svg id="图层_1" data-name="图层 1" xmlns="http://www.w3.org/2000/svg" viewBox="0 0 201 201">
  <title>库存初始化</title>
  <g>
    <path d="M200.14,86.31c-1.17,4.33-4.16,6.27-8.47,6.07-4.48-.21-7.07-2.72-8.71-6.94-7.66-19.81-16.5-38.6-34.88-51.45C108.69,6.44,53.81,18.28,29.92,60,1.26,110.07,31.57,173.06,88.54,181.83a82.23,82.23,0,0,0,88.32-50.52c.73-1.83,1.5-3.64,2.15-5.5,2-5.68,6.37-8,11.64-6.22a9.48,9.48,0,0,1,5.66,12.59c-15.24,38.53-42.36,62.37-84.15,68.09-.41.06-.77.48-1.16.72H97c-2.24-1.68-4.75-1.1-7.21-.83a91.45,91.45,0,0,1-43.23-15.31C20.82,167.4,5.37,143.44,1.86,112.21c.31-1.84.84-3.71-.86-5.21V98c1.79-2.56,1-5.41.9-8.18C2.25,87,2.47,84.2,3,81.43,10.56,39.66,48.34,5,89.79,1.84c2.79.23,5.62.88,8.21-.84h7c2.25,1.61,4.73,1.2,7.21.84,29.22,3.23,52.17,17.45,70.56,41.4,0-8.71-.08-16.14,0-23.56.07-5.11,2.89-9.1,7-9.55,4.64-.5,8.51.92,10.22,5.84l0,12q0,10.5,0,21,0,8,0,16Z"/>
    <path d="M200,49q0-10.5,0-21l.94,0V49Z" style=""/>
    <path d="M200.14,86.31Q200.08,75.65,200,65h1V86l-.36.34Z" style=""/>
    <path d="M201,65h-1q0-8,0-16h1Z" style=""/>
    <path d="M201,28l-.94,0q0-6,0-12l1,0Z" style=""/>
    <path d="M89.79,1.84A4.33,4.33,0,0,1,90,1h8C95.41,2.72,92.58,2.07,89.79,1.84Z" style=""/>
    <path d="M1,90a1,1,0,0,0,.9-.18C2,92.59,2.79,95.44,1,98Z" style=""/>
    <path d="M112,1q.1.42.21.84c-2.48.36-5,.77-7.21-.84Z" style=""/>
    <path d="M90,201a2,2,0,0,1-.21-.83c2.47-.28,5-.85,7.21.83Z" style=""/>
    <path d="M1.86,112.21H1.4L1,112v-5C2.7,108.51,2.17,110.38,1.86,112.21Z" style=""/>
    <path d="M76.94,80.88c3.49-.52,7.23,2.54,10.18.48s1.69-6.52,2.94-9.75c1.51-3.9,3.75-4.32,6.57-1.14a13.4,13.4,0,0,1,.89,1.2c5.22,7.4,5.22,7.41,13.34,2.9,2.06-1.15,4.46-2.76,6.46-1.23s.79,4.3.13,6.51a23,23,0,0,1-1,2.82c-1.8,4-.24,5.77,3.82,6.43a32.12,32.12,0,0,1,8.59,2.42c2.89,1.37,3.37,3.7.28,5.64a42.44,42.44,0,0,1-5.35,2.61c-6.12,2.72-6.11,2.7-2.11,8.3a61.6,61.6,0,0,1,4.11,6.23c.65,1.2,1.75,2.68.37,4.13-1.18,1.24-2.71,1.16-4.18.67-2.83-.95-5.64-2-8.44-3s-4.4-.21-4.59,3-.58,6.29-1,9.43c-.19,1.5-.57,3.08-2.31,3.47s-2.82-.89-3.61-2.15c-1.76-2.81-3.46-5.67-5-8.59s-3.12-3-5.38-.82a58.22,58.22,0,0,1-7.07,6.28c-2.81,2-4.68,1.15-4.72-2.58a34.74,34.74,0,0,1,1.7-9.8c1.17-4.15-.5-5.56-4.41-5.38-1.66.07-3.33,0-5,0-1.86,0-4-.09-4.77-2-1-2.3,1.11-3.64,2.54-4.9a58,58,0,0,1,6-4.46c2.87-1.91,3.18-4,.74-6.46-1.16-1.19-2.16-2.53-3.2-3.83-1.17-1.46-2.3-3.07-1.42-5C73,80.24,75.21,81,76.94,80.88Zm13.13,19.54a9.5,9.5,0,0,0,9.42,9,8.82,8.82,0,0,0,8.65-9c0-5-3.87-9.21-8.44-9.24C94.38,91.14,90,95.38,90.06,100.42Z"/>
  </g>
</svg>
