<svg id="图层_1" data-name="图层 1" xmlns="http://www.w3.org/2000/svg" viewBox="0 0 200 200">
  <title>入库</title>
  <g>
    <path d="M30.31,78.88c-2.79,2-4.71,3.26-6.51,4.69-3.14,2.49-6.27,3.46-9-.36s-.7-6.5,2.39-8.82q8.19-6.13,16.37-12.26C54.24,46.71,75,31.38,95.52,15.81c4-3,6.87-3.22,11-.12,25.86,19.58,51.9,38.92,77.87,58.35,4.43,3.32,5.62,6.67,3,9.51-3.17,3.49-6.37,2.15-9.64-.34C165.71,74.06,153.55,65,141.44,56c-12.38-9.28-24.79-18.52-37.1-27.88-2.26-1.72-3.77-2.08-6.32-.14Q71.61,48,44.87,67.69c-2.65,2-3.28,4.06-3.27,7.11q.13,51.71.05,103.43c0,7.14-1.5,9.9-5.44,10.06-4.18.18-5.91-2.77-5.91-10.09q0-46.22,0-92.44C30.31,83.79,30.31,81.81,30.31,78.88Z"/>
    <path d="M188.23,164.91c.78,4.49-.49,8.31-5.1,10s-7.72-.82-10.24-4.76c-3.37-5.26-7.66-9.62-14.1-11.17-2.21-.53-3.81-.86-3.65,2.44.23,4.62.8,9.63-5,11.76-6.12,2.26-9.11-2.21-12.43-5.91-5.22-5.83-10.47-11.62-15.63-17.49-4.12-4.69-4.2-9.61,0-14.32,6.09-6.83,12.4-13.47,18.57-20.22a7.32,7.32,0,0,1,8.63-2c3.43,1.35,6.3,3.93,5.71,7.87-.83,5.53,1.9,6.76,6.53,7.86C177.85,132.79,186.69,145,188.23,164.91Zm-10.43-4.59c-1.25-12.85-9-20.82-22.14-23.23-9.54-1.76-9.53-1.76-9.82-11.14,0-.39-.33-.77-.66-1.5L130,140.67c-.82.87-1.73,1.85-.69,3,5.2,5.84,10.47,11.63,16.38,18.19.09-1.93.15-2.56.15-3.19.12-10.36,1-11.07,11.21-9.86C165.4,149.81,171.91,154.09,177.81,160.31Z"/>
    <path d="M91,177.88c0-9.88,0-9.88,9.62-9.88,1.33,0,2.68.11,4,0,4.83-.47,6.76,1.83,6.36,6.47,0,.5.06,1,0,1.5-.65,4,2.21,9.51-1.76,11.65-4.56,2.45-10.43,1-15.73.51-1.85-.17-2.41-1.62-2.45-3.23C91,182.54,91,180.21,91,177.88Z"/>
    <path d="M56.72,178.15C56.71,167,56.08,168,67,168c1.33,0,2.67.1,4,0,4.16-.35,5.7,1.87,5.69,5.67-.06,16.89,1.71,14.75-12.77,14.83-7.07,0-7.21-.25-7.24-7.33C56.71,180.15,56.72,179.15,56.72,178.15Z" style=""/>
    <path d="M91,140.82c0-9.32,0-9.32,9.65-9.32,10.36,0,10.36,0,10.36,10.19,0,9.83,0,9.83-9.68,9.83C91,151.51,91,151.51,91,140.82Z"/>
    <path d="M56.72,141.23c0-9.74,0-9.74,9.82-9.74,10.21,0,10.21,0,10.21,10.52,0,1.67,0,3.33,0,5,0,3.13-1.62,4.53-4.67,4.49-1.67,0-3.33,0-5,0C56.72,151.51,56.72,151.51,56.72,141.23Z" style=""/>
    <path d="M100.68,117.17c-9.71,0-9.73,0-9.71-9.8C91,96,89.86,96.84,101.4,96.83c1.5,0,3,.11,4.49,0,3.69-.22,5.1,1.7,5.08,5.13,0,3-.22,6,.06,9,.46,4.88-1.63,6.76-6.36,6.23A35.73,35.73,0,0,0,100.68,117.17Z"/>
    <path d="M56.72,106.94c0-11.35-.7-10,10.32-10.11,1.33,0,2.67.12,4,0,4.17-.42,5.72,1.73,5.7,5.56C76.65,120,78.46,116.75,63,117.23c-4.7.14-6.86-1.48-6.27-6.3A33.43,33.43,0,0,0,56.72,106.94Z" style=""/>
  </g>
</svg>
