<?xml version="1.0" standalone="no"?><!DOCTYPE svg PUBLIC "-//W3C//DTD SVG 1.1//EN" "http://www.w3.org/Graphics/SVG/1.1/DTD/svg11.dtd"><svg t="1566961793335" class="icon" viewBox="0 0 1024 1024" version="1.1" xmlns="http://www.w3.org/2000/svg" p-id="4828" xmlns:xlink="http://www.w3.org/1999/xlink" width="200" height="200"><defs><style type="text/css"></style></defs><path d="M825.6 512l-156.8-272h-313.6L198.4 512l156.8 272h313.6l156.8-272z m-99.2 304c-12.8 19.2-32 32-54.4 32h-313.6c-22.4 0-44.8-12.8-54.4-32L140.8 544c-12.8-19.2-12.8-44.8 0-64l156.8-272c12.8-19.2 32-32 54.4-32h313.6c22.4 0 44.8 12.8 54.4 32l156.8 272c12.8 19.2 12.8 44.8 0 64l-150.4 272z" fill="" p-id="4829"></path><path d="M512 672c-89.6 0-160-70.4-160-160s70.4-160 160-160 160 70.4 160 160-70.4 160-160 160z m0-64c54.4 0 96-41.6 96-96s-41.6-96-96-96-96 41.6-96 96 41.6 96 96 96z" fill="" p-id="4830"></path></svg>
