<?xml version="1.0" standalone="no"?><!DOCTYPE svg PUBLIC "-//W3C//DTD SVG 1.1//EN" "http://www.w3.org/Graphics/SVG/1.1/DTD/svg11.dtd"><svg t="1566962223017" class="icon" viewBox="0 0 1024 1024" version="1.1" xmlns="http://www.w3.org/2000/svg" p-id="9658" xmlns:xlink="http://www.w3.org/1999/xlink" width="200" height="200"><defs><style type="text/css"></style></defs><path d="M751.742464 757.286509H302.225344c-13.785192 0-24.973173-11.187982-24.973173-24.973174s11.187982-24.973173 24.973173-24.973173h449.51712c13.785192 0 24.973173 11.187982 24.973173 24.973173s-11.187982 24.973173-24.973173 24.973174zM751.742464 283.795142H302.225344c-13.785192 0-24.973173-11.187982-24.973173-24.973173s11.187982-24.973173 24.973173-24.973174h449.51712c13.785192 0 24.973173 11.187982 24.973173 24.973174s-11.187982 24.973173-24.973173 24.973173z" p-id="9659" fill=""></path><path d="M520.990342 972.954834H177.359477c-14.384548 0-26.071993-12.087016-26.071993-27.07092V77.017267c0-14.983904 11.687445-27.07092 26.071993-27.07092h687.061945c14.384548 0 26.071993 12.087016 26.071993 27.07092v523.437713h49.946347V29.967808c0-16.582187-13.285728-29.967808-29.568237-29.967808H130.909375c-16.382402 0-29.568237 13.385621-29.568238 29.967808v962.965564c0 16.582187 13.285728 29.967808 29.568238 29.967808H520.990342v-49.946346z" p-id="9660" fill=""></path><path d="M915.566481 604.450688m-24.973173 0a24.973173 24.973173 0 1 0 49.946347 0 24.973173 24.973173 0 1 0-49.946347 0Z" p-id="9661" fill=""></path><path d="M525.984977 999.026827m-24.973173 0a24.973173 24.973173 0 1 0 49.946346 0 24.973173 24.973173 0 1 0-49.946346 0Z" p-id="9662" fill=""></path><path d="M735.659741 1018.306116l-108.183787-71.822846c-11.48766-7.591845-14.584333-23.175105-6.992489-34.662765 7.591845-11.48766 23.175105-14.584333 34.662765-6.992488l108.183787 71.822846c11.48766 7.591845 14.584333 23.175105 6.992488 34.662765-7.691737 11.48766-23.175105 14.584333-34.662764 6.992488z" p-id="9663" fill=""></path><path d="M728.667252 983.643352l165.721978-249.731734c7.591845-11.48766 23.175105-14.584333 34.662765-6.992488 11.48766 7.591845 14.584333 23.175105 6.992488 34.662764l-165.721978 249.731734c-7.591845 11.48766-23.175105 14.584333-34.662764 6.992488-11.48766-7.691737-14.684226-23.175105-6.992489-34.662764zM745.748903 520.540825H296.231782c-13.785192 0-24.973173-11.187982-24.973173-24.973173s11.187982-24.973173 24.973173-24.973173h449.517121c13.785192 0 24.973173 11.187982 24.973173 24.973173s-11.187982 24.973173-24.973173 24.973173z" p-id="9664" fill=""></path></svg>
