<svg id="图层_1" data-name="图层 1" xmlns="http://www.w3.org/2000/svg" viewBox="0 0 200 200">
  <title>日志管理</title>
  <g>
    <path d="M48,26c10.15,0,20.3.14,30.45-.08,3.18-.07,3.8.91,3.78,3.9q-.2,30.45,0,60.89c0,3.18-.68,4.24-4.07,4.21-20.13-.17-40.26-.14-60.39,0-3,0-4.39-.45-4.36-4,.17-20.46.13-40.93,0-61.39,0-2.86.82-3.64,3.64-3.59C27.38,26.1,37.7,26,48,26ZM26,60c0,6.32.13,12.64-.06,18.95-.08,2.68.78,3.31,3.35,3.29q18.45-.19,36.9,0c2.72,0,3.75-.58,3.71-3.54-.17-12.13-.13-24.27,0-36.4,0-2.64-.46-3.87-3.5-3.83-12.46.15-24.93.13-37.4,0-2.45,0-3.11.7-3,3.09C26.11,47.69,26,53.84,26,60Z"/>
    <path d="M13.49,147.48c0-9.82.12-19.64-.07-29.45-.06-3.24.48-4.66,4.25-4.62,20.13.19,40.27.16,60.41,0,3.24,0,4.19.82,4.17,4.14q-.24,30.45,0,60.91c0,3.22-1,3.78-3.93,3.77-20.3-.13-40.6-.17-60.9,0-3.63,0-4-1.36-4-4.34C13.58,167.78,13.49,157.63,13.49,147.48ZM26,148c0,6.16.11,12.33-.05,18.49-.07,2.54.59,3.44,3.3,3.41q18.49-.21,37,0c2.84,0,3.69-.81,3.66-3.65q-.21-18.49,0-37c0-2.71-.86-3.33-3.41-3.31q-18.74.17-37.48,0c-2.4,0-3.12.65-3.06,3.06C26.11,135.33,26,141.66,26,148Z"/>
    <path d="M143.38,32.16c11.83,0,23.67,0,35.5,0a23,23,0,0,1,5.41.63c2.83.7,4,2.9,4,5.62a5.57,5.57,0,0,1-3.91,5.76,15.66,15.66,0,0,1-5.42.64H107a14.25,14.25,0,0,1-5.41-.7,5.6,5.6,0,0,1-3.77-5.84,5.51,5.51,0,0,1,3.66-5.41,13.76,13.76,0,0,1,5.4-.74Q125.13,32.17,143.38,32.16Z" style=""/>
    <path d="M143.54,88.51H108.12c-1.16,0-2.33,0-3.49,0-3.89-.3-6.85-1.75-6.8-6.25s2.86-6,6.84-6.21c1,0,2,0,3,0H178.5a22.09,22.09,0,0,1,5,.24c3.07.72,4.93,2.72,4.87,6s-1.62,5.37-4.92,5.88a32.94,32.94,0,0,1-5,.34Q161,88.54,143.54,88.51Z" style=""/>
    <path d="M143,176c-12.33,0-24.65,0-37,0-5.47,0-8-1.92-8.19-5.93-.19-4.29,2.38-6.54,8.05-6.55q37.23-.09,74.45,0c5.43,0,7.93,2.12,8,6.16S185.57,176,180,176C167.66,176,155.34,176,143,176Z" style=""/>
    <path d="M143.51,119.83c12.49,0,25-.07,37.48,0,5.77,0,8.84,4,6.83,8.59-1.23,2.78-3.55,3.71-6.46,3.71-25.49,0-51,0-76.47,0-4.66,0-7.32-2.52-7.07-6.49.28-4.42,3.27-5.8,7.21-5.8Z"/>
  </g>
</svg>
