<?xml version="1.0" standalone="no"?><!DOCTYPE svg PUBLIC "-//W3C//DTD SVG 1.1//EN" "http://www.w3.org/Graphics/SVG/1.1/DTD/svg11.dtd"><svg t="1573722123272" class="icon" viewBox="0 0 1024 1024" version="1.1" xmlns="http://www.w3.org/2000/svg" p-id="3095" xmlns:xlink="http://www.w3.org/1999/xlink" width="200" height="200"><defs><style type="text/css"></style></defs><path d="M914.8 759.6c-1.3-7.5-6.5-13.6-13.3-16.6l-17.7-7.7c-17.9-7.8-28.7-26.4-26.5-45.8l2.1-19.3c0.8-7.6-1.9-15.4-7.8-20.3-15.1-12.6-32.3-22.7-51-29.9-2.4-0.9-4.9-1.3-7.3-1.3-4.8 0-9.5 1.6-13.5 4.4l-17.5 12.7c-7.9 5.7-17.1 8.5-26.3 8.5s-18.4-2.8-26.3-8.5l-12.8-9.3c-5.8-4.2-12.6-6.3-19.4-6.3-4.8 0-9.6 1-14.1 3-15.6 6.9-30.1 15.9-43.1 26.6-5.8 4.9-8.6 12.6-7.8 20.3l2.1 19.3c2.1 19.4-8.6 38-26.5 45.8l-17.7 7.7c-6.8 3-12.1 9.2-13.3 16.6-1.7 9.7-2.6 19.6-2.6 29.7 0 10.1 0.9 20.1 2.6 29.7 1.3 7.5 6.5 13.6 13.3 16.6l17.7 7.7c17.9 7.8 28.7 26.4 26.5 45.8l-2.1 19.3c-0.8 7.6 1.9 15.4 7.8 20.3 15.1 12.6 32.3 22.7 51 29.9 2.4 0.9 4.9 1.3 7.3 1.3 4.8 0 9.5-1.6 13.5-4.4l17.5-12.7c7.9-5.7 17.1-8.5 26.3-8.5s18.4 2.9 26.3 8.5l17.5 12.7c4 2.9 8.7 4.4 13.5 4.4 2.5 0 5-0.4 7.3-1.3 18.7-7.1 35.9-17.3 51-29.9 5.8-4.8 8.6-12.6 7.8-20.3l-2.1-19.3c-2.1-19.4 8.6-38 26.5-45.8l17.7-7.7c6.8-3 12.1-9.1 13.3-16.6 1.7-9.7 2.6-19.6 2.6-29.7 0-10-0.9-19.9-2.5-29.6zM874.1 801l-7.5 3.3c-35.2 15.4-56.1 51.4-51.9 89.5l1 8.7c-6.4 4.5-13.1 8.5-20.1 11.8l-8.3-6c-15.1-10.9-32.8-16.7-51.3-16.7s-36.3 5.8-51.3 16.7l-8.3 6c-7-3.4-13.7-7.3-20.1-11.8l1-8.7c4.2-38.2-16.7-74.2-51.9-89.6l-7.5-3.3c-0.4-4-0.5-7.9-0.5-11.7 0-3.8 0.2-7.8 0.5-11.7l7.5-3.3c35.2-15.4 56.1-51.4 51.9-89.5l-1-8.7c6.4-4.5 13.1-8.5 20.1-11.8l8.3 6c15.1 10.9 32.8 16.7 51.3 16.7s36.3-5.8 51.3-16.7l8.3-6c7 3.4 13.7 7.3 20.1 11.8l-1 8.7c-4.2 38.2 16.7 74.2 51.9 89.5l7.5 3.3c0.4 4 0.5 7.9 0.5 11.7 0 4-0.1 7.9-0.5 11.8z" fill="" p-id="3096"></path><path d="M735.9 725.3c-35.4 0-64 28.7-64 64s28.7 64 64 64c35.4 0 64-28.7 64-64s-28.7-64-64-64z m0 85.4c-11.8 0-21.3-9.6-21.3-21.3 0-11.8 9.6-21.3 21.3-21.3 11.8 0 21.3 9.6 21.3 21.3 0 11.7-9.5 21.3-21.3 21.3z" fill="" p-id="3097"></path><path d="M490.7 917.3h-320c-11.7 0-21.3-9.6-21.3-21.3V128c0-11.7 9.6-21.3 21.3-21.3H768c11.7 0 21.3 9.6 21.3 21.3v426.7c0 11.8 9.6 21.3 21.3 21.3 11.8 0 21.3-9.6 21.3-21.3v-448c0-23.5-19.2-42.7-42.7-42.7h-640c-23.5 0-42.7 19.2-42.7 42.7v810.7c0 23.5 19.2 42.7 42.7 42.7h341.3c11.8 0 21.3-9.6 21.3-21.3 0.2-11.9-9.4-21.5-21.1-21.5z" fill="" p-id="3098"></path><path d="M618.7 426.7c11.8 0 21.3-9.6 21.3-21.3 0-11.8-9.6-21.3-21.3-21.3H512l114.5-130.9c13.6-15.5 2.6-39.8-18.1-39.8-7 0-13.6 3-18.1 8.3l-121 141-120.8-141c-4.6-5.3-11.2-8.4-18.2-8.4-20.6 0-31.7 24.3-18.1 39.8L426.7 384H320c-11.8 0-21.3 9.6-21.3 21.3 0 11.8 9.6 21.3 21.3 21.3h128v64l-127.7-0.5c-12 0-21.7 9.6-21.7 21.6 0 11.9 9.7 21.6 21.6 21.6H448v149.3c0 11.8 9.6 21.3 21.3 21.3 11.8 0 21.3-9.6 21.3-21.3V533.3h128c11.8 0 21.3-9.6 21.3-21.3 0-11.8-9.6-21.3-21.3-21.3h-128v-64h128.1z" fill="" p-id="3099"></path></svg>
