<?xml version="1.0" standalone="no"?><!DOCTYPE svg PUBLIC "-//W3C//DTD SVG 1.1//EN" "http://www.w3.org/Graphics/SVG/1.1/DTD/svg11.dtd"><svg t="1573720929635" class="icon" viewBox="0 0 1024 1024" version="1.1" xmlns="http://www.w3.org/2000/svg" p-id="2259" xmlns:xlink="http://www.w3.org/1999/xlink" width="200" height="200"><defs><style type="text/css"></style></defs><path d="M831.02 900.23H192.98c-16.48 0-29.84-13.36-29.84-29.84s13.36-29.84 29.84-29.84h638.05c16.48 0 29.84 13.36 29.84 29.84s-13.36 29.84-29.85 29.84zM830.96 781.5h-636.6c-16.48 0-29.84-13.36-29.84-29.84V646.14c0-52.18 42.43-94.63 94.58-94.63h120.6c-1.62-31.43-12.35-81.8-22-92.95-31.94-41.09-49.35-88.7-51.38-138.95-0.17-54.98 22.38-106.98 61.88-143.77 38.87-36.22 91.38-55.03 144.52-51.67 52.71-3.41 104.95 15.2 143.77 51.05 39.42 36.4 62.21 87.94 62.53 141.4-1.89 51.77-19.31 99.61-50.38 139.62-10.39 12.15-21.2 62.36-22.99 93.79h120.58c52.15 0 94.58 42.45 94.58 94.62v107.02c-0.01 16.48-13.37 29.83-29.85 29.83zM224.2 721.82h576.91v-77.18c0-19.26-15.66-34.94-34.9-34.94H625.25c-9.72 0-18.84-4.74-24.43-12.7-8.29-11.81-13.43-25.73-14.9-40.24-0.13-1.27-0.17-2.55-0.14-3.85 0.54-18.83 8.77-101.96 36.64-134.42 22.44-28.95 35.52-64.9 36.93-102.82-0.24-35.71-16.04-71.4-43.35-96.62-27.24-25.15-63.97-37.96-101.05-35.23-1.48 0.12-2.95 0.11-4.43 0.01-37.21-2.87-74.35 10.24-101.64 35.66-27.37 25.51-43 61.53-42.9 98.83 1.5 36.64 14.59 72.43 37.84 102.41 27.31 31.46 35.26 114.92 35.71 133.83 0.03 1.09-0.01 2.19-0.1 3.27-1.25 14.47-6.42 28.54-14.96 40.68a29.876 29.876 0 0 1-24.41 12.67H259.11c-19.24 0-34.9 15.68-34.9 34.95v75.69z" p-id="2260" fill=""></path></svg>
