<?xml version="1.0" standalone="no"?><!DOCTYPE svg PUBLIC "-//W3C//DTD SVG 1.1//EN" "http://www.w3.org/Graphics/SVG/1.1/DTD/svg11.dtd"><svg class="icon" width="200px" height="200.00px" viewBox="0 0 1024 1024" version="1.1" xmlns="http://www.w3.org/2000/svg"><path fill="" d="M302.933333 234.666667l482.133334 482.133333c17.066667 17.066667 17.066667 51.2 0 68.266667-17.066667 17.066667-51.2 17.066667-68.266667 0L234.666667 302.933333c-17.066667-17.066667-17.066667-46.933333 0-68.266666 21.333333-17.066667 51.2-17.066667 68.266666 0z"  /><path fill="#ffffff" d="M789.333333 234.666667c17.066667 17.066667 17.066667 51.2 0 68.266666L307.2 789.333333c-17.066667 17.066667-51.2 17.066667-68.266667 0-17.066667-17.066667-17.066667-51.2 0-68.266666L716.8 234.666667c21.333333-17.066667 51.2-17.066667 72.533333 0z"  /></svg>
