<svg id="图层_1" data-name="图层 1" xmlns="http://www.w3.org/2000/svg" viewBox="0 0 201 200">
  <title>主页</title>
  <g>
    <path d="M1,100,86.18,29.33c1.28-1.06,2.54-2.16,3.87-3.16,8.15-6.15,14-6.27,22.09.15,8.73,6.94,17.2,14.21,25.79,21.33.62.52,1.28,1,2.81,2.16,0-7.36,0-13.9,0-20.44,0-7.08.33-7.35,7.35-7.36,6,0,12,.3,18-.09,5-.33,6.36,1.85,6.3,6.41-.18,13.66,0,27.33-.21,41a13.52,13.52,0,0,0,5.71,12C185.73,87.33,193.31,93.74,201,100v4c-2.3,2.54-4.79,4.92-6.84,7.64-2.95,3.91-5.58,4.17-9.45.91-21.25-17.91-42.68-35.62-64-53.39C115,54.48,109.29,49.93,103.84,45c-2.22-2-3.46-1.9-5.72,0Q57.76,78.89,17.22,112.52c-4.53,3.77-5.28,3.61-9.3-.89C5.63,109.07,3.89,106,1,104Z"/>
    <path d="M29.77,144c0-9.16.08-18.33,0-27.49a7.94,7.94,0,0,1,3.2-6.83Q65.38,83.12,97.66,56.33c2.5-2.08,4-2.23,6.59-.07q32.08,26.65,64.43,53a9.48,9.48,0,0,1,3.74,8.15c-.13,17.32,0,34.65-.1,52,0,8.86-2,11-10.78,11.11-13.66.14-27.32-.08-41,.12-3.31,0-3.78-1.16-3.75-4,.14-13.16,0-26.32.14-39.48,0-3.25-.8-4.24-4.11-4.14q-12,.37-24,0c-3.16-.09-3.86.89-3.82,3.92.17,13-.05,26,.16,39,.06,3.56-.59,4.88-4.55,4.79-13.15-.28-26.32-.06-39.48-.12-9.38,0-11.42-2.14-11.46-11.48,0-8.33,0-16.66,0-25Z"/>
  </g>
</svg>
