<?xml version="1.0" standalone="no"?><!DOCTYPE svg PUBLIC "-//W3C//DTD SVG 1.1//EN" "http://www.w3.org/Graphics/SVG/1.1/DTD/svg11.dtd"><svg class="icon" width="16px" height="16.00px" viewBox="0 0 1024 1024" version="1.1" xmlns="http://www.w3.org/2000/svg"><path fill="" d="M864 928h-704a32 32 0 0 1 0-64h704a32 32 0 0 1 0 64zM352 672h-192a32 32 0 0 1 0-64h192a32 32 0 0 1 0 64zM864 672h-192a32 32 0 0 1 0-64h192a32 32 0 0 1 0 64z"  /><path fill="" d="M512 928a32 32 0 0 1-32-32V192a32 32 0 0 1 64 0v704a32 32 0 0 1-32 32z"  /><path fill="" d="M704 352a30.08 30.08 0 0 1-22.4-9.6L512 173.44 342.4 342.4a31.36 31.36 0 0 1-44.8-44.8l192-192a30.72 30.72 0 0 1 44.8 0l192 192a30.72 30.72 0 0 1 0 44.8 30.08 30.08 0 0 1-22.4 9.6z"  /></svg>
