<?xml version="1.0" standalone="no"?><!DOCTYPE svg PUBLIC "-//W3C//DTD SVG 1.1//EN" "http://www.w3.org/Graphics/SVG/1.1/DTD/svg11.dtd"><svg class="icon" width="16px" height="16.00px" viewBox="0 0 1024 1024" version="1.1" xmlns="http://www.w3.org/2000/svg"><path fill="" d="M864 96h-704a32 32 0 0 0 0 64h704a32 32 0 0 0 0-64zM352 352h-192a32 32 0 0 0 0 64h192a32 32 0 0 0 0-64zM864 352h-192a32 32 0 0 0 0 64h192a32 32 0 0 0 0-64z"  /><path fill="" d="M512 96a32 32 0 0 0-32 32v704a32 32 0 0 0 64 0V128a32 32 0 0 0-32-32z"  /><path fill="" d="M704 672a30.08 30.08 0 0 0-22.4 9.6L512 850.56l-169.6-168.96a31.36 31.36 0 0 0-44.8 44.8l192 192a30.72 30.72 0 0 0 44.8 0l192-192a30.72 30.72 0 0 0 0-44.8 30.08 30.08 0 0 0-22.4-9.6z"  /></svg>
