<?xml version="1.0" standalone="no"?><!DOCTYPE svg PUBLIC "-//W3C//DTD SVG 1.1//EN" "http://www.w3.org/Graphics/SVG/1.1/DTD/svg11.dtd"><svg class="icon" width="16px" height="16.00px" viewBox="0 0 1024 1024" version="1.1" xmlns="http://www.w3.org/2000/svg"><path fill="" d="M544 736a32 32 0 0 1-64 0V288a32 32 0 0 1 64 0zM800 832v-160a32 32 0 0 1 64 0v192a32 32 0 0 1-32 32H192a32 32 0 0 1-32-32v-192a32 32 0 0 1 64 0v160zM496 271.36l-152.32 166.4a32 32 0 1 1-47.36-43.52l176-192a32 32 0 0 1 47.36 0l176 192a32 32 0 0 1-47.36 43.52z" /></svg>
