<?xml version="1.0" standalone="no"?><!DOCTYPE svg PUBLIC "-//W3C//DTD SVG 1.1//EN" "http://www.w3.org/Graphics/SVG/1.1/DTD/svg11.dtd"><svg class="icon" width="200px" height="200.00px" viewBox="0 0 1024 1024" version="1.1" xmlns="http://www.w3.org/2000/svg"><path fill="" d="M820.766018 22.186035v131.736915h-469.312759l-28.81745 282.685463h4.117951c30.188537-31.561969 64.495025-53.518122 104.291724-67.240717 35.677575-15.094855 76.846534-21.956152 120.757666-21.956152 91.941389 0 167.415663 30.18971 225.050563 90.569129s87.82461 142.714991 87.82461 248.378975c0 101.547205-38.423267 183.881604-112.524109 248.378975-69.985236 57.6349-153.693067 86.45235-251.123494 86.45235-87.82461 0-163.297711-24.700672-226.422822-72.729755-69.985236-52.145862-108.408503-124.875617-115.268628-215.443573h146.830597c5.489038 54.890381 27.445191 97.429254 64.496198 124.875617 32.934229 24.700672 76.846534 37.051007 131.735742 37.051007 60.379419 0 111.154195-19.211633 152.320808-56.262641 41.167786-38.423267 61.751679-87.82461 61.751679-150.948548 0-68.612976-17.839374-122.131098-53.518122-160.554365-35.679921-38.423267-85.080091-57.6349-150.948548-57.6349-43.912305 0-80.962139 6.861298-113.896368 23.328412-35.678748 16.467114-61.751679 42.540045-80.963313 78.21762h-139.970472l53.518122-548.902639h590.070425z" /></svg>
