<?xml version="1.0" standalone="no"?><!DOCTYPE svg PUBLIC "-//W3C//DTD SVG 1.1//EN" "http://www.w3.org/Graphics/SVG/1.1/DTD/svg11.dtd"><svg class="icon" width="200px" height="200.00px" viewBox="0 0 1024 1024" version="1.1" xmlns="http://www.w3.org/2000/svg"><path fill="" d="M848.208863 269.192751h-145.45951c-20.58272-96.056994-79.58988-142.714991-178.393739-142.714991-68.612976 0-122.131098 32.934229-161.926625 100.174945-39.796699 63.123938-59.00716 141.342732-59.00716 237.400899 0 4.116779 0 9.605817 1.37226 17.839374h5.489038c27.445191-43.912305 61.751679-75.474274 104.291724-96.058167 38.423267-20.583893 83.706658-30.18971 135.853694-30.18971 96.058167 0 172.904701 30.18971 230.538428 90.569129 56.263814 61.751679 85.081264 141.341559 85.081264 237.399726 0 97.429254-32.934229 178.393739-97.430427 241.517677-65.868457 63.122766-148.202856 96.056994-244.262196 96.056994-120.757666 0-211.327968-43.911132-274.451906-131.735742-60.378246-83.707831-90.567956-200.349891-90.567956-349.92618 0-159.182105 31.560796-288.174501 97.429253-386.976014 65.867285-100.174946 156.437586-149.576289 268.961695-149.576289 189.375334 0 297.782664 87.82461 322.482163 266.218349z m-473.428365 264.844916c-35.678748 38.42444-53.519295 89.196869-53.519295 153.693067 0 63.123938 17.840547 113.897541 54.891554 152.320808 35.678748 38.423267 83.706658 57.6349 142.714991 57.6349 60.379419 0 108.408503-20.583893 144.087251-60.378246 37.051007-41.168959 56.263814-91.942561 56.263814-153.693067 0-63.123938-17.840547-113.897541-53.519295-149.576289-35.678748-38.422094-85.078918-57.633727-145.45951-57.633727-61.751679-0.001173-109.780762 19.210461-145.45951 57.632554z" /></svg>
