<?xml version="1.0" standalone="no"?><!DOCTYPE svg PUBLIC "-//W3C//DTD SVG 1.1//EN" "http://www.w3.org/Graphics/SVG/1.1/DTD/svg11.dtd"><svg class="icon" width="200px" height="200.00px" viewBox="0 0 1024 1024" version="1.1" xmlns="http://www.w3.org/2000/svg"><path fill="" d="M744.233814 83.938887c59.00716 54.890381 89.196869 124.875617 89.196869 211.327968 0 85.080091-32.934229 161.926625-96.056994 231.910687-38.42444 39.794353-105.663984 91.940216-203.09441 157.808673-105.663984 69.985236-168.786749 131.735742-189.371816 185.253864h489.89548v131.736915h-675.150516c0-97.430427 31.561969-182.509345 97.430427-256.612532 35.678748-42.540045 109.780762-101.546032 220.932611-178.393739 65.868457-46.655651 112.524109-83.706658 139.970472-112.524109 43.911132-49.401343 67.240717-102.919465 67.240717-160.554365 0-54.890381-15.094855-96.058167-45.284565-123.503357s-75.474274-41.167786-133.109174-41.167786c-61.750506 0-108.40733 20.583893-139.969299 63.123938-32.934229 41.167786-49.402516 100.174946-52.147035 179.765999h-149.575116c1.37226-109.780762 32.934229-197.604199 94.685908-263.47383 63.122766-71.357496 148.202856-105.663984 252.49458-105.663984 93.314821 0.001173 171.533614 26.074104 231.911861 80.965658z" /></svg>
