<?xml version="1.0" standalone="no"?><!DOCTYPE svg PUBLIC "-//W3C//DTD SVG 1.1//EN" "http://www.w3.org/Graphics/SVG/1.1/DTD/svg11.dtd"><svg class="icon" width="200px" height="200.00px" viewBox="0 0 1024 1024" version="1.1" xmlns="http://www.w3.org/2000/svg"><path fill="" d="M774.105675 133.34023c60.379419 83.707831 91.942561 200.349891 91.942562 351.29844 0 159.183278-32.934229 288.174501-97.430427 386.977187-67.240717 98.801513-156.436414 149.575116-268.962868 149.575116-190.742902 0-297.779145-89.196869-322.479816-266.217176h145.45951c19.212806 94.684735 79.591053 142.714991 178.393739 142.714991 67.240717 0 120.760011-34.306488 161.927797-100.174945 38.423267-63.122766 59.008333-142.714991 59.008333-237.399726 0-5.489038-1.37226-10.978076-1.37226-17.839374h-5.489038c-27.445191 42.540045-63.123938 74.102015-104.291724 96.056994-39.797872 19.211633-85.081264 30.18971-135.853694 30.18971-96.058167 0-174.27696-31.561969-231.91186-93.313648-56.262641-60.380592-83.706658-138.598213-83.706659-234.65638 0-98.802686 31.560796-178.393739 97.429254-241.517677 65.867285-64.496198 146.83177-96.058167 244.261023-96.058167 119.384233 0 209.952189 42.540045 273.076128 130.364655z m-413.048945 53.518122c-37.05218 39.795526-54.890381 90.569129-54.890382 153.693067s17.838201 112.525281 54.890382 149.576289c34.306488 38.423267 82.335572 57.6349 144.088423 57.6349 60.378246 0 109.780762-19.211633 145.45951-57.6349 35.678748-38.423267 53.516949-90.569129 53.516949-153.693068 0-64.496198-19.210461-115.269801-54.889208-152.320807-37.051007-38.423267-85.081264-57.6349-142.714991-57.634901-60.380592 0-109.781935 19.211633-145.460683 60.37942z" /></svg>
