<?xml version="1.0" standalone="no"?><!DOCTYPE svg PUBLIC "-//W3C//DTD SVG 1.1//EN" "http://www.w3.org/Graphics/SVG/1.1/DTD/svg11.dtd"><svg class="icon" width="200px" height="200.00px" viewBox="0 0 1024 1024" version="1.1" xmlns="http://www.w3.org/2000/svg"><path fill="" d="M779.595886 148.435085c57.6349 90.569129 86.45235 211.327968 86.452351 363.647602 0 150.949721-28.81745 273.080819-86.452351 363.648776-63.122766 96.056994-152.320808 145.45951-267.589435 145.45951s-204.46667-49.401343-267.590609-145.45951c-57.633727-90.569129-86.451178-211.327968-86.451177-363.648776 0-153.693067 28.81745-274.451906 86.451177-363.647602 63.123938-97.430427 152.321981-145.45951 267.590609-145.45951s204.46667 48.030256 267.589435 145.45951z m-437.749617 113.897541c-24.700672 60.379419-35.678748 144.087251-35.678748 249.750061 0 104.291724 10.978076 187.999556 35.678748 249.751235 32.934229 87.82461 89.198042 133.109174 170.160182 133.109174 79.58988 0 137.225953-45.284564 170.160181-133.109174 23.328412-61.750506 35.678748-145.45951 35.678748-249.751235 0-105.663984-12.350336-189.370642-35.678748-249.750061-32.934229-89.196869-90.570302-133.109174-170.160181-133.109175-80.962139 0.001173-137.225953 43.912305-170.160182 133.109175z" /></svg>
