<?xml version="1.0" standalone="no"?><!DOCTYPE svg PUBLIC "-//W3C//DTD SVG 1.1//EN" "http://www.w3.org/Graphics/SVG/1.1/DTD/svg11.dtd"><svg class="icon" width="200px" height="200.00px" viewBox="0 0 1024 1024" version="1.1" xmlns="http://www.w3.org/2000/svg"><path fill="" d="M744.234987 74.33307c57.6349 48.029084 87.82461 113.897541 87.82461 197.605373 0 107.036243-54.890381 179.765998-161.926625 215.443573 57.6349 17.839374 101.547205 45.284564 131.735742 80.963312 32.934229 37.051007 49.401343 85.080091 49.401343 142.714991 0 90.570302-31.561969 164.671144-93.313648 222.306044-65.868457 57.6349-152.320808 87.82461-256.612532 87.82461-100.174946 0-181.137085-26.071758-241.517677-76.846534-68.612976-57.636073-107.036243-141.342732-115.268628-251.123494h150.947375c2.744519 65.868457 23.329585 116.64206 64.496198 152.320808 35.678748 32.934229 82.335572 49.401343 139.970472 49.401343 63.123938 0 113.897541-19.211633 152.320808-54.890381 32.934229-32.934229 50.773603-72.729755 50.773603-122.131098 0-57.6349-17.839374-100.174946-53.518122-127.620136-32.934229-27.445191-82.335572-41.168959-146.83177-41.168959h-71.357495v-112.524109h69.985236c60.379419 0 105.663984-13.722595 135.853693-39.795526s46.656824-64.496198 46.656824-113.897541-15.094855-86.45235-42.541218-112.525282c-30.18971-27.445191-75.474274-39.795526-133.108001-39.795526-59.008333 0-105.665157 15.094855-138.599386 45.284565-32.933056 30.18971-53.518122 75.474274-59.00716 135.853693H163.770378c8.233557-97.430427 43.911132-172.903528 108.408503-227.793909 60.378246-54.890381 138.598213-80.963312 234.655207-80.963312 98.802686 0 177.021479 23.328412 237.400899 71.357495z" /></svg>
