<?xml version="1.0" standalone="no"?><!DOCTYPE svg PUBLIC "-//W3C//DTD SVG 1.1//EN" "http://www.w3.org/Graphics/SVG/1.1/DTD/svg11.dtd"><svg class="icon" width="200px" height="200.00px" viewBox="0 0 1024 1024" version="1.1" xmlns="http://www.w3.org/2000/svg"><path fill="" d="M760.38308 85.312319c54.890381 49.401343 82.335572 111.153022 82.335572 183.881605 0 50.773603-10.978076 93.313648-32.934229 127.620136-24.700672 37.051007-61.751679 64.496198-111.153022 83.707831v4.116779c46.655651 10.978076 87.82461 38.423267 120.757666 82.335571 38.42444 46.656824 57.636073 100.174946 57.636073 161.926625 0 86.45235-31.561969 156.437586-94.685908 211.327968-64.495025 53.519295-155.065327 80.963312-270.333954 80.963312-116.640887 0-207.211189-27.444018-270.335127-80.963312-63.122766-54.890381-94.684735-124.875617-94.684735-211.327968 0-61.750506 19.211633-115.268628 57.6349-161.926625 32.934229-43.912305 72.729755-71.357496 120.760012-82.335571v-4.116779c-49.402516-19.211633-86.453523-46.656824-111.154195-83.707831-21.956152-34.306488-32.934229-76.846534-32.934229-127.620136 0-72.729755 27.444018-134.481434 82.335572-183.881605 60.378246-54.890381 144.087251-82.335572 248.378975-82.335571s186.626123 27.444018 248.376629 82.335571z m-410.305599 513.223892c-37.051007 32.934229-54.889208 75.474274-54.889209 130.363482 0 50.773603 17.838201 91.942561 56.262641 123.503358 37.051007 31.561969 90.569129 48.029084 160.554365 48.029083 68.612976 0 123.503358-16.467114 163.297711-48.029083 35.678748-31.560796 53.518122-72.729755 53.518122-123.503358 0-54.890381-17.839374-97.429254-53.518122-128.991223-38.423267-35.678748-91.941389-53.518122-163.297711-53.518121s-126.247877 16.467114-161.927797 52.145862z m17.840546-428.144974c-31.561969 27.445191-46.656824 63.123938-46.656824 104.291725 0 46.656824 12.350336 83.707831 38.42444 111.153022 31.560796 32.934229 82.334399 49.401343 152.319635 49.401343 68.612976 0 119.386579-16.467114 152.320808-49.401343 24.700672-27.445191 38.423267-64.496198 38.423267-111.153022 0-41.167786-16.467114-76.846534-46.656824-104.291725-35.678748-32.934229-83.707831-48.029084-144.087251-48.029083-60.380592 0-108.408503 15.096028-144.087251 48.029083z" /></svg>
