<?xml version="1.0" standalone="no"?><!DOCTYPE svg PUBLIC "-//W3C//DTD SVG 1.1//EN" "http://www.w3.org/Graphics/SVG/1.1/DTD/svg11.dtd"><svg t="1569469795815" class="icon" viewBox="0 0 1024 1024" version="1.1" xmlns="http://www.w3.org/2000/svg" p-id="787" xmlns:xlink="http://www.w3.org/1999/xlink" width="200" height="200"><defs><style type="text/css"></style></defs><path d="M872.181356 234.260867h-68.845026v-87.332299c0-46.260163-37.630857-83.892044-83.892044-83.892044H299.987137c-46.260163 0-83.892044 37.630857-83.892044 83.892044v87.332299h-68.845025c-45.332523 0-82.226183 36.89366-82.226183 82.252803v324.916698c0 45.332523 36.89366 82.226183 82.226183 82.226182h68.845025v150.251076c0 46.260163 37.630857 83.892044 83.892044 83.892044h419.458173c46.260163 0 83.892044-37.630857 83.892044-83.892044V723.65655h68.845026c45.332523 0 82.226183-36.89366 82.226182-82.226182V316.514694c-0.001024-45.360168-36.894684-82.253828-82.227206-82.253827z m-600.158575-87.332299c0-15.428928 12.534404-27.964356 27.964356-27.964356h419.458173c15.428928 0 27.964356 12.534404 27.964356 27.964356v87.332299H272.022781v-87.332299z m475.385861 726.979058c0 15.428928-12.534404 27.963332-27.964356 27.963332H299.987137c-15.428928 0-27.964356-12.534404-27.964356-27.963332V588.698226H747.408642v285.2094z m151.071208-232.477258c0 14.501288-11.797207 26.298495-26.298494 26.298494h-68.845026V560.73387c0-15.456573-12.507783-27.963332-27.964356-27.963332H244.059449c-15.456573 0-27.964356 12.506759-27.964356 27.963332v106.994992h-68.845025c-14.501288 0-26.298495-11.797207-26.298495-26.298494V316.514694c0-14.527909 11.797207-26.325116 26.298495-26.325115h724.930264c14.500264 0 26.298495 11.797207 26.298494 26.325115v324.915674z" p-id="788" fill=""></path><path d="M792.050042 397.757947m-51.887436 0a51.887437 51.887437 0 1 0 103.774873 0 51.887437 51.887437 0 1 0-103.774873 0Z" p-id="789" fill=""></path></svg>
