<svg id="图层_1" data-name="图层 1" xmlns="http://www.w3.org/2000/svg" viewBox="0 0 200 200">
  <title>生产</title>
  <g>
    <path d="M171.93,111.63c-14.28-8.19-28.14-8.86-42.43-2.87-1.59.67-3.61.39-5.43.39q-38.74,0-77.47,0c-4.33,0-7.43,1.58-8.78,5.83-1.18,3.72.4,6.61,3.38,8.6,2.12,1.41,4.76,1.28,7.28,1.28q28.24,0,56.48,0h5.59c-2.74,5.67-5.22,10.87-6.21,16.6-.45,2.59-2.63,1.52-4.06,1.52-17.66.07-35.32,0-53,.06a21.23,21.23,0,0,0-5,.31,6.34,6.34,0,0,0-.06,12.33,20.76,20.76,0,0,0,5,.33c17.66,0,35.32.08,53-.05,3,0,4.27.64,5,3.83,1.79,8.45,6.49,15.43,13.05,22.24h-92c-7.69,0-10.3-2.49-10.3-10q0-65.48,0-131c0-6.95,2.67-9.64,9.56-9.87.33,0,.67,0,1,0,3.32.07,7.25-.95,9.79.49,2.7,1.54.69,5.8,1.23,8.85,1.47,8.37,7.87,14,16.27,13.92s14.72-5.7,15.8-14.3a12.7,12.7,0,0,0,.13-4c-1-5.17,2.06-5.26,5.73-5,1.63.11,2.48.58,2.4,2.33-.07,1.5,0,3,0,4.5.22,9.88,6.8,16.54,16.24,16.46s15.64-6.7,16.08-16.67c.1-2.23-2.62-6,2.88-6.7,5.7-.69,5.1,2.56,5.08,6.2,0,8.13,3.76,13.73,10.71,16.28a16.25,16.25,0,0,0,18.06-4.92,15.46,15.46,0,0,0,3.36-12.16c-.55-4.61,1.25-5.88,5.53-5.35,2.62.33,5.33,0,8,.08,4.66.21,8.09,3.19,8.12,7.77C172,62.91,171.93,86.85,171.93,111.63ZM94,91h46.46c6.15,0,9.64-2.68,9.8-7.46.17-5-3.25-8-9.76-8q-47.21-.09-94.42,0c-2.63,0-4.94.63-6.67,2.72a7.2,7.2,0,0,0-1.33,7.9c1.5,3.41,4.27,4.89,8,4.89Q70,91,94,91Z"/>
    <path d="M109.9,149a38,38,0,1,1,76-.08c-.07,20.62-17,37.94-37.19,38.06A38.3,38.3,0,0,1,109.9,149Zm52.94,5.17c2.5,0,5-.11,7.49,0,2.93.16,4.33-1.06,4.38-4,.05-3.12-1.27-4.52-4.51-4.39-4.49.17-9-.19-13.48.12-3.58.24-5.17-.57-4.75-4.54.38-3.62,0-7.32.1-11,.07-2.79-.78-4.43-3.92-4.43s-4.53,1.41-4.46,4.54c.09,4-.12,8,.07,12,.12,2.64-.81,3.49-3.43,3.39-4.65-.18-9.32,0-14-.07-2.94,0-5.27.32-5.37,4.15s2.09,4.3,5.12,4.23c4.66-.11,9.33.14,14-.09,2.94-.15,3.74,1,3.61,3.72-.19,4,0,8-.06,12,0,2.86,1.09,4.28,4.15,4.23,2.88,0,4.41-1.07,4.25-4.11-.08-1.66,0-3.33,0-5C152,154.16,152,154.16,162.83,154.16Z"/>
    <path d="M45.56,31.09a75.38,75.38,0,0,1,.06-8.47c.47-4.12,2.84-6.7,7.17-6.9s7.68,1.79,8.39,6.14a60.17,60.17,0,0,1,0,18.87c-.66,4.24-4,6.05-8,6a7.07,7.07,0,0,1-7.33-6.22,75.65,75.65,0,0,1-.57-9.44Z" style=""/>
    <path d="M101.94,31.31c0,2.66.18,5.34,0,8a8.07,8.07,0,0,1-8.41,7.53A7.75,7.75,0,0,1,86,39.06c-.18-5.32-.18-10.66,0-16a7.44,7.44,0,0,1,7.7-7.46,8.05,8.05,0,0,1,8.2,7.2c.28,2.8.05,5.65.05,8.48Z" style=""/>
    <path d="M142.2,31.5c0,2.5.13,5,0,7.49-.29,4.74-3.37,7.66-8,7.82a7.79,7.79,0,0,1-7.85-6.94,118.08,118.08,0,0,1,0-17.45c.36-4.29,3.37-6.74,7.87-6.77A7.86,7.86,0,0,1,142.13,23c.21,2.81,0,5.66,0,8.48Z" style=""/>
  </g>
</svg>
