<?xml version="1.0" standalone="no"?><!DOCTYPE svg PUBLIC "-//W3C//DTD SVG 1.1//EN" "http://www.w3.org/Graphics/SVG/1.1/DTD/svg11.dtd"><svg t="1568788376871" class="icon" viewBox="0 0 1024 1024" version="1.1" xmlns="http://www.w3.org/2000/svg" p-id="2977" xmlns:xlink="http://www.w3.org/1999/xlink" width="200" height="200"><defs><style type="text/css"></style></defs><path d="M246.4 342.4l256 118.4 256-118.4-256-118.4-256 118.4z m-92.8-28.8L489.6 160c9.6-3.2 19.2-3.2 25.6 0l336 153.6c16 6.4 22.4 25.6 16 41.6-3.2 6.4-9.6 12.8-16 16l-336 153.6c-9.6 3.2-19.2 3.2-25.6 0L153.6 371.2c-16-6.4-22.4-25.6-16-41.6 3.2-6.4 9.6-12.8 16-16z" fill="" p-id="2978"></path><path d="M508.8 627.2L841.6 480c16-6.4 35.2 0 41.6 16 6.4 16 0 35.2-16 41.6l-361.6 160-361.6-160c-16-6.4-22.4-25.6-16-41.6 9.6-16 28.8-25.6 44.8-16l336 147.2z" fill="" p-id="2979"></path><path d="M841.6 640c16-6.4 35.2 0 41.6 16 6.4 16 0 35.2-16 41.6l-361.6 160-361.6-160c-16-6.4-22.4-25.6-16-41.6 9.6-16 28.8-25.6 44.8-16l336 150.4L841.6 640z" fill="" p-id="2980"></path></svg>
