<?xml version="1.0" standalone="no"?><!DOCTYPE svg PUBLIC "-//W3C//DTD SVG 1.1//EN" "http://www.w3.org/Graphics/SVG/1.1/DTD/svg11.dtd"><svg t="1569210475363" class="icon" viewBox="0 0 1024 1024" version="1.1" xmlns="http://www.w3.org/2000/svg" p-id="531" xmlns:xlink="http://www.w3.org/1999/xlink" width="200" height="200"><defs><style type="text/css"></style></defs><path d="M1022.073626 809.140491l0-687.493943c0-51.394531-36.133965-88.708368-88.706321-88.708368L90.632695 32.93818c-63.258743 0-88.708368 27.600615-88.708368 88.708368l0 687.493943c0 46.209438 50.307779 66.530252 88.708368 66.530252l114.107851-0.179079c14.729469 0 18.835997-10.091846 18.835997-20.240997 0-19.490913-8.92937-23.936155-22.059412-23.936155 0 0-87.330998 0-110.88546 0-23.554462 0-44.354184-18.687618-44.354184-44.354184 0-25.663496 0-288.302195 0-288.302195l0-377.013633c0-24.488741 10.005888-44.353161 44.354184-44.353161l842.73461 0c29.897937 0 44.352137 19.86442 44.352137 44.353161l0 665.315828c0 25.604144-17.540492 44.354184-44.352137 44.354184 0 0-95.951329 0-110.886483 0-14.937201 0-21.747303 6.055926-21.747303 25.543769 0 10.149151 11.991102 18.809391 21.747303 18.809391l110.886483 0C979.450876 875.670743 1022.073626 856.888981 1022.073626 809.140491L1022.073626 809.140491z" p-id="532" fill=""></path><path d="M511.999488 986.557226l-284.48424-284.48424c-8.924253-10.193153-8.167007-20.665669 1.074472-29.907147 9.244548-9.244548 24.721031-9.546424 36.69883 1.51961l224.534869 224.161363c0 0 0-609.153714 0-620.961644s6.563486-26.955932 32.621978-26.955932c26.055422 0 33.909297 12.625552 33.909297 26.955932s0 620.961644 0 620.961644l221.773989-221.773989c12.973476-12.269441 26.317389-17.358343 39.780005-3.898797 13.462616 13.465686 3.914146 24.965601-0.87595 31.524994l-282.854113 282.857183C527.739984 992.749252 519.299755 992.374722 511.999488 986.557226L511.999488 986.557226z" p-id="533" fill=""></path></svg>
