<?xml version="1.0" standalone="no"?><!DOCTYPE svg PUBLIC "-//W3C//DTD SVG 1.1//EN" "http://www.w3.org/Graphics/SVG/1.1/DTD/svg11.dtd"><svg t="1552989859132" class="icon" style="" viewBox="0 0 1024 1024" version="1.1" xmlns="http://www.w3.org/2000/svg" p-id="1181" xmlns:xlink="http://www.w3.org/1999/xlink" width="200" height="200"><defs><style type="text/css"></style></defs><path d="M895.606283 319.879378l-539.098171 0c-28.973892 0-54.327326-19.48375-61.820997-47.458895l-38.467103-144.375202c-6.682189-30.597879-31.286564-63.944358-65.942875-63.944358L64.385914 64.100924l0 63.944358 76.933183 0c44.962028 0 56.951083 24.978904 66.941622 65.942875l109.217471 449.614138c9.366322 35.969213 37.280068 59.948347 66.629513 59.948347l447.614597 0 127.889739-318.41298C959.613062 362.53078 959.613062 319.879378 895.606283 319.879378zM788.446681 639.666658l-401.588331 0.37453-67.817572-261.836427c11.927657 3.684926 24.477484 5.619998 37.467333 5.619998l534.726607 0L788.446681 639.666658z" p-id="1182" fill=""></path><path d="M416.080905 767.494998c-52.953026 0-95.916537 42.962487-95.916537 95.916537s42.963511 95.916537 95.916537 95.916537c52.955072 0 95.918583-42.962487 95.918583-95.916537S469.035978 767.494998 416.080905 767.494998zM416.081928 895.302873c-17.550725 0-31.789007-14.239306-31.789007-31.789007s14.239306-31.789007 31.789007-31.789007 31.79003 14.239306 31.79003 31.789007S433.632653 895.302873 416.081928 895.302873z" p-id="1183" fill=""></path><path d="M735.352439 767.494998c-52.954049 0-95.916537 42.962487-95.916537 95.916537s42.962487 95.916537 95.916537 95.916537 95.918583-42.962487 95.918583-95.916537S788.307512 767.494998 735.352439 767.494998zM735.352439 895.302873c-17.549701 0-31.787984-14.239306-31.787984-31.789007s14.238282-31.789007 31.787984-31.789007c17.550725 0 31.79003 14.239306 31.79003 31.789007S752.904187 895.302873 735.352439 895.302873z" p-id="1184" fill=""></path></svg>
