<?xml version="1.0" standalone="no"?><!DOCTYPE svg PUBLIC "-//W3C//DTD SVG 1.1//EN" "http://www.w3.org/Graphics/SVG/1.1/DTD/svg11.dtd"><svg t="1552990269766" class="icon" style="" viewBox="0 0 1024 1024" version="1.1" xmlns="http://www.w3.org/2000/svg" p-id="5777" xmlns:xlink="http://www.w3.org/1999/xlink" width="200" height="200"><defs><style type="text/css"></style></defs><path d="M948.4 226.6L513.2 94.8 78 227.1c-9.5 2.9-14.9 12.9-12 22.4 2.4 7.8 9.5 12.8 17.2 12.8 1.7 0 3.5-0.3 5.2-0.8l60.6-18.4v630.6c0 24.4 20.7 44.2 46.1 44.2h636.3c25.4 0 46.1-19.8 46.1-44.2v-631L938 261c9.5 2.9 19.5-2.5 22.4-12 2.9-9.5-2.5-19.5-12-22.4z m-106.9 647c0 4.5-4.7 8.3-10.2 8.3H195.1c-5.5 0-10.2-3.8-10.2-8.3V232.1l328.3-99.8 328.3 99.5v641.8z" fill="" p-id="5778"></path><path d="M402.6 318.4c-7.5-6.6-18.8-5.8-25.3 1.7s-5.7 18.8 1.7 25.3l116.3 101.4v17.3H391c-9.9 0-18 8-18 18s8 18 18 18h104.3V558H391c-9.9 0-18 8-18 18s8 18 18 18h104.3v83.1c0 9.9 8 18 18 18 9.9 0 18-8 18-18V594h104.3c9.9 0 18-8 18-18s-8-18-18-18H531.2v-57.9h104.3c9.9 0 18-8 18-18s-8-18-18-18H531.2v-19.8l116.1-98.8c7.6-6.4 8.5-17.8 2.1-25.3-6.5-7.6-17.8-8.5-25.3-2.1l-112.2 95.4-109.3-95.1z" fill="" p-id="5779"></path></svg>
