<?xml version="1.0" standalone="no"?><!DOCTYPE svg PUBLIC "-//W3C//DTD SVG 1.1//EN" "http://www.w3.org/Graphics/SVG/1.1/DTD/svg11.dtd"><svg t="1552990046928" class="icon" style="" viewBox="0 0 1024 1024" version="1.1" xmlns="http://www.w3.org/2000/svg" p-id="3243" xmlns:xlink="http://www.w3.org/1999/xlink" width="200" height="200"><defs><style type="text/css"></style></defs><path d="M960.19 959.56H64.21V799.82h341.04l-0.1-104.25c-17.02-6.6-33.63-14.87-49.55-24.66C267.11 616 214.32 521.85 214.32 419c0-163.58 133.79-296.65 298.24-296.65S810.8 255.42 810.8 419c0 102.93-52.84 197.06-141.35 251.77a300.076 300.076 0 0 1-49.59 24.7v104.34h340.32v159.75z m-857.25-38.74h818.51v-82.27H102.94v82.27z m341.04-121h137.15v-131.9l13.23-4.41a261.185 261.185 0 0 0 54.7-25.67c77.03-47.62 123-129.42 123-218.85 0-142.21-116.41-257.92-259.51-257.92S253.05 276.79 253.05 419c0 89.35 45.95 171.2 122.91 218.96 17.43 10.72 35.85 19.37 54.67 25.65l13.25 4.41 0.1 131.8z" fill="" p-id="3244"></path></svg>
