<svg id="图层_1" data-name="图层 1" xmlns="http://www.w3.org/2000/svg" viewBox="0 0 200 200">
  <title>质量</title>
  <g>
    <path d="M165.3,78.09c.2,35.35-28.62,64.77-64.34,64.58-37.7-.2-64.62-29.84-64.81-64.74-.2-35.16,29.38-64.46,64.69-64.39A64.71,64.71,0,0,1,165.3,78.09ZM100.61,34.57c-24.34.24-44,20.06-43.55,44C57.49,103,77.21,122.41,101.22,122s43.41-20.07,43.29-43.83A43.49,43.49,0,0,0,100.61,34.57Z"/>
    <path d="M123.8,148.93c17.9-5.44,30.71-15.56,39.41-30.77,1-1.75,1.71-1.85,3.12-.42,6.17,6.28,12.58,12.34,18.6,18.77,4.79,5.11,2.64,11.94-4.21,13.88a64.87,64.87,0,0,1-11.67,2.45c-3.47.31-4.39,2.16-4.81,5a108.62,108.62,0,0,1-1.9,10.78c-1.79,7.11-8.76,9.32-14.12,4.28C140.13,165.33,132.36,157.38,123.8,148.93Z"/>
    <path d="M77,149.38c-7.94,8-15.52,15.89-23.48,23.41-5.75,5.44-13,2.86-14.56-4.83a16.15,16.15,0,0,1-.65-3.42c.16-8.5-3.62-13.06-12.46-13A20.56,20.56,0,0,1,20,150.24C14.35,148.51,12,142,16,137.59c6.23-6.9,13-13.28,19.62-19.86,2.73-2.73,2.86.63,3.5,1.74,7.14,12.35,17.11,21.46,30.33,26.93C71.82,147.4,74.27,148.31,77,149.38Z"/>
    <path d="M134.4,77.24c1,18.11-13.58,33.6-32.54,34.69-17.63,1-33.94-14-34.81-32A33.48,33.48,0,0,1,98.4,44.69C117.92,43.6,133.36,57.57,134.4,77.24ZM117.48,92.45c-2.67-5.68-.27-10.18,4.88-14.58,4.14-3.54,1.56-10.25-4.14-10.56-6.2-.33-9.68-2.91-11.62-8.55a5.66,5.66,0,0,0-5.81-3.89c-2.81,0-4.92,1.22-5.81,3.83-1.92,5.6-5.33,8.28-11.59,8.62-6,.32-7.84,6.5-3.91,11a21.17,21.17,0,0,0,3.2,3.15c2.34,1.74,2.83,3.85,2,6.56a20.42,20.42,0,0,0-.88,4.89C83.52,98.41,88.47,102,93,99c5.46-3.57,9.91-3.27,15.27.09C112.6,101.84,117.56,98.34,117.48,92.45Z"/>
    <path d="M95.29,86.89c1.39-5-.77-7.59-2.94-10.57C96.6,76.13,99.08,74,100.5,70c2.17,3.36,4.5,6.06,9,6.21-2.69,2.88-4.34,5.67-3,10.32C102.63,84.39,99.4,84,95.29,86.89Z" style=""/>
  </g>
</svg>
