<?xml version="1.0" standalone="no"?><!DOCTYPE svg PUBLIC "-//W3C//DTD SVG 1.1//EN" "http://www.w3.org/Graphics/SVG/1.1/DTD/svg11.dtd"><svg t="1545360384054" class="icon" style="" viewBox="0 0 1024 1024" version="1.1" xmlns="http://www.w3.org/2000/svg" p-id="3163" xmlns:xlink="http://www.w3.org/1999/xlink" width="200" height="200"><defs><style type="text/css"></style></defs><path d="M416.586168 10.24C532.671402-11.484112 656.604112 6.986168 759.291215 66.320748c122.114393 68.234766 212.743178 188.913645 245.377196 324.808972 29.954393 127.665047 11.675514 267.005607-55.602243 380.124112-87.757757 152.642991-259.828037 255.234393-436.970467 251.310654-112.448598 2.296822-224.035888-38.184673-311.697944-107.759252C84.408224 824.654953 11.484112 681.869159 6.029159 535.159626c-5.550654-112.257196 27.65757-225.758505 92.447103-317.44 74.168224-106.610841 190.44486-182.980187 318.109906-207.479626m49.477383 96.083738c-161.83028 16.651963-303.754766 141.063178-344.810467 297.821309-41.438505 143.264299 5.742056 306.338692 114.936823 407.303177 91.777196 87.374953 226.811215 127.95215 351.222429 102.4 68.234766-12.728224 132.928598-43.543925 185.468412-88.810467 107.280748-89.767477 163.265794-237.434019 139.914766-375.626168-14.737944-96.753645-65.746542-187.573832-140.776075-250.449346-83.259813-71.201495-197.143925-106.228037-305.955888-92.638505z" p-id="3164" fill=""></path><path d="M680.816449 321.746542c28.136075-29.475888 82.302804-6.603364 84.599626 32.825421 3.445234 19.331589-9.282991 35.409346-22.106916 48.041869-95.413832 96.27514-190.827664 192.358879-286.050094 288.729719-11.962617 10.718505-23.925234 25.360748-41.534205 24.977944-28.423178 4.402243-46.797757-21.054206-64.885234-38.376074-27.370467-30.145794-59.334579-56.176449-84.503925-88.140561-27.274766-38.088972 20.288598-93.117009 62.109906-73.785421 31.868411 20.097196 54.358131 51.582804 81.537197 77.230654 91.10729-89.671776 179.726355-181.927477 270.833645-271.503551z" p-id="3165" fill=""></path></svg>
