<?xml version="1.0" standalone="no"?><!DOCTYPE svg PUBLIC "-//W3C//DTD SVG 1.1//EN" "http://www.w3.org/Graphics/SVG/1.1/DTD/svg11.dtd"><svg t="1553047048634" class="icon" style="" viewBox="0 0 1024 1024" version="1.1" xmlns="http://www.w3.org/2000/svg" p-id="2105" xmlns:xlink="http://www.w3.org/1999/xlink" width="200" height="200"><defs><style type="text/css"></style></defs><path d="M587.54 724.35h-185.5v-45.88h185.5c35.25 0 63.92-29.24 63.92-65.21 0-35.93-28.68-65.18-63.92-65.18h-185.5V502.2h185.5c60.55 0 109.81 49.83 109.81 111.06 0 61.27-49.26 111.09-109.81 111.09z" p-id="2106" fill=""></path><path d="M406.89 576.66l0.12-103.06-57.45 50.24z" p-id="2107" fill=""></path><path d="M836.52 826.48H187.48V348.55h649.04v477.93z m-587.86-61.17h526.69V409.72H248.66v355.59z" p-id="2108" fill=""></path><path d="M355.98 336.39l-48.81-36.86 77.01-102.01h255.64l76.98 102.01-48.81 36.86-58.64-77.7h-194.7z" p-id="2109" fill=""></path></svg>
