<?xml version="1.0" standalone="no"?><!DOCTYPE svg PUBLIC "-//W3C//DTD SVG 1.1//EN" "http://www.w3.org/Graphics/SVG/1.1/DTD/svg11.dtd"><svg t="1545366166489" class="icon" style="" viewBox="0 0 1024 1024" version="1.1" xmlns="http://www.w3.org/2000/svg" p-id="10826" xmlns:xlink="http://www.w3.org/1999/xlink" width="200" height="200"><defs><style type="text/css"></style></defs><path d="M370.260835 539.358091c0-16.807804-14.594393-29.974685-33.224706-29.974685l-62.506613 0c-18.630313 0-33.223682 13.166881-33.223682 29.974685l0 66.113767c0 16.808828 14.59337 29.974685 33.223682 29.974685l62.506613 0c18.630313 0 33.224706-13.165858 33.224706-29.974685L370.260835 539.358091zM329.328587 594.515319l-47.091528 0 0-44.198641 47.091528 0L329.328587 594.515319z" p-id="10827" fill=""></path><path d="M337.03613 690.24766l-62.506613 0c-18.630313 0-33.223682 13.165858-33.223682 29.974685l0 66.11479c0 16.808828 14.59337 29.974685 33.223682 29.974685l62.506613 0c18.630313 0 33.224706-13.165858 33.224706-29.974685l0-66.11479C370.260835 703.413518 355.666442 690.24766 337.03613 690.24766zM329.328587 775.379573l-47.091528 0 0-44.199665 47.091528 0L329.328587 775.379573z" p-id="10828" fill=""></path><path d="M440.305121 690.24766c-18.630313 0-33.223682 13.165858-33.223682 29.974685l0 66.11479c0 16.808828 14.59337 29.974685 33.223682 29.974685l62.506613 0c18.630313 0 33.224706-13.165858 33.224706-29.974685l0-66.11479c0-16.808828-14.594393-29.974685-33.224706-29.974685L440.305121 690.24766zM495.104191 775.379573l-47.091528 0 0-44.199665 47.091528 0L495.104191 775.379573z" p-id="10829" fill=""></path><path d="M186.9079 809.80564 186.9079 529.84953l-0.092098 0 0-20.466124-44.10859 0c-6.375198 0-12.458753-2.38328-17.887392-6.562463l0.441045-0.441045c-9.761318-9.761318-16.617469-21.153786-20.202111-32.251541-1.638313-6.211469-2.614547-12.880355-2.789533-19.804045 0.483001-7.618515 3.006474-14.375405 7.767917-19.408025l298.915927-253.999948 0.632403-0.537236 0.586354-0.587378c15.515369-15.514345 48.474015-8.769734 71.972195 14.728446l0.590448 0.590448 298.760384 253.638721 26.491351-31.203676L510.472204 160.967088c-18.434861-18.194384-41.275056-30.05655-64.408939-33.432437-24.904203-3.634784-48.240701 3.169179-64.187905 18.677385L82.806961 400.340921l-0.632403 0.537236-0.586354 0.587378c-12.038174 12.038174-18.998703 28.443819-20.113083 46.611597l-0.179079 0c0 0.978281 0.032746 1.950422 0.054235 2.924609-0.13303 4.996804 0.164752 10.112312 0.920976 15.298428 0.696872 4.776793 1.775436 9.538237 3.176342 14.254655 3.657296 13.894452 9.656941 26.710338 17.754363 37.57478 15.244192 20.454868 36.933167 32.187073 59.503209 32.187073l3.26844 0 0 259.488962c0 26.219151 7.780197 51.097772 21.905916 70.051449 15.244192 20.454868 36.933167 32.187073 59.503209 32.187073l328.588737 0 0-40.932248L227.384777 871.111914C205.444069 871.111914 186.9079 843.036485 186.9079 809.80564z" p-id="10830" fill=""></path><path d="M894.950855 625.158223l-13.408381 0 0-31.953759c0-0.210801-0.025583-0.414439-0.031722-0.623193-0.652869-30.022781-13.186324-58.253752-35.468816-79.732949-22.530133-21.717627-51.994188-33.679054-82.96455-33.679054s-60.435441 11.960403-82.96455 33.679054c-22.281469 21.479197-34.815947 49.710169-35.468816 79.732949-0.00614 0.208754-0.031722 0.412392-0.031722 0.623193l0 31.953759-10.460236 0c-28.003797 0-50.786687 22.922059-50.786687 51.098795l0 180.759877c0 28.175713 22.782889 51.098795 50.786687 51.098795l260.796748 0c28.002774 0 50.785663-22.922059 50.785663-51.098795L945.734472 676.257018C945.736519 648.081305 922.954653 625.158223 894.950855 625.158223zM685.546591 595.053578c0-40.627303 35.505655-74.951039 77.532841-74.951039s77.532841 34.323737 77.532841 74.951039l0 30.104645L685.546591 625.158223 685.546591 595.053578zM904.804271 857.015871c0 5.605671-4.419659 10.166547-9.853415 10.166547L634.154108 867.182418c-5.433756 0-9.854439-4.560876-9.854439-10.166547L624.299669 676.257018c0-5.605671 4.420683-10.166547 9.854439-10.166547l28.097942 0c0.927115 0.127913 1.865487 0.217964 2.827395 0.217964s1.901303-0.089028 2.827395-0.217964l190.342116 0c0.927115 0.127913 1.865487 0.217964 2.827395 0.217964s1.901303-0.089028 2.827395-0.217964l31.046087 0c5.433756 0 9.853415 4.560876 9.853415 10.166547L904.803247 857.015871z" p-id="10831" fill=""></path><path d="M763.078409 713.573925c-11.30344 0-20.466124 9.162684-20.466124 20.466124l0 65.193815c0 11.30344 9.162684 20.466124 20.466124 20.466124s20.466124-9.162684 20.466124-20.466124l0-65.193815C783.544533 722.736609 774.381849 713.573925 763.078409 713.573925z" p-id="10832" fill=""></path></svg>
