<svg id="图层_1" data-name="图层 1" xmlns="http://www.w3.org/2000/svg" viewBox="0 0 200 200">
  <title>销售</title>
  <g>
    <path d="M44.83,100.82q0-27,0-53.94c0-9.93,4.75-14.62,14.7-14.71,2.33,0,4.67.15,7,0,2.65-.22,3.4.8,3.4,3.39s-1,3.12-3.28,3c-2.82-.12-5.66-.11-8.49,0-4.89.18-7.13,2.26-7.13,7Q51,101,51,156.4c0,5,2.3,7,7.57,7.06,12.82.07,25.64,0,38.46,0,2.27,0,4.07-.26,4.07,3.17s-1.65,3.24-4,3.23c-12.65-.06-25.31,0-38,0q-14.31-.08-14.32-14.56C44.8,137.11,44.83,119,44.83,100.82Z" style=""/>
    <path d="M113.51,159c5.47-5.47,10.12-9.9,14.49-14.58,2.86-3.06,5.4-3.78,8.07-.06,1.73,2.41,3,2,5,0,3.65-3.8,7.63-7.29,12.45-11.82-3.89-.26-5.94-1-5.42-3.82S151,126,153.2,126c10.63-.2,10.63-.22,10.32,10.3-.06,2.16.18,4.51-2.56,5.32-1.62.48-2.55-.44-4.62-4.54-4.87,5-9.67,9.86-14.28,14.86-2.47,2.67-4.74,3-7,.06-2.12-2.71-3.68-2.19-5.8.15-3.23,3.56-6.83,6.79-10.27,10.16,1.07,2,2.76,1.15,4.06,1.15,12.32.08,24.65,0,37,.06a35.4,35.4,0,0,1,4,.22,2.75,2.75,0,0,1,2.5,2.7,3,3,0,0,1-2.52,3.22,16.87,16.87,0,0,1-3.47.19c-15.66,0-31.31-.11-47,.08-4.7.06-6.55-1.47-6.44-6.35.26-11.65.1-23.31.08-35,0-2.63.1-5.51,3.5-5.46s2.82,3.15,2.83,5.36C113.55,138.22,113.51,148,113.51,159Z" style=""/>
    <path d="M157.17,68c0,7.65,0,15.3,0,23,0,2.32.14,4-3.23,4-3.66,0-3-2.19-3-4.23,0-14.64,0-29.27,0-43.91,0-6.37-1.93-8.24-8.35-8.31-2.33,0-4.66-.11-7,0s-3.6-.36-3.59-3.21,1.2-3.46,3.59-3.17a5.78,5.78,0,0,0,1,0c15.5-.85,21.8,3.07,20.58,20.36C156.86,57.65,157.17,62.83,157.17,68Z" style=""/>
    <path d="M100.78,76C89,76,77.17,76,65.36,76c-2.27,0-4.73.12-4.8-2.87-.07-3.23,2.49-3.34,5-3.33q35.42,0,70.84,0c2.44,0,5.11,0,5,3.25S138.53,76,136.21,76Z"/>
    <path d="M88.08,101c-7.64,0-15.29,0-22.93,0-2.35,0-4.64-.11-4.59-3.08s2.34-3.14,4.68-3.13q23.18,0,46.36,0c2.3,0,4.71.11,4.84,3,.15,3.33-2.48,3.25-4.93,3.24C103.7,101,95.89,101,88.08,101Z"/>
    <path d="M76.43,126c-4,0-8,0-12,0-2.13,0-3.77-.79-3.88-3-.14-2.57,1.7-3.25,4-3.24q11.49.06,23,0c2.1,0,3.8.6,3.87,2.88.08,2.53-1.66,3.34-4,3.31C83.75,126,80.09,126,76.43,126Z" style=""/>
    <path d="M101.19,32.14c3,0,6,.15,8.94,0,2.55-.16,3.48.64,3.5,3.3,0,2.85-1.26,3.24-3.63,3.19q-9.19-.17-18.38,0c-2.31,0-3.23-.63-3.24-3.07s.66-3.62,3.37-3.43C94.88,32.3,98,32.14,101.19,32.14Z" style=""/>
    <path d="M82.14,35.45c0,3,0,6,0,8.94,0,1.93-.92,3.36-2.82,3.38-2.07,0-3.31-1.28-3.31-3.5,0-6,0-11.92,0-17.88,0-2.17,1.18-3.47,3.4-3.34,2.06.12,2.71,1.61,2.72,3.46C82.15,29.49,82.14,32.47,82.14,35.45Z" style=""/>
    <path d="M126,35.64c0,3,0,6,0,8.94a3,3,0,0,1-3.11,3.19c-1.89,0-3-1.23-3-3.21,0-6.12,0-12.25,0-18.37,0-1.94,1-3.17,3-3.15A2.91,2.91,0,0,1,126,26.21C126,29.35,126,32.5,126,35.64Z" style=""/>
  </g>
</svg>
