<?xml version="1.0" standalone="no"?><!DOCTYPE svg PUBLIC "-//W3C//DTD SVG 1.1//EN" "http://www.w3.org/Graphics/SVG/1.1/DTD/svg11.dtd"><svg t="1545360710763" class="icon" style="" viewBox="0 0 1024 1024" version="1.1" xmlns="http://www.w3.org/2000/svg" p-id="6943" xmlns:xlink="http://www.w3.org/1999/xlink" width="200" height="200"><defs><style type="text/css"></style></defs><path d="M888.832 456.704l-96.256-110.592c-18.432-20.48-55.296-36.864-81.92-36.864h-79.872v-65.536c0-32.768-26.624-59.392-59.392-59.392H159.744c-32.768 0-59.392 26.624-59.392 59.392v303.104c0 32.768 26.624 59.392 59.392 59.392h8.192v86.016c0 32.768 26.624 59.392 59.392 59.392h55.296c4.096 51.2 49.152 90.112 100.352 90.112s94.208-38.912 100.352-90.112h137.216c4.096 51.2 49.152 90.112 100.352 90.112s94.208-38.912 100.352-90.112h45.056c32.768 0 59.392-26.624 59.392-59.392v-135.168c-8.192-67.584-18.432-79.872-36.864-100.352zM716.8 677.888c34.816 0 63.488 28.672 63.488 63.488 0 16.384-6.144 32.768-18.432 45.056-12.288 12.288-28.672 18.432-45.056 18.432-34.816 0-63.488-28.672-63.488-63.488 0-36.864 28.672-63.488 63.488-63.488z m-333.824 129.024c-34.816 0-63.488-28.672-63.488-63.488 0-34.816 28.672-63.488 63.488-63.488s63.488 28.672 63.488 63.488-28.672 63.488-63.488 63.488zM204.8 606.208h366.592c32.768 0 59.392-26.624 59.392-59.392v-200.704h79.872c18.432 0 43.008 12.288 55.296 24.576l106.496 120.832c8.192 12.288 14.336 32.768 12.288 100.352v102.4c0 12.288-10.24 22.528-22.528 22.528h-47.104c-12.288-43.008-51.2-73.728-96.256-73.728S634.88 673.792 622.592 716.8h-143.36c-12.288-43.008-51.2-73.728-96.256-73.728S299.008 673.792 286.72 716.8h-59.392c-12.288 0-22.528-10.24-22.528-22.528v-88.064zM137.216 243.712c0-12.288 10.24-22.528 22.528-22.528h411.648c12.288 0 22.528 10.24 22.528 22.528v303.104c0 12.288-10.24 22.528-22.528 22.528H159.744c-12.288 0-22.528-10.24-22.528-22.528V243.712z" p-id="6944" fill=""></path><path d="M686.08 602.112h106.496c14.336 0 24.576-10.24 24.576-24.576v-59.392c0-8.192-4.096-20.48-8.192-28.672L757.76 403.456c-6.144-10.24-18.432-16.384-28.672-16.384h-38.912c-14.336 0-24.576 10.24-24.576 24.576v167.936c2.048 12.288 10.24 22.528 20.48 22.528z m6.144-22.528v-165.888h38.912c2.048 0 6.144 2.048 6.144 4.096l51.2 88.064c2.048 4.096 4.096 10.24 4.096 16.384v59.392l-100.352-2.048z" p-id="6945" fill=""></path></svg>
