<?xml version="1.0" standalone="no"?><!DOCTYPE svg PUBLIC "-//W3C//DTD SVG 1.1//EN" "http://www.w3.org/Graphics/SVG/1.1/DTD/svg11.dtd"><svg t="1545365889646" class="icon" style="" viewBox="0 0 1024 1024" version="1.1" xmlns="http://www.w3.org/2000/svg" p-id="8057" xmlns:xlink="http://www.w3.org/1999/xlink" width="200" height="200"><defs><style type="text/css"></style></defs><path d="M681.805 295.578l-128.461 227.18h106.925v44.95H544.486v38.58h115.783v45.563H544.486v106.945H491.33V651.851H376.791v-45.563H491.33v-38.581H376.791v-44.95h105.68l-127.828-227.18h62.016l101.25 181.617 102.537-181.617h61.362zM512 891.687c-209.693 0-379.687-169.994-379.687-379.687 0-209.671 169.994-379.687 379.687-379.687S891.687 302.329 891.687 512c0 209.693-169.994 379.687-379.687 379.687z m0-801.562C278.998 90.125 90.125 279.019 90.125 512c0 233.022 188.873 421.875 421.875 421.875 233.022 0 421.875-188.853 421.875-421.875 0-232.98-188.853-421.875-421.875-421.875z" p-id="8058" fill=""></path></svg>
