<?xml version="1.0" standalone="no"?><!DOCTYPE svg PUBLIC "-//W3C//DTD SVG 1.1//EN" "http://www.w3.org/Graphics/SVG/1.1/DTD/svg11.dtd"><svg t="1545360628801" class="icon" style="" viewBox="0 0 1024 1024" version="1.1" xmlns="http://www.w3.org/2000/svg" p-id="6332" xmlns:xlink="http://www.w3.org/1999/xlink" width="200" height="200"><defs><style type="text/css"></style></defs><path d="M864 512V256a128 128 0 0 0-128-128h-448a128 128 0 0 0-128 128v512a128 128 0 0 0 128 128h192v64h-192a192 192 0 0 1-192-192V256a192 192 0 0 1 192-192h448a192 192 0 0 1 192 192v256h-64z m-576 0V448h192v64h-192z m0-256h448v64h-448V256z m368 256a175.872 175.872 0 0 1 144.896 275.648l121.6 121.6-45.248 45.248-121.6-121.6A175.872 175.872 0 0 1 480 688C480 590.72 558.72 512 656 512z m0 288a112 112 0 1 0 0.064-223.936 112 112 0 0 0-0.064 223.936z" p-id="6333" fill=""></path></svg>
