<?xml version="1.0" standalone="no"?><!DOCTYPE svg PUBLIC "-//W3C//DTD SVG 1.1//EN" "http://www.w3.org/Graphics/SVG/1.1/DTD/svg11.dtd"><svg t="1545365461924" class="icon" style="" viewBox="0 0 1024 1024" version="1.1" xmlns="http://www.w3.org/2000/svg" p-id="3390" xmlns:xlink="http://www.w3.org/1999/xlink" width="200" height="200"><defs><style type="text/css"></style></defs><path d="M568.184115 516.422729 447.84126 516.422729l5.145184-17.800411c1.709945-5.913687 3.837398-13.274328 5.725398-20.128433 4.015454-15.052834 4.228301-20.566408 3.765767-22.565948-0.962931 0.279363-2.673899 0.978281-5.179976 2.720971-7.823176 5.373381-17.873066 11.277858-29.510104 18.111496l-3.656273 2.156106c-16.498766 9.744945-35.19764 20.790512-51.730175 32.840966-18.184151 13.18837-26.989701 24.15412-26.945699 33.542954 0.082888 6.370081 4.749164 12.854772 13.864776 19.163455 24.533766 17.062608 92.016717 53.325509 105.738229 60.552098l0.164752 0.024559c0.596588-1.087774 2.75781-7.366781-6.447852-32.527834l-11.848862-29.178553 121.017214-0.078795 0.853437 0.113587c21.179368 2.809999 61.23362 19.34458 61.23362 61.797461 0 36.821627-31.939433 61.742203-61.770855 61.917188L402.498562 687.083597c-0.058328 7.514137-0.132006 23.419386 0.01535 46.898123l166.079526 0c5.130857 0 51.003628-0.89437 81.505315-31.81766 18.295692-18.538215 27.322275-44.282552 26.830065-76.521814l-0.008186-0.515746 0.032746-0.512676c0.014326-0.343831 1.169639-47.38931-29.543873-79.196737C628.665605 526.193257 601.994152 516.422729 568.184115 516.422729zM847.588663 227.02969c-0.004093-28.593222-23.299659-51.857065-51.927673-51.857065L676.928818 175.172625 676.928818 113.25646c0-32.031531-26.919093-51.858088-51.858088-51.858088L397.523247 61.398372c-19.260669 0-51.857065 10.921747-51.857065 51.858088l0 61.915142L226.863403 175.171602c-28.594245 0-51.857065 23.26282-51.857065 51.857065l0 682.506349c0 28.592198 23.26282 51.857065 51.857065 51.857065l568.797587 0c28.632107 0 51.927673-23.263843 51.927673-51.857065L847.588663 227.02969zM392.560212 108.225887l237.464343 0 0 136.63696L392.560212 244.862847 392.560212 108.225887zM800.619932 914.560472 221.833853 914.560472 221.833853 222.069725l123.827213 0 0 20.436448c0 24.976858 16.22759 51.859112 51.857065 51.859112l227.552599 0c34.045397 0 51.858088-26.088168 51.858088-51.859112l0-20.436448 123.691113 0L800.619932 914.560472z" p-id="3391" fill=""></path></svg>
