<?xml version="1.0" standalone="no"?><!DOCTYPE svg PUBLIC "-//W3C//DTD SVG 1.1//EN" "http://www.w3.org/Graphics/SVG/1.1/DTD/svg11.dtd"><svg t="1553047154639" class="icon" style="" viewBox="0 0 1024 1024" version="1.1" xmlns="http://www.w3.org/2000/svg" p-id="3984" xmlns:xlink="http://www.w3.org/1999/xlink" width="200" height="200"><defs><style type="text/css"></style></defs><path d="M558.592 955.904c-116.224 0-225.792-44.544-309.248-125.44-8.192-8.192-8.704-21.504-0.512-29.696 8.192-8.192 21.504-8.704 29.696-0.512 75.264 73.216 174.592 113.152 279.552 113.152 221.696 0 401.92-180.224 401.92-401.92S779.776 109.568 558.08 109.568s-401.92 180.224-401.92 401.92c0 27.648 2.56 54.784 8.192 80.896 2.56 11.264-5.12 22.528-16.384 24.576s-22.528-5.12-24.576-16.384c-6.144-29.184-9.216-59.392-9.216-89.6 0-244.736 199.168-443.904 443.904-443.904s443.904 199.168 443.904 443.904S803.84 955.904 558.592 955.904z m-408.576-314.88c-5.632 0-10.752-2.048-14.848-6.144l-108.032-108.032c-8.192-8.192-8.192-21.504 0-29.696s21.504-8.192 29.696 0l92.672 93.184 93.184-93.184c8.192-8.192 21.504-8.192 29.696 0s8.192 21.504 0 29.696l-108.032 108.032c-3.584 4.096-8.704 6.144-14.336 6.144z m377.344-156.16c-7.168 0-14.336-3.584-18.432-10.752l-110.08-193.536c-5.632-10.24-2.048-23.04 7.68-28.672 10.24-5.632 23.04-2.048 28.672 7.68l110.08 193.536c5.632 10.24 2.048 23.04-7.68 28.672-3.072 2.048-6.656 3.072-10.24 3.072z m76.288 0c-3.584 0-7.168-1.024-10.24-2.56-10.24-5.632-13.824-18.432-7.68-28.672l110.08-193.536c5.632-10.24 18.432-13.824 28.672-7.68s13.824 18.432 7.68 28.672l-110.08 193.536c-4.096 6.144-11.264 10.24-18.432 10.24z m110.08 0h-309.76c-11.776 0-20.992-9.216-20.992-20.992s9.216-20.992 20.992-20.992h309.76c11.776 0 20.992 9.216 20.992 20.992s-9.216 20.992-20.992 20.992z m-26.112 126.976H430.08c-11.776 0-20.992-9.216-20.992-20.992s9.216-20.992 20.992-20.992h257.536c11.776 0 20.992 9.216 20.992 20.992s-9.216 20.992-20.992 20.992z m-129.024 175.616c-11.776 0-20.992-9.216-20.992-20.992v-302.592c0-11.776 9.216-20.992 20.992-20.992s20.992 9.216 20.992 20.992v302.592c0 11.776-9.216 20.992-20.992 20.992z" fill="" p-id="3985"></path></svg>
