<?xml version="1.0" standalone="no"?><!DOCTYPE svg PUBLIC "-//W3C//DTD SVG 1.1//EN" "http://www.w3.org/Graphics/SVG/1.1/DTD/svg11.dtd"><svg t="1560135386424" class="icon" style="" viewBox="0 0 1024 1024" version="1.1" xmlns="http://www.w3.org/2000/svg" p-id="572" xmlns:xlink="http://www.w3.org/1999/xlink" width="200" height="200"><defs><style type="text/css"></style></defs><path d="M946.5 639.4l-1.2 1.4-0.4 0.4-324.8 320c-23.5 20.5-53.8 31.3-87.6 31.3-31.8 0-60-9.8-86.1-30l-1.1-0.9-325.8-321.2c-11.3-12.7-17.5-29-17.5-45.9 0-30.8 20.7-58.3 50.3-66.9 3.3-1.1 9.9-2.8 18.4-2.8h71.7V98.5c0-28 7.2-48.8 21.9-63.5 14.7-14.5 35.4-21.5 63.4-21.5h409.4c55.7 0 85.1 29.4 85.1 84.9v426.4H896l1.8 0.3c17.4 1.1 33.6 8.6 45.7 21.2 12.5 13.1 19.5 30.3 19.5 48.4 0 16.1-5.9 32-16.5 44.7z m-52.2-67.1l-2.1-0.2H774.9V98.5c0-14.6-2.6-24.7-7.8-29.8-5.2-5.2-15.3-7.8-30-7.8H327.8c-14.7 0-24.9 2.6-30.1 7.8-5.2 5.2-7.9 15.3-7.9 29.8v473.7h-119c-1.6 0-2.9 0.2-3.4 0.4l-1.7 0.7h-0.8c-9.2 2.9-15.6 11.6-15.6 21.3 0 4.9 1.7 9.7 4.8 13.6l321.7 317.4c23.2 17.7 43.4 19.7 56.7 19.7 22.5 0 41.5-6.6 56.5-19.7l322.2-317.7c2.1-2.9 4.5-7.4 4.5-13.1 0-12.2-9.4-22.1-21.4-22.5zM669.5 428.1c12.1 0 21.9 10.1 21.9 22.5s-9.8 22.5-21.9 22.5H555v78c0 12.4-9.9 22-22.5 22-12.4 0-22.5-9.9-22.5-22v-78H395.5c-12.4 0-22-9.9-22-22.5 0-12.4 9.9-22.5 22-22.5h114.6v-49.5H395.6c-12.4 0-22-9.9-22-22.5 0-12.4 9.9-22.5 22-22.5h100.2L402.7 224c-3.9-4.6-5.8-10.4-5.2-16.3 0.5-5.9 3.3-11.2 7.9-15.1 4.6-3.9 10.6-5.8 16.6-5.3 5.9 0.5 11.2 3.2 14.9 7.7l95.5 112.5L627.9 195c7.8-9.2 21.9-10.4 31.4-2.5l0.1 0.1c9.5 8.2 10.7 22 2.7 31.4L569 333.7h100.4c12.1 0 21.9 10.1 21.9 22.5s-9.8 22.5-21.9 22.5H555v49.5h114.5z m-137 564.4z" fill="" p-id="573"></path></svg>
