<?xml version="1.0" standalone="no"?><!DOCTYPE svg PUBLIC "-//W3C//DTD SVG 1.1//EN" "http://www.w3.org/Graphics/SVG/1.1/DTD/svg11.dtd"><svg t="1545365528858" class="icon" style="" viewBox="0 0 1024 1024" version="1.1" xmlns="http://www.w3.org/2000/svg" p-id="4663" xmlns:xlink="http://www.w3.org/1999/xlink" width="200" height="200"><defs><style type="text/css"></style></defs><path d="M956.39 589.879c-3.877-11.315-14.496-18.919-26.453-18.919H806.956V119.027c0-30.835-25.087-55.909-55.908-55.909H268.62c-30.82 0-55.908 25.074-55.908 55.909V570.96H91.313a27.956 27.956 0 0 0-26.453 18.891A27.95 27.95 0 0 0 74.17 621l418.52 325.008a27.97 27.97 0 0 0 17.143 5.868 28.005 28.005 0 0 0 17.117-5.842l420.104-325.008c9.445-7.315 13.212-19.832 9.336-31.147zM509.86 888.556L172.883 626.87h67.783c15.452 0 27.954-12.516 27.954-27.954V119.027h482.428v479.888c0 15.437 12.502 27.954 27.954 27.954h69.121L509.861 888.556z" p-id="4664" fill=""></path><path d="M637.101 491.397h0.027c15.424 0 27.954-12.502 27.954-27.926 0-15.452-12.503-27.968-27.926-27.982l-68.482-0.051 75.77-90.267c9.937-11.834 8.409-29.455-3.439-39.392-11.847-9.937-29.482-8.34-39.365 3.44L512.562 415.34 423.46 309.218c-9.855-11.78-27.545-13.376-39.366-3.425-11.847 9.923-13.376 27.557-3.439 39.378l75.72 90.182-72.198-0.054h-0.028c-15.423 0-27.954 12.502-27.954 27.926 0 15.452 12.503 27.968 27.927 27.982l98.627 0.075-0.04 42.477-98.533-0.075h-0.028c-15.423 0-27.954 12.503-27.954 27.926 0 15.452 12.503 27.968 27.927 27.982l98.536 0.075-0.07 75.94c-0.026 15.436 12.504 27.967 27.928 27.981h0.028c15.424 0 27.926-12.503 27.954-27.927l0.07-75.952 98.534 0.075h0.027c15.424 0 27.954-12.503 27.954-27.927 0-15.451-12.503-27.967-27.926-27.982l-98.538-0.074 0.039-42.477 98.444 0.073z" p-id="4665" fill=""></path></svg>
