<?xml version="1.0" standalone="no"?><!DOCTYPE svg PUBLIC "-//W3C//DTD SVG 1.1//EN" "http://www.w3.org/Graphics/SVG/1.1/DTD/svg11.dtd"><svg t="1545366072120" class="icon" style="" viewBox="0 0 1024 1024" version="1.1" xmlns="http://www.w3.org/2000/svg" p-id="9897" xmlns:xlink="http://www.w3.org/1999/xlink" width="200" height="200"><defs><style type="text/css"></style></defs><path d="M404 857l39-45 6-6c36-33 93-30 126 6l39 45c21-6 42-15 60-24l-3-60v-9c3-51 45-87 96-84l60 3c9-18 18-39 24-60l-45-39-6-6c-33-36-30-93 6-126l45-39c-6-21-15-42-24-60l-60 3h-9c-51-3-87-45-84-96l3-60c-18-9-39-18-60-24l-39 45-6 6c-36 33-93 30-126-6l-39-45c-15 6-36 15-60 27l3 60v9c-3 51-45 87-96 84l-60-3c-9 18-18 39-24 60l45 39 6 6c33 36 30 93-6 126l-45 39c6 21 15 42 24 60l60-3h9c51 3 87 45 84 96l-3 60c21 6 39 12 60 21z m-120-12L287 767c0-18-12-30-27-33H257l-78 3c-12 0-21-6-27-15-21-33-36-69-45-108-3-12 0-21 9-30l60-54c12-12 12-30 3-42l-3-3-60-54c-9-6-12-18-9-30 9-39 24-75 45-108 6-9 15-15 27-15l78 3c18 0 30-12 33-27v-3l-3-78c0-12 6-24 18-27 45-24 81-36 108-45 12-3 21 0 30 9l54 60c12 12 30 12 42 3l3-3 54-60c6-9 18-12 30-9 39 9 75 24 108 45 9 6 15 15 15 27l-3 78c0 18 12 30 27 33h3l78-3c12 0 21 6 27 15 21 33 36 69 45 108 3 12 0 21-9 30l-60 54c-12 12-12 30-3 42l3 3 60 54c9 6 12 18 9 30-9 39-24 75-45 108-6 9-15 15-27 15l-78-3c-18 0-30 12-33 27v3l3 78c0 12-6 21-15 27-33 21-69 36-108 45-12 3-21 0-30-9l-54-60c-12-12-30-12-42-3l-3 3-54 60c-6 9-18 12-30 9-39-9-75-24-108-45-12-3-18-15-18-27zM512 692c-99 0-180-81-180-180s81-180 180-180 180 81 180 180-81 180-180 180z m0-60c66 0 120-54 120-120s-54-120-120-120-120 54-120 120 54 120 120 120z" p-id="9898" fill=""></path></svg>
