<?xml version="1.0" standalone="no"?><!DOCTYPE svg PUBLIC "-//W3C//DTD SVG 1.1//EN" "http://www.w3.org/Graphics/SVG/1.1/DTD/svg11.dtd"><svg t="1545365947801" class="icon" style="" viewBox="0 0 1024 1024" version="1.1" xmlns="http://www.w3.org/2000/svg" p-id="8870" xmlns:xlink="http://www.w3.org/1999/xlink" width="200" height="200"><defs><style type="text/css"></style></defs><path d="M428.133764 564.280839l23.197665 23.198672c13.170651 9.962571 26.917266 15.269094 40.444371 15.269094s27.274727-5.306524 40.444371-15.270101l23.196658-23.195651c6.240955-7.891314 12.205005-16.893273 17.780379-26.94244 20.279581-36.553592 44.452961-60.319166 44.452961-168.91058 0-46.632966-14.951911-91.305438-42.102786-125.788781-24.009251-30.493884-55.444615-49.014357-83.746411-49.014357-28.301796 0-59.788513 18.520473-83.796757 49.014357-27.149867 34.483342-42.102786 79.155815-42.102786 125.788781 0 108.592421 24.173381 132.356988 44.452961 168.91058C415.92876 547.388573 421.893816 556.390532 428.133764 564.280839z" p-id="8871" fill=""></path><path d="M574.674376 645.7244l-15.581243-15.581243c-21.132451 15.026424-44.339178 22.954995-67.316326 22.954995s-46.183875-7.928571-67.316326-22.954995l-15.581243 15.581243c-3.226205 3.226205-7.269031 5.514958-11.695498 6.622582l-190.165876 47.541217-32.117056 64.233104c15.091875 4.439557 36.448871 10.095485 63.533288 15.715165 53.448879 11.090333 140.789024 24.310323 253.34271 24.310323 59.844901 0 112.748024-3.682345 158.000488-9.019077l0-0.002014c-0.267844-0.769295-0.526625-1.542618-0.779364-2.318961-0.02618-0.078541-0.051353-0.157081-0.076527-0.235622-0.247705-0.76426-0.488361-1.531541-0.720962-2.301843-0.014097-0.046319-0.027187-0.091631-0.041284-0.137949-0.937452-3.11645-1.757094-6.283246-2.454897-9.495355-0.048333-0.220518-0.097672-0.442042-0.144998-0.663567-0.132915-0.631345-0.260795-1.263698-0.384647-1.898064-0.060416-0.312148-0.120832-0.625304-0.179234-0.938459-0.111769-0.594089-0.220518-1.188178-0.323225-1.785288-0.063437-0.362495-0.120832-0.727004-0.181247-1.091513-0.092638-0.566902-0.186282-1.133804-0.271871-1.702719-0.066457-0.443049-0.124859-0.888113-0.186282-1.332169-0.112776-0.818635-0.220518-1.639283-0.31819-2.462952-0.069478-0.588047-0.139963-1.175088-0.201386-1.765149-0.044305-0.422911-0.081561-0.848842-0.120832-1.27276-0.054374-0.568916-0.105728-1.137831-0.152047-1.708761-0.034236-0.418883-0.063437-0.837766-0.093645-1.257656-0.041284-0.593082-0.079548-1.187171-0.112776-1.782267-0.023159-0.395724-0.045312-0.792454-0.063437-1.189185-0.031215-0.660546-0.055381-1.323107-0.07552-1.986674-0.011076-0.333294-0.024166-0.663567-0.032222-0.996861-0.023159-0.998875-0.037256-1.999764-0.037256-3.003674 0-1.024048 0.014097-2.044069 0.038263-3.062076 0.008055-0.335308 0.023159-0.668602 0.034236-1.00391 0.021146-0.682699 0.045312-1.365398 0.077534-2.046083 0.018125-0.39371 0.042291-0.786413 0.06545-1.179116 0.035243-0.621276 0.073506-1.241545 0.117811-1.860808 0.029201-0.409821 0.06243-0.819641 0.095658-1.228455 0.04934-0.604158 0.102707-1.206303 0.160102-1.80744 0.03927-0.407807 0.079548-0.815614 0.122846-1.222414 0.064444-0.6102 0.134929-1.219393 0.208435-1.826572 0.047326-0.388675 0.091631-0.778357 0.141977-1.165019 0.085589-0.654505 0.179234-1.305989 0.274892-1.957473 0.048333-0.335308 0.093645-0.671623 0.146005-1.005924 0.138956-0.903217 0.288989-1.803413 0.447077-2.699581 0.014097-0.077534 0.02618-0.156074 0.03927-0.233608 0.173192-0.968667 0.359474-1.934314 0.554819-2.894925 0.066457-0.327252 0.138956-0.651484 0.208435-0.97773 0.134929-0.638394 0.271871-1.274774 0.415862-1.90914 0.087603-0.382634 0.180241-0.76426 0.270864-1.145887 0.136943-0.574957 0.275899-1.149915 0.41989-1.721851 0.100693-0.398744 0.205414-0.795475 0.309128-1.192206 0.146005-0.555826 0.296038-1.10863 0.450098-1.660428 0.110762-0.398744 0.222532-0.797489 0.337322-1.195227 0.160102-0.553812 0.325239-1.104603 0.492389-1.655394 0.116804-0.384647 0.232601-0.771309 0.353433-1.153942 0.183261-0.580999 0.372564-1.158977 0.563881-1.735948 0.113783-0.346384 0.224546-0.693775 0.343363-1.038145 0.251733-0.741101 0.513535-1.478174 0.778357-2.213233 0.063437-0.175206 0.123852-0.352426 0.187289-0.527632 0.327252-0.893147 0.666588-1.780253 1.012972-2.664338 0.130901-0.333294 0.267844-0.66256 0.400758-0.994847 0.225552-0.561867 0.453119-1.123734 0.686727-1.681574 0.159095-0.378606 0.322218-0.753184 0.484334-1.129776 0.219511-0.5085 0.440029-1.015993 0.665581-1.520465 0.174199-0.389682 0.351419-0.77735 0.529645-1.165019 0.224546-0.489368 0.452112-0.976723 0.682699-1.462063 0.184268-0.387668 0.369543-0.775336 0.55784-1.159984 0.235622-0.485341 0.476278-0.966653 0.718948-1.447966 0.191317-0.378606 0.38062-0.757212 0.574957-1.132797 0.256767-0.498431 0.519576-0.991827 0.784399-1.486229 0.186282-0.350412 0.37055-0.701831 0.56086-1.050229 0.323225-0.593082 0.655512-1.181129 0.988806-1.769177 0.152047-0.267844 0.300065-0.538708 0.455133-0.805544 0.448084-0.77735 0.905231-1.549666 1.369425-2.317954 0.199372-0.329266 0.405793-0.654505 0.609193-0.982764 0.297045-0.48232 0.595096-0.963633 0.899189-1.440918 0.230587-0.361488 0.465202-0.718948 0.699817-1.078423 0.285968-0.438015 0.571937-0.87603 0.861933-1.310017 0.246698-0.368537 0.496417-0.734052 0.746136-1.100575 0.288989-0.420897 0.578985-0.840787 0.872002-1.258663 0.25576-0.363502 0.512528-0.725997 0.771309-1.087485 0.300065-0.417876 0.604158-0.832732 0.909258-1.245573 0.259788-0.352426 0.518569-0.704851 0.782385-1.054256 0.321211-0.426939 0.647456-0.848842 0.973702-1.271753 0.254753-0.329266 0.506486-0.659539 0.76426-0.984778 0.382634-0.486347 0.77433-0.966653 1.164012-1.446959 0.207428-0.254753 0.411835-0.513535 0.620269-0.767281l-85.256807-21.314705C581.9424 651.240365 577.900581 648.950605 574.674376 645.7244z" p-id="8872" fill=""></path><path d="M504.363439 16.446196c-278.227991 0-503.776398 225.548407-503.776398 503.776398s225.548407 503.776398 503.776398 503.776398 503.776398-225.548407 503.776398-503.776398S782.59143 16.446196 504.363439 16.446196zM768.69881 879.671615c-1.091513 0-2.181011-0.014097-3.266483-0.041284-0.312148-0.008055-0.62329-0.025173-0.935438-0.036249-0.771309-0.025173-1.542618-0.04934-2.310906-0.08861-0.368537-0.019132-0.733045-0.047326-1.100575-0.069478-0.709886-0.042291-1.418765-0.082568-2.12563-0.135936-0.377599-0.029201-0.752177-0.068471-1.128769-0.100693-0.692768-0.059409-1.386543-0.115797-2.075284-0.186282-0.372564-0.038263-0.741101-0.086596-1.112658-0.12788-0.691761-0.076527-1.382516-0.15104-2.070249-0.238643-0.360481-0.046319-0.717941-0.1017-1.078423-0.15104-0.693775-0.094651-1.388557-0.187289-2.078305-0.294024-0.347391-0.053367-0.691761-0.115797-1.037138-0.172185-0.700824-0.113783-1.402654-0.226559-2.09945-0.351419-0.320204-0.057395-0.638394-0.123852-0.958598-0.183261-0.717941-0.134929-1.43689-0.26885-2.150804-0.415862-0.301072-0.06243-0.599124-0.131908-0.899189-0.196351-0.729018-0.156074-1.459042-0.312148-2.185039-0.480306-0.27892-0.064444-0.554819-0.136943-0.832732-0.2034-0.743115-0.178227-1.486229-0.356453-2.22431-0.548777-0.253746-0.06545-0.505479-0.137949-0.757212-0.204407-0.759226-0.201386-1.517444-0.404786-2.270628-0.620269-0.228573-0.06545-0.45614-0.136943-0.684713-0.2034-0.77433-0.226559-1.546645-0.455133-2.313926-0.695789-0.205414-0.064444-0.408814-0.133922-0.613221-0.199372-0.78742-0.251733-1.573832-0.506486-2.35521-0.773323-0.181247-0.06243-0.361488-0.12788-0.542736-0.191317-0.80051-0.276906-1.599006-0.558846-2.39146-0.850856-0.162116-0.059409-0.322218-0.123852-0.483327-0.184268-0.810579-0.303086-1.618137-0.611207-2.420661-0.930404-0.137949-0.054374-0.274892-0.112776-0.411835-0.168157-0.822662-0.33128-1.642304-0.666588-2.455904-1.013979-0.120832-0.051353-0.238643-0.104721-0.358467-0.156074-0.828704-0.35746-1.655394-0.719955-2.475035-1.094533-0.1017-0.046319-0.201386-0.095658-0.304093-0.141977-0.835752-0.384647-1.667477-0.775336-2.49316-1.177102-0.083575-0.040277-0.16413-0.082568-0.247705-0.122846-0.842801-0.411835-1.680567-0.832732-2.512292-1.262691-0.06545-0.034236-0.128887-0.068471-0.194338-0.102707-0.846829-0.440029-1.689629-0.888113-2.525382-1.347273-0.051353-0.028194-0.100693-0.056388-0.15104-0.084582-0.849849-0.467216-1.69265-0.944501-2.529409-1.430848-0.036249-0.021146-0.071492-0.042291-0.107742-0.063437-0.849849-0.49541-1.693657-0.999882-2.531423-1.514423-0.023159-0.015104-0.048333-0.030208-0.072499-0.045312-0.847835-0.522597-1.690636-1.053249-2.525382-1.594978-0.012083-0.008055-0.023159-0.016111-0.036249-0.023159-0.845822-0.548777-1.684595-1.107624-2.517326-1.677546-0.002014-0.002014-0.005035-0.004028-0.008055-0.005035-6.732337-4.603686-12.993431-9.843753-18.6987-15.63461-50.761381 6.929696-113.932174 12.360072-187.265916 12.360072-117.675941 0-209.191828-13.980223-265.242615-25.707943-61.504323-12.869579-94.974693-25.82374-96.369292-26.369496-6.589353-2.575728-11.790149-7.805725-14.331642-14.408169-2.540486-6.60345-2.185039-13.970154 0.979743-20.298712l50.349546-100.699093c3.286621-6.573242 9.280879-11.382343 16.410954-13.163603l194.633627-48.65891 10.099513-10.098506c-7.840968-9.954515-15.183505-21.076063-21.979279-33.326379-33.215617-59.875109-50.773464-98.858424-50.773464-193.3367 0-57.88038 18.784289-113.613984 52.893053-156.935155 33.974842-43.152007 79.099427-67.811735 123.356036-67.811735 44.25661 0 89.330847 24.658721 123.306697 67.811735 34.107757 43.321172 52.892046 99.054775 52.892046 156.935155 0 94.478276-17.557847 133.461591-50.773464 193.3367-6.795774 12.250317-14.138311 23.371864-21.979279 33.326379l10.099513 10.099513 120.657463 30.164617c0.002014-0.001007 0.005035-0.002014 0.006042-0.002014 2.416633-0.870995 4.867502-1.668484 7.349586-2.393474 0.1017-0.029201 0.201386-0.060416 0.303086-0.089617 0.67263-0.194338 1.34828-0.379613 2.025944-0.563881 0.251733-0.068471 0.503465-0.137949 0.756205-0.204407 0.625304-0.165137 1.253628-0.325239 1.88296-0.481313 0.307114-0.07552 0.616241-0.15104 0.924362-0.225552 0.603151-0.144998 1.208317-0.285968 1.815496-0.421904 0.339336-0.07552 0.678671-0.149026 1.020021-0.221525 0.591068-0.12788 1.183143-0.253746 1.778239-0.373571 0.358467-0.071492 0.717941-0.137949 1.077416-0.206421 0.585027-0.111769 1.170053-0.225552 1.759108-0.329266 0.360481-0.063437 0.723983-0.118818 1.084464-0.180241 0.99082-0.165137 1.98466-0.320204 2.982528-0.462181 0.518569-0.073506 1.035125-0.150033 1.554701-0.217497 0.457146-0.059409 0.916307-0.111769 1.375467-0.166144 0.535687-0.064444 1.072381-0.12788 1.611089-0.184268 0.447077-0.047326 0.894154-0.089617 1.343245-0.132915 0.559853-0.053367 1.119707-0.103714 1.682581-0.149026 0.431973-0.035243 0.864953-0.068471 1.297933-0.099686 0.595096-0.042291 1.190192-0.078541 1.786295-0.112776 0.404786-0.023159 0.809572-0.047326 1.215365-0.066457 0.666588-0.032222 1.33519-0.055381 2.003792-0.076527 0.340343-0.010069 0.679678-0.025173 1.020021-0.033229 1.010958-0.024166 2.02393-0.038263 3.04093-0.038263 69.518483 0 125.87437 56.355887 125.87437 125.87437S838.217292 879.671615 768.69881 879.671615z" p-id="8873" fill=""></path><path d="M782.551153 778.511348 782.551153 745.495103 832.900699 745.495103 832.900699 719.805285 799.068841 719.805285 828.878012 691.635397 811.234575 672.964891 769.70574 712.209001 728.177912 672.964891 710.534476 691.635397 740.343647 719.805285 706.511788 719.805285 706.511788 745.495103 756.861335 745.495103 756.861335 778.716761 706.410088 779.120541 706.615502 804.808345 756.861335 804.40658 756.861335 837.243591 782.551153 837.243591 782.551153 804.201166 833.002399 803.797387 832.796986 778.109582Z" p-id="8874" fill=""></path></svg>
