<?xml version="1.0" standalone="no"?><!DOCTYPE svg PUBLIC "-//W3C//DTD SVG 1.1//EN" "http://www.w3.org/Graphics/SVG/1.1/DTD/svg11.dtd"><svg t="1569471981609" class="icon" viewBox="0 0 1024 1024" version="1.1" xmlns="http://www.w3.org/2000/svg" p-id="3485" xmlns:xlink="http://www.w3.org/1999/xlink" width="200" height="200"><defs><style type="text/css"></style></defs><path d="M845.514933 957.928189 173.803441 957.928189c-61.827137 0-111.953791-50.128701-111.953791-111.948675L61.84965 174.261882c0-61.828161 50.126654-111.953791 111.953791-111.953791l671.712515 0c61.820997 0 111.948675 50.125631 111.948675 111.953791l0 671.717631C957.468724 907.799488 907.33593 957.928189 845.514933 957.928189L845.514933 957.928189zM847.239204 103.644545 172.07917 103.644545c-30.91408 0-68.89409 37.953404-68.89409 68.892043l0 675.15901c0 30.883381 37.95545 68.895113 68.89409 68.895113l675.15901 0c30.908964 0 68.89409-37.96159 68.89409-68.895113L916.13227 172.537611C916.13227 172.537611 911.104767 103.644545 847.239204 103.644545zM764.566296 213.873042 254.751055 213.873042c-32.587186 0-29.574572-39.61116 3.01159-39.61116l503.784898 0C794.163381 174.261882 797.151435 213.873042 764.566296 213.873042L764.566296 213.873042zM502.768755 310.324768c10.632151-10.632151 3.186576-10.68127 13.778818 0L655.912667 476.168933c22.654976 22.705118-3.351328 48.758494-25.955138 26.102495l-99.631138-109.273752 0 427.143357c0 30.994921-41.336454 30.989805-41.336454 0L488.989937 392.997676 390.232702 502.221286c-22.574135 22.73684-48.533366-3.372817-25.951045-26.106588L502.768755 310.324768z" p-id="3486" fill=""></path></svg>
