<?xml version="1.0" standalone="no"?><!DOCTYPE svg PUBLIC "-//W3C//DTD SVG 1.1//EN" "http://www.w3.org/Graphics/SVG/1.1/DTD/svg11.dtd"><svg t="1545360467549" class="icon" style="" viewBox="0 0 1024 1024" version="1.1" xmlns="http://www.w3.org/2000/svg" p-id="3946" xmlns:xlink="http://www.w3.org/1999/xlink" width="200" height="200"><defs><style type="text/css"></style></defs><path d="M945.5 908.9h-867c-18.4 0-33.2-14.9-33.2-33.2s14.9-33.2 33.2-33.2h867.1c18.4 0 33.2 14.9 33.2 33.2s-14.9 33.2-33.3 33.2zM654.5 415.1c-30.3 0-55-24.7-55-55s24.7-55 55-55c10.5 0 19-8.5 19-19v-152c0-10.5-8.5-19-19-19h-285c-10.5 0-19 8.5-19 19v152c0 10.5 8.5 19 19 19 30.3 0 55 24.7 55 55s-24.7 55-55 55c-83.8 0-152 68.2-152 152v133c0 10.5 8.5 19 19 19h551c10.5 0 19-8.5 19-19v-133c0-83.8-68.2-152-152-152z" fill="" p-id="3947"></path></svg>
