<?xml version="1.0" standalone="no"?><!DOCTYPE svg PUBLIC "-//W3C//DTD SVG 1.1//EN" "http://www.w3.org/Graphics/SVG/1.1/DTD/svg11.dtd"><svg t="1545365748862" class="icon" style="" viewBox="0 0 1024 1024" version="1.1" xmlns="http://www.w3.org/2000/svg" p-id="7268" xmlns:xlink="http://www.w3.org/1999/xlink" width="200" height="200"><defs><style type="text/css"></style></defs><path d="M903.68 467.456c15.36 0 28.16-12.8 28.16-28.16V293.376c0-30.72-25.088-55.808-55.808-55.808H119.296c-30.72 0-55.808 25.088-55.808 55.808V440.32c0 15.36 12.288 27.648 27.136 28.16 44.032 1.024 78.848 36.864 78.848 80.896s-34.816 79.872-78.848 80.896c-15.36 0.512-27.136 12.8-27.136 28.16v146.944c0 30.72 25.088 55.808 55.808 55.808H875.52c30.72 0 55.808-25.088 55.808-55.808v-146.432c0-15.36-12.288-28.16-28.16-28.16-44.544 0-80.896-36.352-80.896-80.896 0.512-46.08 36.864-82.432 81.408-82.432z m-38.4 215.552v100.864H322.048v-32.256c0-15.36-12.288-28.16-28.16-28.16s-28.16 12.8-28.16 28.16v32.256H134.656v-101.376c61.44-13.824 101.376-68.096 101.376-133.632s-39.936-119.808-101.376-133.632V313.856H266.24V337.92c0 15.36 12.288 28.16 28.16 28.16S322.56 353.28 322.56 337.92v-24.576h542.72v100.864c-62.464 12.8-109.056 68.096-109.056 134.144 0 66.56 47.104 121.856 109.056 134.656z" p-id="7269" fill=""></path><path d="M656.896 557.568c17.408 0 32.256-13.824 32.256-32.256 0-17.408-13.824-32.256-32.256-32.256h-41.984l54.272-64c11.264-13.312 9.216-33.792-4.096-45.056-13.312-11.264-33.792-9.216-45.056 4.096l-70.656 83.968-68.608-83.456c-11.264-13.312-31.232-15.36-45.056-4.096s-15.36 31.232-4.096 45.056l54.272 64h-45.056c-17.408 0-32.256 13.824-32.256 32.256 0 17.408 13.824 32.256 32.256 32.256H517.12v20.48H440.832c-17.408 0-32.256 13.824-32.256 32.256 0 17.408 13.824 32.256 32.256 32.256H517.12v57.344c0 17.408 13.824 32.256 32.256 32.256 17.408 0 32.256-13.824 32.256-32.256v-57.344h76.288c17.408 0 32.256-13.824 32.256-32.256 0-17.408-13.824-32.256-32.256-32.256h-76.288v-20.48h75.264v-0.512zM294.4 454.656c-15.36 0-28.16 12.8-28.16 28.16v134.144c0 15.36 12.288 28.16 28.16 28.16s28.16-12.8 28.16-28.16V482.816c-0.512-15.36-12.8-28.16-28.16-28.16z" p-id="7270" fill=""></path></svg>
