<?xml version="1.0" standalone="no"?><!DOCTYPE svg PUBLIC "-//W3C//DTD SVG 1.1//EN" "http://www.w3.org/Graphics/SVG/1.1/DTD/svg11.dtd"><svg t="1545365980513" class="icon" style="" viewBox="0 0 1024 1024" version="1.1" xmlns="http://www.w3.org/2000/svg" p-id="9133" xmlns:xlink="http://www.w3.org/1999/xlink" width="200" height="200"><defs><style type="text/css"></style></defs><path d="M315.135713 884.777561l21.205307 14.250649a85.333227 85.333227 0 0 0 95.317214 0l32.682626-22.015973a85.333227 85.333227 0 0 1 95.317214 0l32.682626 22.015973a85.333227 85.333227 0 0 0 95.317214 0l21.205307-14.250649a78.506569 78.506569 0 0 1 98.730543 8.959988 26.922633 26.922633 0 0 0 45.738609-19.285309V128.853172a42.666613 42.666613 0 0 0-42.666613-42.666613H213.333173a42.666613 42.666613 0 0 0-42.666613 42.666613v745.556402a26.922633 26.922633 0 0 0 45.738609 19.242642 78.506569 78.506569 0 0 1 98.730544-8.959989zM85.333333 970.83612V85.333227a85.333227 85.333227 0 0 1 85.333227-85.333227h682.665813a85.333227 85.333227 0 0 1 85.333227 85.333227v885.502893a53.205267 53.205267 0 0 1-85.333227 42.367947l-36.693287-27.818632a85.333227 85.333227 0 0 0-99.242543-2.77333l-29.738629 20.053308a85.333227 85.333227 0 0 1-95.317214 0l-32.682626-22.015972a85.333227 85.333227 0 0 0-95.317214 0l-32.682626 22.015972a85.333227 85.333227 0 0 1-95.317214 0l-29.73863-20.053308a85.333227 85.333227 0 0 0-99.242543 2.77333l-36.693287 27.818632a53.205267 53.205267 0 0 1-85.333227-42.367947zM341.333013 341.332907h341.332907a42.666613 42.666613 0 0 1 0 85.333226H341.333013a42.666613 42.666613 0 1 1 0-85.333226z m0 170.666453h341.332907a42.666613 42.666613 0 0 1 0 85.333227H341.333013a42.666613 42.666613 0 0 1 0-85.333227z m127.99984-85.333227h85.333227v255.99968a42.666613 42.666613 0 0 1-85.333227 0v-255.99968zM426.66624 255.99968a42.666613 42.666613 0 0 1 42.666613 42.666613v42.666614H383.999627V298.666293a42.666613 42.666613 0 0 1 42.666613-42.666613z m170.666453 0a42.666613 42.666613 0 0 1 42.666614 42.666613v42.666614h-85.333227V298.666293a42.666613 42.666613 0 0 1 42.666613-42.666613z" p-id="9134" fill=""></path></svg>
