<?xml version="1.0" standalone="no"?><!DOCTYPE svg PUBLIC "-//W3C//DTD SVG 1.1//EN" "http://www.w3.org/Graphics/SVG/1.1/DTD/svg11.dtd"><svg t="1553047134219" class="icon" style="" viewBox="0 0 1024 1024" version="1.1" xmlns="http://www.w3.org/2000/svg" p-id="3189" xmlns:xlink="http://www.w3.org/1999/xlink" width="200" height="200"><defs><style type="text/css"></style></defs><path d="M706.56 438.272l-194.56 194.56c-6.144 6.144-13.312 9.216-21.504 9.216h-3.072c-9.216-1.024-17.408-6.144-22.528-13.312l-113.664-112.64c-9.216-10.24-13.312-30.72 1.024-45.056 13.312-12.288 33.792-10.24 49.152 5.12l94.208 87.04 168.96-168.96c12.288-11.264 31.744-11.264 44.032 1.024 9.216 12.288 9.216 31.744-2.048 43.008z m106.496-227.328c-57.344-4.096-113.664-18.432-166.912-40.96C614.4 155.648 565.248 122.88 536.576 102.4 522.24 92.16 501.76 92.16 487.424 102.4c-28.672 20.48-77.824 53.248-110.592 67.584-53.248 22.528-109.568 36.864-166.912 40.96-22.528 1.024-39.936 20.48-39.936 43.008V512c0 133.12 68.608 256 181.248 326.656l79.872 50.176 57.344 35.84c14.336 8.192 31.744 8.192 45.056 0l57.344-35.84 79.872-50.176C783.36 768 851.968 645.12 851.968 512V252.928c1.024-22.528-16.384-40.96-38.912-41.984z" p-id="3190" fill=""></path></svg>
