<?xml version="1.0" standalone="no"?><!DOCTYPE svg PUBLIC "-//W3C//DTD SVG 1.1//EN" "http://www.w3.org/Graphics/SVG/1.1/DTD/svg11.dtd"><svg t="1553047102658" class="icon" style="" viewBox="0 0 1024 1024" version="1.1" xmlns="http://www.w3.org/2000/svg" p-id="2903" xmlns:xlink="http://www.w3.org/1999/xlink" width="200" height="200"><defs><style type="text/css"></style></defs><path d="M277.67 709.399a17.177 17.177 0 0 0-3.65 9.992c0 5.191 2.272 9.335 6.817 12.432a49.437 49.437 0 0 0 11.222 6.071c4.544 0 10.556-1.951 18.033-5.848a165.154 165.154 0 0 0 25.352-17.065A135.526 135.526 0 0 0 372 668.734c30.544 44.196 86.925 66.295 169.153 66.295h183.769c12.022 0 18.033-6.174 18.033-18.522 0-12.349-6.011-18.523-18.033-18.523H531.398c-40.946 0-74.094-7.231-99.446-21.698-25.348-14.461-40.62-34.204-45.822-59.227V464.937a143.004 143.004 0 0 0-1.215-20.972c-0.814-5.192-2.361-9.257-4.633-12.19a15.589 15.589 0 0 0-9.75-5.601 91.431 91.431 0 0 0-16.581-1.215h-61.903c-6.825 0-11.455 1.788-13.889 5.36-2.435 3.576-3.655 8.777-3.666 15.598 0 11.054 5.853 16.576 17.554 16.571h52.598c2.923 0 4.39 2.124 4.39 6.342v153.066c0 30.219-19.499 56.055-58.499 77.507h0.488c-6.474 3.244-10.923 6.572-13.354 9.996z m72.874-399.485c-6.506-5.19-12.032-9.419-16.577-12.674-8.46-6.501-15.444-9.75-20.962-9.75-6.509 0-10.891 2.187-13.148 6.574a76.663 76.663 0 0 0-5.364 12.916c0 2.923 1.135 6.069 3.408 9.266a30.925 30.925 0 0 0 10.239 8.771 102.768 102.768 0 0 1 12.383 8.293c4.716 3.581 10.328 8.13 16.822 13.647 6.49 4.874 12.338 9.67 17.539 14.383 5.197 4.711 9.918 9.182 14.162 13.404 9.088 9.094 16.239 13.643 21.446 13.643 4.874 0 9.339-2.114 13.399-6.342 4.06-4.228 6.086-8.778 6.071-13.647 0-4.544-1.946-9.093-5.848-13.642-3.255-3.576-13.82-12.517-31.691-26.82h0.484a5678.563 5678.563 0 0 0-22.363-18.022z m0 0" p-id="2904" fill=""></path><path d="M695.435 496.859c6.006-6.337 9.014-17.308 9.014-32.906V339.159c0-15.277-2.923-25.921-8.771-31.937s-16.256-9.019-31.225-9.014H469.979c-14.951 0-25.19 2.85-30.712 8.54-5.522 5.69-8.283 16.482-8.283 32.372v296.916c0 13.005 1.788 22.592 5.359 28.761 4.876 8.091 12.185 12.141 21.93 12.141 8.095 0 23.047-3.576 44.854-10.724a4271.085 4271.085 0 0 0 28.761-9.997c8.766-3.086 16.729-6.258 23.89-9.509a162.267 162.267 0 0 0 18.28-9.497 84.318 84.318 0 0 0 10.234-7.315c2.445-2.109 3.986-3.977 4.633-5.601a14.349 14.349 0 0 0 1.013-5.364c0-2.92-1.299-6.495-3.892-10.724h0.484c-2.282-4.213-6.327-6.406-12.141-6.574-5.814-0.168-14.259 2.514-25.348 8.041a135.734 135.734 0 0 1-19.218 8.54 3334.093 3334.093 0 0 0-26.696 10.056 2124.15 2124.15 0 0 1-22.425 7.078c-6.831 2.124-10.896 3.166-12.14 3.166-0.673 0-1.013-2.109-1.013-6.332V506.367h27.787c26.302 23.402 50.678 45.338 73.126 65.81 22.448 20.478 42.432 38.837 59.947 55.083a1593.28 1593.28 0 0 1 28.03 26.815 1539.98 1539.98 0 0 0 28.03 26.795h-0.489c4.218 4.223 8.52 6.337 12.921 6.342 4.395 0.009 8.702-1.779 12.916-5.36 4.553-3.897 6.826-8.445 6.826-13.647a19.306 19.306 0 0 0-2.193-8.09 32.919 32.919 0 0 0-6.584-9.014c-1.635-1.625-6.674-6.253-15.115-13.889-8.44-7.636-19.978-18.103-34.604-31.399a238.291 238.291 0 0 1-7.082-6.343 283.216 283.216 0 0 1-7.547-7.315c9.093-5.527 17.298-10.891 24.612-16.082 7.32-5.191 13.894-10.229 19.737-15.114 16.577-13.973 24.864-25.185 24.864-33.632 0-1.62-0.814-4.06-2.44-7.315a19.347 19.347 0 0 0-7.077-7.799c-3.097-1.951-6.92-2.514-11.465-1.699-4.543 0.816-9.745 4.15-15.598 9.993a326.17 326.17 0 0 1-28 24.815 337.454 337.454 0 0 1-30.95 21.939 2325.408 2325.408 0 0 0-33.151-29.458c-11.055-9.582-22.913-20.063-35.588-31.438h115.989c14.641 0.002 24.969-3.17 30.984-9.506zM467.539 343.1a15.048 15.048 0 0 1 1.013-6.342c0.647-1.294 2.277-1.95 4.874-1.95h188.15c4.544 0 6.817 2.765 6.817 8.292v41.475H467.539V343.1z m0 126.741v-49.757h200.834v40.462c0 6.174-2.272 9.266-6.815 9.266l-194.019 0.029z m0 0" p-id="2905" fill=""></path><path d="M925.855 336.379C860.835 182.734 716.644 77.256 550.528 61.826c-166.116-15.435-327.273 61.671-419.484 200.7-92.21 139.035-100.552 317.494-21.713 464.521 7.789 13.736 25.126 18.734 39.035 11.251 13.904-7.483 19.288-24.706 12.116-38.773a395.573 395.573 0 0 1-46.893-186.816c0-217.736 177.141-394.892 394.892-394.892 217.746 0 394.887 177.146 394.887 394.882S726.227 907.591 508.491 907.591a392.633 392.633 0 0 1-223.851-69.525c-13.198-8.737-30.965-5.294-39.949 7.736-8.985 13.034-5.882 30.86 6.975 40.092C417.51 999.8 638.599 990.733 794.551 863.616 950.507 736.5 1003.979 521.783 925.855 336.379z m0 0" p-id="2906" fill=""></path></svg>
