<?xml version="1.0" standalone="no"?><!DOCTYPE svg PUBLIC "-//W3C//DTD SVG 1.1//EN" "http://www.w3.org/Graphics/SVG/1.1/DTD/svg11.dtd"><svg t="1545365615071" class="icon" style="" viewBox="0 0 1024 1024" version="1.1" xmlns="http://www.w3.org/2000/svg" p-id="6214" xmlns:xlink="http://www.w3.org/1999/xlink" width="200" height="200"><defs><style type="text/css"></style></defs><path d="M963.57764 839.552795h-108.124224V763.229814h108.124224c19.080745 0 31.801242-12.720497 31.801242-31.801243s-12.720497-31.801242-31.801242-31.801242h-38.161491l19.080745-44.521739c6.360248-19.080745 0-31.801242-19.080745-44.521739-19.080745-6.360248-31.801242 0-38.161491 19.080745l-31.801242 69.962733h-50.881987l-31.801243-63.602484c-6.360248-19.080745-25.440994-25.440994-38.16149-19.080746-19.080745 6.360248-25.440994 25.440994-19.080746 44.52174l19.080746 44.521739h-50.881988c-19.080745 0-31.801242 12.720497-31.801242 31.801242s12.720497 31.801242 31.801242 31.801242h108.124224v76.322981h-108.124224c-19.080745 0-31.801242 12.720497-31.801242 31.801243s12.720497 31.801242 31.801242 31.801242h108.124224v82.68323c0 19.080745 12.720497 31.801242 31.801242 31.801242s31.801242-12.720497 31.801242-31.801242v-82.68323h108.124224c19.080745 0 31.801242-12.720497 31.801242-31.801242 0-25.440994-19.080745-38.161491-31.801242-38.161491z m0 0" p-id="6215" fill=""></path><path d="M562.881988 928.596273h-445.217392c-12.720497 0-19.080745-12.720497-19.080745-19.080745v-826.832298c-6.360248-12.720497 6.360248-19.080745 12.720497-19.080746H830.012422c12.720497 0 19.080745 12.720497 19.080746 19.080746v419.776397c0 19.080745 12.720497 31.801242 31.801242 31.801243s31.801242-12.720497 31.801242-31.801243V82.68323C912.695652 38.161491 874.534161 0 830.012422 0H111.304348C66.782609 0 28.621118 38.161491 28.621118 82.68323v826.832298c0 44.521739 38.161491 82.68323 82.68323 82.68323h445.217391c19.080745 0 31.801242-12.720497 31.801242-31.801242 0-12.720497-12.720497-31.801242-25.440993-31.801243z m0 0" p-id="6216" fill=""></path><path d="M162.186335 489.73913c0 19.080745 12.720497 31.801242 31.801243 31.801243s38.161491-12.720497 38.16149-31.801243c0-6.360248-6.360248-19.080745-12.720497-25.440993 0-6.360248-12.720497-6.360248-19.080745-6.360249-6.360248 0-19.080745 6.360248-25.440994 12.720497-6.360248 0-12.720497 12.720497-12.720497 19.080745zM283.031056 489.73913c0 19.080745 12.720497 31.801242 31.801242 31.801243s31.801242-12.720497 31.801242-31.801243c0-6.360248-6.360248-19.080745-12.720497-25.440993 0-6.360248-6.360248-6.360248-19.080745-6.360249-6.360248 0-19.080745 6.360248-25.440994 12.720497 0 0-6.360248 12.720497-6.360248 19.080745zM403.875776 489.73913c0 19.080745 12.720497 31.801242 31.801243 31.801243s31.801242-12.720497 31.801242-31.801243-12.720497-31.801242-31.801242-31.801242-31.801242 12.720497-31.801243 31.801242z" p-id="6217" fill=""></path><path d="M162.186335 489.73913c0 19.080745 12.720497 31.801242 31.801243 31.801243s38.161491-12.720497 38.16149-31.801243c0-6.360248-6.360248-19.080745-12.720497-25.440993 0-6.360248-12.720497-6.360248-19.080745-6.360249-6.360248 0-19.080745 6.360248-25.440994 12.720497-6.360248 0-12.720497 12.720497-12.720497 19.080745zM283.031056 489.73913c0 19.080745 12.720497 31.801242 31.801242 31.801243s31.801242-12.720497 31.801242-31.801243c0-6.360248-6.360248-19.080745-12.720497-25.440993 0-6.360248-6.360248-6.360248-19.080745-6.360249-6.360248 0-19.080745 6.360248-25.440994 12.720497 0 0-6.360248 12.720497-6.360248 19.080745zM403.875776 489.73913c0 19.080745 12.720497 31.801242 31.801243 31.801243s31.801242-12.720497 31.801242-31.801243-12.720497-31.801242-31.801242-31.801242-31.801242 12.720497-31.801243 31.801242z" p-id="6218" fill=""></path><path d="M162.186335 489.73913c0 19.080745 12.720497 31.801242 31.801243 31.801243s38.161491-12.720497 38.16149-31.801243c0-6.360248-6.360248-19.080745-12.720497-25.440993 0-6.360248-12.720497-6.360248-19.080745-6.360249-6.360248 0-19.080745 6.360248-25.440994 12.720497-6.360248 0-12.720497 12.720497-12.720497 19.080745zM283.031056 489.73913c0 19.080745 12.720497 31.801242 31.801242 31.801243s31.801242-12.720497 31.801242-31.801243c0-6.360248-6.360248-19.080745-12.720497-25.440993 0-6.360248-6.360248-6.360248-19.080745-6.360249-6.360248 0-19.080745 6.360248-25.440994 12.720497 0 0-6.360248 12.720497-6.360248 19.080745zM403.875776 489.73913c0 19.080745 12.720497 31.801242 31.801243 31.801243s31.801242-12.720497 31.801242-31.801243-12.720497-31.801242-31.801242-31.801242-31.801242 12.720497-31.801243 31.801242zM162.186335 623.304348c0 19.080745 12.720497 31.801242 31.801243 31.801242s31.801242-12.720497 31.801242-31.801242c0-6.360248-6.360248-19.080745-12.720497-25.440994 6.360248-6.360248-6.360248-12.720497-12.720497-12.720497s-19.080745 6.360248-25.440994 12.720497c-6.360248 6.360248-12.720497 12.720497-12.720497 25.440994zM283.031056 623.304348c0 19.080745 12.720497 31.801242 31.801242 31.801242s31.801242-12.720497 31.801242-31.801242c0-6.360248-6.360248-19.080745-12.720497-25.440994 0-6.360248-6.360248-12.720497-19.080745-12.720497-6.360248 0-19.080745 6.360248-25.440994 12.720497 0 6.360248-6.360248 12.720497-6.360248 25.440994zM403.875776 623.304348c0 19.080745 12.720497 31.801242 31.801243 31.801242s31.801242-12.720497 31.801242-31.801242-12.720497-31.801242-31.801242-31.801242c-19.080745-6.360248-31.801242 12.720497-31.801243 31.801242z" p-id="6219" fill=""></path><path d="M162.186335 623.304348c0 19.080745 12.720497 31.801242 31.801243 31.801242s31.801242-12.720497 31.801242-31.801242c0-6.360248-6.360248-19.080745-12.720497-25.440994 6.360248-6.360248-6.360248-12.720497-12.720497-12.720497s-19.080745 6.360248-25.440994 12.720497c-6.360248 6.360248-12.720497 12.720497-12.720497 25.440994zM283.031056 623.304348c0 19.080745 12.720497 31.801242 31.801242 31.801242s31.801242-12.720497 31.801242-31.801242c0-6.360248-6.360248-19.080745-12.720497-25.440994 0-6.360248-6.360248-12.720497-19.080745-12.720497-6.360248 0-19.080745 6.360248-25.440994 12.720497 0 6.360248-6.360248 12.720497-6.360248 25.440994zM403.875776 623.304348c0 19.080745 12.720497 31.801242 31.801243 31.801242s31.801242-12.720497 31.801242-31.801242-12.720497-31.801242-31.801242-31.801242c-19.080745-6.360248-31.801242 12.720497-31.801243 31.801242z" p-id="6220" fill=""></path><path d="M162.186335 623.304348c0 19.080745 12.720497 31.801242 31.801243 31.801242s31.801242-12.720497 31.801242-31.801242c0-6.360248-6.360248-19.080745-12.720497-25.440994 6.360248-6.360248-6.360248-12.720497-12.720497-12.720497s-19.080745 6.360248-25.440994 12.720497c-6.360248 6.360248-12.720497 12.720497-12.720497 25.440994zM283.031056 623.304348c0 19.080745 12.720497 31.801242 31.801242 31.801242s31.801242-12.720497 31.801242-31.801242c0-6.360248-6.360248-19.080745-12.720497-25.440994 0-6.360248-6.360248-12.720497-19.080745-12.720497-6.360248 0-19.080745 6.360248-25.440994 12.720497 0 6.360248-6.360248 12.720497-6.360248 25.440994zM403.875776 623.304348c0 19.080745 12.720497 31.801242 31.801243 31.801242s31.801242-12.720497 31.801242-31.801242-12.720497-31.801242-31.801242-31.801242c-19.080745-6.360248-31.801242 12.720497-31.801243 31.801242zM747.329193 146.285714H193.987578c-19.080745 0-31.801242 12.720497-31.801243 31.801243 0 12.720497 12.720497 31.801242 31.801243 31.801242h553.341615c19.080745 0 31.801242-12.720497 31.801242-31.801242s-19.080745-31.801242-31.801242-31.801243zM779.130435 330.732919c0-19.080745-12.720497-31.801242-31.801242-31.801242H193.987578c-19.080745 0-31.801242 12.720497-31.801243 31.801242s12.720497 31.801242 31.801243 31.801242h553.341615c12.720497 0 31.801242-19.080745 31.801242-31.801242zM162.186335 489.73913c0 19.080745 12.720497 31.801242 31.801243 31.801243s38.161491-12.720497 38.16149-31.801243c0-6.360248-6.360248-19.080745-12.720497-25.440993 0-6.360248-12.720497-6.360248-19.080745-6.360249-6.360248 0-19.080745 6.360248-25.440994 12.720497-6.360248 0-12.720497 12.720497-12.720497 19.080745zM283.031056 489.73913c0 19.080745 12.720497 31.801242 31.801242 31.801243s31.801242-12.720497 31.801242-31.801243c0-6.360248-6.360248-19.080745-12.720497-25.440993 0-6.360248-6.360248-6.360248-19.080745-6.360249-6.360248 0-19.080745 6.360248-25.440994 12.720497 0 0-6.360248 12.720497-6.360248 19.080745zM403.875776 489.73913c0 19.080745 12.720497 31.801242 31.801243 31.801243s31.801242-12.720497 31.801242-31.801243-12.720497-31.801242-31.801242-31.801242-31.801242 12.720497-31.801243 31.801242z" p-id="6221" fill=""></path><path d="M162.186335 623.304348c0 19.080745 12.720497 31.801242 31.801243 31.801242s31.801242-12.720497 31.801242-31.801242c0-6.360248-6.360248-19.080745-12.720497-25.440994 6.360248-6.360248-6.360248-12.720497-12.720497-12.720497s-19.080745 6.360248-25.440994 12.720497c-6.360248 6.360248-12.720497 12.720497-12.720497 25.440994zM283.031056 623.304348c0 19.080745 12.720497 31.801242 31.801242 31.801242s31.801242-12.720497 31.801242-31.801242c0-6.360248-6.360248-19.080745-12.720497-25.440994 0-6.360248-6.360248-12.720497-19.080745-12.720497-6.360248 0-19.080745 6.360248-25.440994 12.720497 0 6.360248-6.360248 12.720497-6.360248 25.440994zM403.875776 623.304348c0 19.080745 12.720497 31.801242 31.801243 31.801242s31.801242-12.720497 31.801242-31.801242-12.720497-31.801242-31.801242-31.801242c-19.080745-6.360248-31.801242 12.720497-31.801243 31.801242z" p-id="6222" fill=""></path></svg>
