<?xml version="1.0" standalone="no"?><!DOCTYPE svg PUBLIC "-//W3C//DTD SVG 1.1//EN" "http://www.w3.org/Graphics/SVG/1.1/DTD/svg11.dtd"><svg t="1545366138805" class="icon" style="" viewBox="0 0 1024 1024" version="1.1" xmlns="http://www.w3.org/2000/svg" p-id="10669" xmlns:xlink="http://www.w3.org/1999/xlink" width="200" height="200"><defs><style type="text/css"></style></defs><path d="M896 1024H128A128 128 0 0 1 0 896V224A128 128 0 0 1 128 96h768a128 128 0 0 1 128 128v672a128 128 0 0 1-128 128zM128 160a64 64 0 0 0-64 64v672a64 64 0 0 0 64 64h768a64 64 0 0 0 64-64V224a64 64 0 0 0-64-64z" fill="" p-id="10670"></path><path d="M352 0q32 0 32 32v192q0 32-32 32t-32-32V32q0-32 32-32zM672 0q32 0 32 32v192q0 32-32 32t-32-32V32q0-32 32-32zM0 320h1024v64H0z m416 151.68l96 184.64 96-184.64h79.36l-117.44 211.2h80V720h-102.4v51.84h101.76v37.76h-102.4v91.52h-69.76V809.6H376v-37.12h101.12v-51.84H376v-37.76h79.36l-117.44-211.2z" fill="" p-id="10671"></path></svg>
