<?xml version="1.0" standalone="no"?><!DOCTYPE svg PUBLIC "-//W3C//DTD SVG 1.1//EN" "http://www.w3.org/Graphics/SVG/1.1/DTD/svg11.dtd"><svg t="1545365399446" class="icon" style="" viewBox="0 0 1024 1024" version="1.1" xmlns="http://www.w3.org/2000/svg" p-id="2602" xmlns:xlink="http://www.w3.org/1999/xlink" width="200" height="200"><defs><style type="text/css"></style></defs><path d="M872.484571 358.692571L804.205714 210.139429a44.836571 44.836571 0 0 0-40.155428-26.624H258.194286a44.397714 44.397714 0 0 0-40.338286 27.062857L151.405714 358.729143a49.664 49.664 0 0 0-4.352 20.333714v434.834286a46.226286 46.226286 0 0 0 44.653715 47.433143h640.512a46.153143 46.153143 0 0 0 44.617142-47.433143V379.611429a48.566857 48.566857 0 0 0-4.388571-20.882286z m-350.354285 82.285715l125.622857 149.796571a12.690286 12.690286 0 0 1-10.971429 20.333714h-70.912a13.165714 13.165714 0 0 0-13.531428 12.653715v128.219428a13.019429 13.019429 0 0 1-3.913143 9.069715 12.690286 12.690286 0 0 1-9.142857 3.584h-54.784a13.165714 13.165714 0 0 1-13.531429-12.653715v-128.292571a12.690286 12.690286 0 0 0-3.949714-9.069714 12.690286 12.690286 0 0 0-9.142857-3.584h-71.424a12.580571 12.580571 0 0 1-10.459429-20.406858l125.147429-149.796571a13.897143 13.897143 0 0 1 10.459428-4.827429 14.262857 14.262857 0 0 1 10.532572 4.973715z m270.372571-83.273143H227.913143a10.166857 10.166857 0 0 1-8.630857-14.628572l49.444571-105.289142a9.362286 9.362286 0 0 1 8.594286-5.705143h465.700571c3.766857 0 7.094857 2.267429 8.557715 5.705143l49.481142 105.325714a10.24 10.24 0 0 1-0.585142 9.472 10.24 10.24 0 0 1-7.972572 5.12z" p-id="2603" fill=""></path></svg>
