<?xml version="1.0" standalone="no"?><!DOCTYPE svg PUBLIC "-//W3C//DTD SVG 1.1//EN" "http://www.w3.org/Graphics/SVG/1.1/DTD/svg11.dtd"><svg t="1545365690229" class="icon" style="" viewBox="0 0 1024 1024" version="1.1" xmlns="http://www.w3.org/2000/svg" p-id="6512" xmlns:xlink="http://www.w3.org/1999/xlink" width="200" height="200"><defs><style type="text/css"></style></defs><path d="M819.456 202.848a385.984 385.984 0 0 1 88.576 182.144c19.68 103.232-2.304 208.672-61.824 296.864s-149.536 148.64-253.44 170.112a395.008 395.008 0 0 1-207.424-12.576 390.24 390.24 0 0 1-165.952-110.816l-0.352-0.416a386.112 386.112 0 0 1-88.576-182.176 380.48 380.48 0 0 1-6.976-73.6c0-22.144 1.824-43.84 5.376-64.96l-0.32 2.304A398.336 398.336 0 0 1 172.16 282.304l-1.056 2.08 2.624-4.864-40.384-30.752 129.44-45.664-1.568 134.88-41.184-29.472-3.424 6.72c-36.512 71.744-49.088 150.624-35.488 222.112a329.184 329.184 0 0 0 76.16 155.584l-0.32-0.352c81.184 92.608 207.008 134.496 328.416 109.408 185.216-38.336 307.04-221.024 271.552-407.264a329.344 329.344 0 0 0-75.904-155.648l0.32 0.384c-78.528-89.568-223.008-130.848-341.92-108.576l-10.176-53.024c67.552-12.832 159.648-8.096 223.872 13.856a390.528 390.528 0 0 1 165.952 110.816l0.352 0.416h0.032z m-139.616 68.672l-116.736 198.56h91.968v43.872h-107.168v60.48h107.168v44.448h-107.168v88.032h-55.136V618.88h-111.104v-44.448h111.104v-60.48h-111.104V470.08h94.784l-115.584-198.56h62.176c54.016 98.624 86.816 161.152 98.432 187.584h1.12c3.936-10.88 14.72-32.832 32.352-65.824l66.112-121.792h58.784z" p-id="6513" fill=""></path></svg>
