<?xml version="1.0" standalone="no"?><!DOCTYPE svg PUBLIC "-//W3C//DTD SVG 1.1//EN" "http://www.w3.org/Graphics/SVG/1.1/DTD/svg11.dtd"><svg t="1545365327376" class="icon" style="" viewBox="0 0 1024 1024" version="1.1" xmlns="http://www.w3.org/2000/svg" p-id="1776" xmlns:xlink="http://www.w3.org/1999/xlink" width="200" height="200"><defs><style type="text/css"></style></defs><path d="M494.9 375.9h-262v-30c0-11 9-20 20-20h221.9c11 0 20 9 20 20v30h0.1zM775 539.8H232.9v-30c0-11 9-20 20-20H755c11 0 20 9 20 20v30zM775 713.8H232.9v-30c0-11 9-20 20-20H755c11 0 20 9 20 20v30z" fill="" p-id="1777"></path><path d="M866.8 882.3L789 804.5c-9.8-9.8-9.8-25.6 0-35.4 9.8-9.8 25.6-9.8 35.4 0l77.8 77.8c9.8 9.8 9.8 25.6 0 35.4-9.8 9.8-25.6 9.8-35.4 0z" fill="" p-id="1778"></path><path d="M866.9 847l-77.8 77.8c-9.8 9.8-9.8 25.6 0 35.4 9.8 9.8 25.6 9.8 35.4 0l77.8-77.8c9.8-9.8 9.8-25.6 0-35.4-9.8-9.7-25.6-9.7-35.4 0zM592.2 862.7c0-13.8 11.2-25 25-25h170c13.8 0 25 11.2 25 25s-11.2 25-25 25h-170c-13.8 0-25-11.2-25-25z" fill="" p-id="1779"></path><path d="M910 330c0-0.1-0.1-0.2-0.1-0.3l-0.9-1.5c-0.1-0.1-0.1-0.2-0.2-0.3-0.3-0.4-0.6-0.8-0.8-1.2-0.1-0.1-0.2-0.2-0.3-0.4-0.3-0.4-0.7-0.9-1.1-1.3l-0.3-0.3c-0.4-0.4-0.8-0.9-1.3-1.3L625.7 61.2c-2.3-2.2-5-3.9-7.9-5-0.2-0.1-0.4-0.1-0.5-0.2-0.5-0.2-0.9-0.3-1.4-0.5l-0.9-0.3c-0.3-0.1-0.6-0.2-1-0.2-1.5-0.3-3-0.5-4.5-0.6H165.6c-34.6 0-62.7 28.1-62.7 62.7v784.6c0 34.6 28.1 62.7 62.7 62.7h404v-50H152.9v-810h430.7v199.5c0 34.6 28.1 62.7 62.7 62.7h216.6v371.5h50V341.6c0-4.1-1-8.1-2.9-11.6z m-276.5-13.4V137.2l191.2 179.4H633.5z" fill="" p-id="1780"></path></svg>
