<?xml version="1.0" standalone="no"?><!DOCTYPE svg PUBLIC "-//W3C//DTD SVG 1.1//EN" "http://www.w3.org/Graphics/SVG/1.1/DTD/svg11.dtd"><svg class="icon" width="200px" height="200.00px" viewBox="0 0 1024 1024" version="1.1" xmlns="http://www.w3.org/2000/svg"><path d="M213.333333 337.066667L149.333333 273.066667 213.333333 213.333333l85.333334 85.333334h554.666666v341.333333H298.666667v42.666667h554.666666v85.333333H213.333333V337.066667zM298.666667 853.333333c-25.6 0-42.666667-17.066667-42.666667-42.666666s17.066667-42.666667 42.666667-42.666667 42.666667 17.066667 42.666666 42.666667-17.066667 42.666667-42.666666 42.666666z m469.333333 0c-25.6 0-42.666667-17.066667-42.666667-42.666666s17.066667-42.666667 42.666667-42.666667 42.666667 17.066667 42.666667 42.666667-17.066667 42.666667-42.666667 42.666666zM298.666667 384v170.666667h469.333333V384H298.666667z"  /></svg>