<svg id="图层_1" data-name="图层 1" xmlns="http://www.w3.org/2000/svg" viewBox="0 0 200 200">
  <title>菜单管理</title>
  <g>
    <path d="M26,100.75q0-36.23,0-72.47c0-13,8.13-21.1,21.22-21.11q53.73,0,107.45,0c13,0,21.27,8.08,21.3,21.14.08,42,0,84,.07,125.95,0,4-1.12,6.92-4.29,9.5-11.37,9.24-22.59,18.67-33.8,28.1a11.43,11.43,0,0,1-7.7,2.9c-28.15,0-56.31.27-84.46,0-12.32-.13-19.77-8.55-19.79-21Q26,137.23,26,100.75Zm12.51-.15q0,14.75,0,29.5c0,14.5-.06,29,0,43.5,0,6.3,2.28,8.54,8.4,8.55,25.16,0,50.33,0,75.49.08,2.75,0,3.77-.6,3.64-3.52-.23-5.32-.2-10.67,0-16a18.37,18.37,0,0,1,18-17.81c5-.15,10-.25,15,0,3.36.17,4.57-.69,4.56-4.33-.13-37-.06-74-.1-111,0-7.79-2-9.73-9.78-9.74q-52.5,0-105,0c-8.48,0-10.19,1.71-10.19,10.27Q38.49,65.35,38.51,100.6Zm121.58,56.56h-6.45c-15.19,0-16.15,1-15.08,16.05,0,.28.29.54.74,1.33Z"/>
    <path d="M160.09,157.16l-20.79,17.38c-.45-.79-.72-1-.74-1.33-1.08-15-.12-16.06,15.08-16.05Z" style=""/>
    <path d="M100.51,63.51c-13.16,0-26.33,0-39.49,0A25.87,25.87,0,0,1,55.57,63c-3-.66-4.43-2.8-4.51-5.79a5.41,5.41,0,0,1,4-5.66,18.4,18.4,0,0,1,5.4-.57q40.49,0,81,0a18.64,18.64,0,0,1,5.41.56,5.43,5.43,0,0,1,4.06,5.64c-.06,3-1.5,5.14-4.48,5.81a25.31,25.31,0,0,1-5.45.46C127.5,63.53,114,63.51,100.51,63.51Z" style=""/>
    <path d="M101,94.84c14.16,0,28.32,0,42.48,0,3.31,0,6,1,7.23,4.18.92,2.38,0,4.65-1.68,6.44-1.91,2.06-4.55,1.73-7,1.73H83.51c-8.33,0-16.66-.06-25,0-4.34,0-7.07-1.77-7.45-6.23-.32-3.71,2.52-6.07,7.44-6.1C72.67,94.79,86.83,94.84,101,94.84Z"/>
    <path d="M82.2,151c-7.65,0-15.3,0-23,0-5.25,0-8.06-2.15-8.19-6s2.58-6.42,7.76-6.45q23.45-.14,46.9,0c5.26,0,7.87,2.38,7.56,6.5-.35,4.65-3.47,6-7.62,6C97.84,151,90,151,82.2,151Z" style=""/>
  </g>
</svg>
