<svg id="图层_1" data-name="图层 1" xmlns="http://www.w3.org/2000/svg" viewBox="0 0 201.1 201.07">
  <title>系统</title>
  <path d="M71.89,157c-2,0-3.47,1-5,2.05q-7.06,4.69-14.09,9.43c-3.24,2.19-6.12,2-8.89-.91-3.09-3.26-6.29-6.44-9.54-9.54-2.9-2.77-3.08-5.64-.86-8.88,3.1-4.53,6.19-9.06,9.16-13.68a11.46,11.46,0,0,0-7.44-17.55c-5.05-1-10.08-2.12-15.15-3-4.46-.79-6.74-3.16-6.61-7.81.11-4,.15-8,0-12-.2-4.94,2.27-7.26,6.91-8C25.62,86.18,30.83,85.13,36,84c6.79-1.49,10.79-10.57,7.18-16.5-2.94-4.82-6.07-9.54-9.35-14.14-2.73-3.83-2.32-6.93,1.16-10a88.12,88.12,0,0,0,8.11-8.14c3.43-4,6.83-3.91,10.86-.95s8.24,5.61,12.41,8.36A11.48,11.48,0,0,0,84,35.35c1-4.88,2-9.77,3-14.66,1.21-6,2.56-7.09,8.76-7.18,3.83-.05,7.67.08,11.5,0,4.43-.12,6.76,2,7.55,6.28,1,5.23,2,10.44,3.1,15.65a11.41,11.41,0,0,0,17.64,7.23c4.45-2.92,8.91-5.82,13.26-8.88,3.62-2.54,6.64-2.24,9.65,1.06S164.53,41,167.65,44c2.87,2.77,3,5.65.79,8.9-3.2,4.66-6.4,9.32-9.41,14.1-4,6.4-.05,15.54,7.29,17,5.21,1,10.42,2.12,15.65,3.07,4.44.81,6.7,3.22,6.56,7.86-.12,4-.14,8,0,12,.18,4.95-2.34,7.23-7,8-5.24.88-10.45,2-15.65,3.06-6.71,1.4-10.76,10.56-7.16,16.46,2.94,4.82,6.08,9.53,9.35,14.14,2.54,3.57,2.54,6.61-.75,9.68s-6.23,6-9.18,9.19-5.89,3.16-9.28.82q-7-4.81-14.12-9.39C128.71,155,119.46,159,118,166c-1.08,5.2-2.17,10.41-3.06,15.65-.79,4.66-3.15,7.08-8.07,6.89-4-.16-8-.13-12,0-4.69.15-7-2.24-7.79-6.63-.9-4.9-1.93-9.78-2.94-14.66C83,161.64,77.41,157,71.89,157Zm66.56-55.45c.67-20.16-16.13-37.47-36.92-38.06-19.76-.55-37.17,15.93-38,36-.86,21.1,15.84,38.52,37.43,39C120.77,139,137.77,122.23,138.46,101.56Z"/>
</svg>
