<svg id="图层_1" data-name="图层 1" xmlns="http://www.w3.org/2000/svg" viewBox="0 0 200 200">
  <title>用户管理</title>
  <path d="M100.74,193.94c-20.29.25-40.67.79-60.65-3.85A40,40,0,0,1,28.92,186c-5.81-3.37-7.28-7.5-5-13.91,2-5.82,6.29-9.71,11.28-12.91,10.28-6.59,21.9-9.4,33.67-11.8,1.38-.28,3.92.66,4-1.84s1.29-5.42-1.18-7.53c-10.84-9.27-18.07-21-24.49-33.6-3.24-6.38-8.28-11.85-10.39-19C34.46,77.56,35,70.53,40.89,64.54c1.71-1.74,1.7-3.87,2.08-6,4.3-23.7,15.91-41.68,40.11-48.65,30.35-8.73,67.78,2.14,75.78,47.38.51,2.88,1.19,5.3,3.24,7.55a17.12,17.12,0,0,1,4.38,13.89c-1.21,9.65-3.29,19.09-11.34,25.8-1.23,1-1.57,2.5-2.19,3.84-5.16,11.18-12,21.16-21.5,29.06-3,2.47-2.57,5.26-2.23,8s3.27,1.74,4.93,2.07c10.49,2.06,20.73,4.77,30.14,10,5,2.8,9.49,6.23,12.42,11.29,4.77,8.25,2.83,14.25-5.85,18.23-8.14,3.73-16.94,4.71-25.68,5.8a108.2,108.2,0,0,1-12,1C122.4,194,111.57,193.94,100.74,193.94ZM35.5,175.68c1.85.61,3.08,1.12,4.35,1.41,3.08.7,6.15,1.48,9.27,1.92,29.85,4.16,59.8,3.85,89.76,1.72,7.78-.55,15.59-1.39,23.15-3.59,1.38-.4,3.39-.35,3.65-1.86s-1.41-2.51-2.54-3.47a40,40,0,0,0-12.2-6.66,111.21,111.21,0,0,0-25.63-6.2c-7.17-.9-8.58-2.44-8.62-9.48,0-4,.06-8,0-12a7.78,7.78,0,0,1,3.4-6.79c10.46-8,17.73-18.36,22.74-30.42.71-1.7,1.22-3.59,2.85-4.58,6.75-4.08,7.08-11.16,8.33-17.75a6.2,6.2,0,0,0-2.93-6.48c-2.83-1.87-3.58-4.61-3.95-7.68-.3-2.47-.65-4.95-1.15-7.39C141.54,34.9,126.35,21,106.14,20c-24.78-1.29-41.5,9.41-48.6,31.18a60.18,60.18,0,0,0-2.75,13.15c-.23,2.45-.17,5.34-2.49,6.81-5.54,3.51-5.23,8.27-2.64,13q8.27,15.17,17.28,29.93c2.23,3.66,4.77,7.73,8.23,9.92,10,6.32,11.16,15.42,10.23,25.88-.57,6.41-1.66,8.23-8.11,9a104.58,104.58,0,0,0-20.47,4.31C49.14,165.71,41.23,168.06,35.5,175.68Z"/>
</svg>
