<svg id="图层_1" data-name="图层 1" xmlns="http://www.w3.org/2000/svg" viewBox="0 0 200 200">
  <title>角色权限</title>
  <g>
    <path d="M56.59,139.92c-10.26-8.21-16.54-18.06-23-28-4.36-6.7-9.27-12.82-11.37-20.7-1.8-6.76-1.58-13.13,2.64-19.05C27,69.13,26.43,65.42,27,62c4-25.57,20.64-43.3,45-47.69,33.25-6,61.22,14.27,66,47.9.52,3.64,1.37,6.89,3.72,10,3.24,4.3,3.67,9.49,2.36,14.79-1.74,7-4,13.74-9.57,18.8a7.16,7.16,0,0,0-1.61,2.45,83.47,83.47,0,0,1-23.46,31.35c1.78.53,3.12.84,4.4,1.32,3.21,1.19,4.86,3.49,4.33,6.94s-2.88,5.31-6.3,5c-4-.32-7.9-1.07-11.82-1.75-2.38-.41-3.67-2.16-4.47-4.28a14.13,14.13,0,0,1,4.46-16,68.51,68.51,0,0,0,21.57-28.23c1-2.34,2-4.51,4.19-6,3.59-2.44,4.19-6.57,5.59-10.28,1.67-4.42.08-7.51-3.16-10.57-2.44-2.3-1.76-5.93-2.19-9-1.82-13.1-6-25-17.32-33C82.58,15.24,47.32,29,40.11,60.4a89,89,0,0,0-1.54,10.36c-.34,3.19-.79,6.16-3.37,8.56-2.22,2.06-1.76,5-1.06,7.56,1.49,5.41,2.69,11,7.94,14.5,1.26.84,2,2.62,2.71,4.1C50,116.17,57.1,125.21,67,131.94c5.43,3.7,3.92,9.17,3.37,14.09-.53,4.71-4.59,5.4-8.62,5.91-12.09,1.54-24,3.89-34.32,10.94-2.19,1.49-5.49,3.09-5.09,5.58.35,2.17,4,2.21,6.43,2.69,20.89,4.17,42.06,4.07,63.22,4A158.25,158.25,0,0,0,113.42,174c4-.57,6.56,1.23,7.35,5s-1.32,6-4.73,7.11a9.16,9.16,0,0,1-2.38.66c-29.31,1.36-58.61,2.28-87.61-3.66a49.51,49.51,0,0,1-6.7-1.86c-11.47-4.1-13.76-11.54-6.68-21.57,3.58-5.07,8.76-8.07,14.1-10.83C35.87,144.2,45.74,141.92,56.59,139.92Z"/>
    <path d="M170,82.18c3.83,0,7.66-.14,11.49,0s6.85,1.94,6.82,6.33-3,6.1-6.91,6.24c-4.66.17-9.33.21-14,0-2.92-.14-4,.5-4,3.76.07,8.63-.12,8.63,8.55,8.63,3.33,0,6.67-.16,10,.09,3.74.28,6.38,2.16,6.37,6.26s-2.66,6-6.39,6.23a98.76,98.76,0,0,1-14,0c-4-.35-5,1.23-4.46,4.76a6.3,6.3,0,0,1,0,2c-.77,4.55.8,6.83,5.47,8.68,12.13,4.82,18.63,18.43,15.8,31.14-3,13.46-15.1,22.57-29.32,22-12.79-.46-23.5-10.4-26-24.09-2.15-11.86,5.69-25.73,17.5-29.9,3.36-1.19,4.18-2.59,4.12-5.89-.2-12.32-.09-24.64-.08-37,0-7.46,1.89-9.3,9.51-9.34,3.16,0,6.33,0,9.49,0ZM157.17,176a15.56,15.56,0,0,0,.41-31.12,15.56,15.56,0,1,0-.41,31.12Z"/>
  </g>
</svg>
