<svg id="图层_1" data-name="图层 1" xmlns="http://www.w3.org/2000/svg" viewBox="0 0 200 200">
  <title>在线管理</title>
  <g>
    <path d="M19.83,101q0-36.23,0-72.46c0-10.36,4.52-15,14.83-15q66.22-.07,132.43,0c10.62,0,15.06,4.57,15.06,15.29q0,72.21,0,144.43c0,10.71-4.45,15.26-15.08,15.27q-66,.05-131.93,0C24.2,188.49,19.84,184,19.84,173Q19.82,137,19.83,101ZM101,176c21.49,0,43-.08,64.48.08,3.46,0,4.94-.8,4.35-4.36a9.68,9.68,0,0,1,0-3c.45-3-.57-4.16-3.77-4-4.48.28-9,.14-13.49,0-4-.08-7.38-1.22-7.66-6-.23-3.93,2.76-6.51,7.66-6.62s9.67-.16,14.49,0c2.8.11,2.71-1.43,2.8-3.43.1-2.23-.71-2.88-2.86-2.82-4.83.12-9.66,0-14.49,0-4.16,0-7.26-1.36-7.62-6-.3-3.85,2.65-6.34,7.7-6.47,4.5-.11,9-.15,13.49,0,2.69.1,3.79-.58,3.78-3.57q-.15-50.23,0-100.47c0-2.9-.89-3.57-3.66-3.56q-65.23.12-130.46,0c-2.74,0-3.69.62-3.68,3.54q.15,50.23,0,100.47c0,3,1,3.69,3.76,3.58,4.49-.17,9-.14,13.49,0,5,.13,8,2.63,7.71,6.47-.36,4.66-3.47,6-7.62,6-4.67,0-9.33.05-14,0-2.06,0-3.41.07-3.38,2.83,0,2.58.69,3.53,3.36,3.41,4.66-.19,9.33-.14,14,0,4.88.12,7.87,2.74,7.62,6.67-.31,4.79-3.73,5.87-7.7,6a104.94,104.94,0,0,1-13-.06c-5.6-.58-4,3.22-4.2,6-.27,3.25-.28,5.4,4.41,5.34C58.05,175.83,79.55,176,101,176Z"/>
    <path d="M101.25,32.16c19.31,0,38.63.09,57.94-.08,3.56,0,4.41,1,4.39,4.46q-.2,42.71,0,85.41c0,3.26-.84,4.13-4.13,4.12q-58.44-.18-116.88,0c-3.28,0-4.16-.84-4.14-4.11q.19-42.71,0-85.41c0-3.43.82-4.5,4.39-4.47C62.28,32.26,81.77,32.16,101.25,32.16ZM101,113.49c15.48,0,31-.08,46.45.07,2.85,0,3.6-.75,3.59-3.58q-.18-30.72,0-61.44c0-3.19-.93-3.78-3.9-3.77q-46.2.17-92.41,0c-3.06,0-3.87.72-3.85,3.83q.23,30.47,0,60.94c0,3.36,1,4.07,4.15,4C70.39,113.41,85.71,113.49,101,113.49Z"/>
  </g>
</svg>
