<svg id="图层_1" data-name="图层 1" xmlns="http://www.w3.org/2000/svg" viewBox="0 0 200 200">
  <title>自定义主页</title>
  <path d="M107.36,58C119,47,130.51,36.14,142,25.29c10.86-10.28,21.3-10.18,31.85.34,2,2,4,4,6,6,9.21,9.63,8.94,21.11-.71,30.3C168,72.52,157,83.15,145.72,93.55c-2.5,2.31-2.15,3.46,0,5.69,11.64,12.15,23.11,24.45,34.63,36.71,7.21,7.67,7.17,14.24-.18,21.62q-11.64,11.68-23.32,23.32c-7.39,7.35-14.4,7.33-21.48-.19C123.7,168.33,112,156,100.62,143.4c-2.67-2.93-4.1-3.53-7.19-.39-8.65,8.77-17.81,17-26.6,25.68a31.32,31.32,0,0,1-14,8.12c-6.73,1.83-13.39,3.92-20.13,5.71-9.15,2.43-17.56-4.85-15.87-14.08,1.58-8.65,3.87-17.17,5.9-25.73,1-4.37,3.69-7.74,6.88-10.76C39,123,48.35,114,57.91,105.2c2.64-2.43,3.39-3.82.45-6.84C48,87.77,38,76.85,27.87,66c-7.3-7.85-7.18-14.16.28-21.66S43,29.48,50.41,22.07c8.6-8.59,15.07-8.58,23.3.13C84.91,34.06,96.07,46,107.36,58Zm-63,77.25C50,141,55.52,146.51,60.93,152.17c1.63,1.71,2.69,2.21,4.75.25Q106.93,113.1,148.39,74c1.67-1.58,2-2.49.12-4.25Q140.84,62.58,133.6,55c-1.82-1.91-2.9-1.84-4.69-.05-4.71,4.71-9.6,9.25-14.43,13.84Zm68.89,3.54c3.9-3.73,7.55-7.37,11.36-10.84,2.92-2.66,6.28-2.67,8.92.12s2.46,6.11-.28,8.94a100.16,100.16,0,0,1-9.34,9c-2,1.61-1.95,2.32-.31,4,6.81,7.09,13.55,14.24,20.15,21.52,1.86,2,2.9,1.79,4.69-.05q11-11.28,22.27-22.25c2-2,2-3,0-5q-17.38-18.3-34.43-36.91c-1.9-2.07-2.95-2.28-5-.22-5.89,5.89-12,11.52-18,17.28C106,131.38,106,131.39,113.3,138.76Zm-43-45.34c8.89-8.46,17.37-16.65,26-24.66,1.94-1.8,1.39-2.7-.11-4.28Q80.27,47.61,64.52,30.57c-1.73-1.88-2.75-2.15-4.64-.2-7.55,7.74-15.23,15.35-22.91,23-1.31,1.3-2,2.17-.3,3.9C41.41,62,45.93,67,50.6,72c2.93-5,7.14-8.34,10.87-12.1,3.29-3.32,7.09-3.44,9.64-.55,2.88,3.27,2.08,6.55-.74,9.29-3.93,3.84-7.4,8.21-12.5,10.95,3.89,4.21,7.51,8.1,11.1,12A20.16,20.16,0,0,1,70.29,93.42ZM157.85,30c-3.93.13-6.08,3.14-8.57,5.49-2.87,2.71-7.52,5.45-7.79,8.5-.29,3.24,4.72,5.88,7.58,8.59,3.61,3.42,6.69,10.07,10.93,9.44s7.59-6.44,11.34-10a6.79,6.79,0,0,0,.66-.75c2.77-3.53,2.85-7-.4-10.24-2.93-2.95-5.92-5.84-8.92-8.73A6.74,6.74,0,0,0,157.85,30ZM34.92,144.62l-6.05,26,25-7.3Z"/>
</svg>
