<?xml version="1.0" standalone="no"?><!DOCTYPE svg PUBLIC "-//W3C//DTD SVG 1.1//EN" "http://www.w3.org/Graphics/SVG/1.1/DTD/svg11.dtd"><svg t="1554263894075" class="icon" style="" viewBox="0 0 1024 1024" version="1.1" xmlns="http://www.w3.org/2000/svg" p-id="858" xmlns:xlink="http://www.w3.org/1999/xlink" width="200" height="200"><defs><style type="text/css"></style></defs><path d="M512 1024C229.2224 1024 0 794.7776 0 512S229.2224 0 512 0s512 229.2224 512 512-229.2224 512-512 512z m0-998.4C243.3792 25.6 25.6 243.3792 25.6 512s217.7792 486.4 486.4 486.4 486.4-217.7792 486.4-486.4S780.6208 25.6 512 25.6z" fill="" p-id="859"></path><path d="M512 1024C229.2224 1024 0 794.7776 0 512S229.2224 0 512 0s512 229.2224 512 512-229.2224 512-512 512z m0-998.4C243.3792 25.6 25.6 243.3792 25.6 512s217.7792 486.4 486.4 486.4 486.4-217.7792 486.4-486.4S780.6208 25.6 512 25.6z" fill="" p-id="860"></path><path d="M812.3136 465.8176l-242.7648-188.5696c-35.456-28.0832-79.616-28.16-114.944-0.1024l-242.8672 188.672c-7.9104 6.0928-9.2416 18.5344-3.0976 26.2912 6.1696 7.808 17.6128 10.2656 25.3696 4.2752l47.1552-36.6336v220.544c0 72.8832 30.9248 113.3056 104.6528 113.3056h254.6944c73.728 0 102.1696-41.9584 102.1696-114.8672v-219.1104l47.3088 36.7616c3.2768 2.56 7.2192 3.7888 11.1616 3.7888a18.7136 18.7136 0 0 0 14.208-7.4496c6.144-7.7568 4.7872-20.8128-3.0464-26.9056zM588.8 755.584h-153.9584v-153.7536H588.8v153.7536z m115.5072-77.3376c0 47.8464-18.3552 77.3376-63.7952 77.3376h-13.2352v-155.4176c-0.0512-1.6128-1.6128-36.48-36.3776-36.48h-158.1568c1.3824 0-36.3776-0.7936-36.3776 36.3008v155.5968h-10.5472c-40.448 0-66.5344-30.72-66.5344-77.0048l-0.0256-248.3968 157.824-122.5984c22.1696-17.5616 47.6672-17.5872 70.0672 0.1024l157.1584 122.1376v248.4224z m-77.0304-78.2592v0z" fill="" p-id="861"></path></svg>
