<svg id="图层_1" data-name="图层 1" xmlns="http://www.w3.org/2000/svg" viewBox="0 0 200 200">
  <title>报表</title>
  <g>
    <path d="M101,24c13.32,0,26.65.09,40-.07,2.84,0,4.42.81,5.84,3.31q19.88,34.82,40.07,69.48c1.48,2.53,1.28,4.35-.13,6.78q-20,34.45-39.79,69.06c-1.5,2.62-3.16,3.55-6.23,3.53q-39.72-.22-79.43,0c-3,0-4.72-.82-6.25-3.52q-19.59-34.41-39.56-68.62c-1.78-3-1.55-5.16.15-8.07q19.84-34,39.31-68.19c1.62-2.86,3.35-3.82,6.61-3.77C74.64,24.12,87.8,24,101,24Zm-.43,144.83c12,0,24-.07,36,.05,2.74,0,4.44-.59,5.91-3.19q17.84-31.4,36.06-62.59c1.37-2.35,1.32-3.94,0-6.25q-18-30.75-35.64-61.68c-1.48-2.59-3-3.76-6.18-3.74q-35.72.21-71.44,0a5.86,5.86,0,0,0-5.86,3.42Q41.48,66,23.41,97c-1.2,2.06-1.47,3.61-.16,5.85q18.32,31.41,36.33,63c1.35,2.37,2.83,3.1,5.48,3.07C76.88,168.75,88.7,168.83,100.53,168.83Z"/>
    <path d="M116.17,54.6c8.8,0,15,9,11.36,17.19-1.31,2.93-1,4.75.7,7.05a83.43,83.43,0,0,1,5.39,8.38c1.68,3,3.67,5,7.35,5.81,4.3.93,6.6,5.58,5.65,9.75a8.89,8.89,0,0,1-9.13,6.92c-4.49-.4-8.86-4.41-7.84-8.63,1.22-5-1.24-8.14-3.59-11.66-1.75-2.63-3.36-5.35-5.16-7.94-2.1-3-4.82-3-6.43.17C107.36,95.72,100.4,109.87,93.32,124c-.89,1.77-.32,3,.52,4.52a11.08,11.08,0,0,1-16.13,14.38,10.58,10.58,0,0,1-3.65-13.25c1.09-2.45.52-4-.78-5.83-1.8-2.59-3.46-5.28-5.11-8-2-3.25-3.81-6.13-8.23-7-4.25-.86-6.21-6.28-4.85-10.64A8.77,8.77,0,0,1,65,92.54c4.57,1,8,5.28,6.72,9.49-1,3.29.11,5.36,1.62,7.73,2.32,3.64,4.54,7.35,6.92,11,2.11,3.2,4.55,3.17,6.25-.21,6.95-13.78,13.67-27.68,20.73-41.41,1.33-2.59-.32-3.57-1.34-5.13a11.93,11.93,0,0,1-.73-12.78C107.46,56.9,111.27,54.74,116.17,54.6ZM116.26,72c2.78-.69,5-2.06,4.69-5.3a4.61,4.61,0,0,0-5-4.48,4.46,4.46,0,0,0-4.67,5.16C111.53,70.1,113.31,71.81,116.26,72Z"/>
    <path d="M116.26,72c-2.94-.21-4.72-1.92-4.95-4.61A4.46,4.46,0,0,1,116,62.24a4.61,4.61,0,0,1,5,4.48C121.23,70,119,71.33,116.26,72Z" style=""/>
  </g>
</svg>
