<?xml version="1.0" standalone="no"?><!DOCTYPE svg PUBLIC "-//W3C//DTD SVG 1.1//EN" "http://www.w3.org/Graphics/SVG/1.1/DTD/svg11.dtd"><svg t="1569472235091" class="icon" viewBox="0 0 1025 1024" version="1.1" xmlns="http://www.w3.org/2000/svg" p-id="8143" xmlns:xlink="http://www.w3.org/1999/xlink" width="200.1953125" height="200"><defs><style type="text/css"></style></defs><path d="M606.943539 958.331904H63.888794V63.888794h894.44311v543.054745a31.944397 31.944397 0 0 0 63.888793 0v-574.999142a31.944397 31.944397 0 0 0-31.944397-31.944397H31.944397a31.944397 31.944397 0 0 0-31.944397 31.944397v958.331903a31.944397 31.944397 0 0 0 31.944397 31.944397h574.999142a31.944397 31.944397 0 0 0 0-63.888793z" fill="" p-id="8144"></path><path d="M1013.276266 967.915223l-191.666381-191.666381a244.055191 244.055191 0 0 0 48.555483-145.666449 245.971855 245.971855 0 1 0-244.055191 248.527407 244.055191 244.055191 0 0 0 152.694217-54.944363l191.66638 191.666381a31.944397 31.944397 0 0 0 42.805492-47.916595zM444.027115 633.137944a182.083062 182.083062 0 1 1 182.083062 182.083062 182.72195 182.72195 0 0 1-182.083062-182.083062z" fill="" p-id="8145"></path></svg>
