<svg id="图层_1" data-name="图层 1" xmlns="http://www.w3.org/2000/svg" viewBox="0 0 200 201">
  <title>库存查询</title>
  <g>
    <path d="M140,1c5.53,3,7.15,7.87,6.39,13.76-.44,3.41.7,4.64,4.3,4.49,7-.29,14-.18,21-.06,7.89.13,11.19,3.49,11.2,11.37q0,44.23,0,88.45c0,5.93-2.46,9.07-6.89,9.08s-6.87-3.1-6.88-9.08c0-27.15-.11-54.31.09-81.46,0-4-1.14-5-4.94-4.79a139.33,139.33,0,0,1-14.49,0c-2.59-.09-3.66.69-3.4,3.36a31.52,31.52,0,0,1,0,5.49c-.43,5.54-3.71,9.23-9.17,9.27q-36.23.23-72.46,0c-5.93,0-8.95-4.11-9.14-10.84-.21-7.21-.21-7.21-7.46-7.21-3.83,0-7.68.23-11.49-.07-3.18-.25-3.86.86-3.82,3.88.17,13,.07,26,.07,39,0,35.65.06,71.3-.08,106.94,0,3.6.67,4.71,4.54,4.69q63.72-.24,127.43,0c3.42,0,4.6-.7,4.42-4.3-.32-6.31-.14-12.66-.07-19,.05-5.15,2.51-8.14,6.63-8.28,4.36-.14,7.07,2.93,7.12,8.3.07,8.16-.18,16.33.09,24.49.19,5.75-1.75,10-7,12.54H26c-4.67-2.43-7-6.07-6.95-11.53q.13-79.46.07-158.93c0-7.87,3.3-11.22,11.2-11.35,7-.11,14-.23,21,.06,3.62.15,4.73-1.1,4.29-4.5C54.83,8.85,56.47,4,62,1ZM100.62,37.16c9.65,0,19.3-.08,29,.05,2.59,0,3.47-.69,3.37-3.35-.2-5.32-.17-10.65,0-16,.07-2.42-.73-3.11-3.11-3.1q-28.7.12-57.41,0c-2.59,0-3.47.69-3.37,3.35.2,5.15.21,10.32,0,15.47-.12,2.85.79,3.67,3.62,3.62C82,37.06,91.3,37.16,100.62,37.16Z"/>
    <path d="M132.11,107.77a30.07,30.07,0,0,1-4,16.24c-1.28,2.2-.89,3.42.83,5,5.08,4.8,10,9.73,14.94,14.7,3.8,3.85,4.15,7.9,1.14,10.91-3.2,3.2-6.68,2.87-10.86-1.22-4.87-4.77-9.74-9.56-14.41-14.53-1.9-2-3.31-2.38-5.91-1-13,6.68-25.52,5.41-36.79-3.67C66.16,125.4,62,113.6,65.33,99.94s12.44-22,26-25.33C111.79,69.64,132,86.14,132.11,107.77Zm-34.28,20.4c11.64,0,20.87-8.93,20.93-20.26A20.27,20.27,0,0,0,98.46,87.57c-11.32.06-20.53,9-20.58,20.07C77.84,119.17,86.56,128.16,97.83,128.16Z"/>
  </g>
</svg>
