<svg id="图层_1" data-name="图层 1" xmlns="http://www.w3.org/2000/svg" viewBox="0 0 205.1 201.07">
  <title>任务列表</title>
  <g>
    <path d="M102.82,188.17q-30.73,0-61.46,0c-15.74,0-28-11.22-28.08-27q-.46-60.46,0-120.92c.11-15.31,11.51-26.82,27.11-27,42.13-.38,84.28-.31,126.41-.06,13.43.08,24.43,11.47,25.31,24.93.1,1.49.13,3,.14,4.49,0,38.64-.31,77.29.16,115.92.19,16.1-11.67,30.19-29.63,29.69C142.8,187.74,122.81,188.17,102.82,188.17Zm-.43-12.34q29.74,0,59.47,0c12.1,0,17.23-5.17,17.23-17.36q0-57.23,0-114.45c0-12.64-4.82-17.5-17.42-17.5q-59,0-118,0c-12.15,0-17.37,5.18-17.38,17.3q0,57.48,0,115c0,11.85,5.26,17.05,17.06,17.06Q72.9,175.85,102.39,175.83Z"/>
    <path d="M83.41,127.79c0,11.37-8.64,20.36-19.54,20.37-11.81,0-20.73-8.67-20.81-20.25-.08-11.17,8.69-20.54,19.39-20.73C74.41,107,83.43,115.83,83.41,127.79Zm-13.24-1c0-4.33-2.57-7-6.66-7-4.37.07-7.28,2.93-7.29,7.14a6.77,6.77,0,0,0,6.84,7C67.4,134,70.15,131.25,70.17,126.8Z"/>
    <path d="M129.75,67.49c9.64,0,19.28,0,28.92,0,5,0,7.28,2,7.32,6.1s-2.28,6.21-7.2,6.22c-19.44,0-38.89,0-58.33,0-4.24,0-7.15-1.52-7.34-6.16-.17-4.05,2.27-6.15,7.22-6.19C110.14,67.44,119.95,67.49,129.75,67.49Z" style=""/>
    <path d="M46.77,65.68c3.76.19,5.7,3.4,8.15,5.78,4.86,4.72,4.82,4.77,9.46.09,4.33-4.37,8.63-8.77,13-13.11a9.65,9.65,0,0,1,12.26-1.39c3,1.89,4,5.81,1.39,8.59-8,8.47-16,16.88-24.54,24.79-3,2.82-7.45,2.79-10.85-.57C51,85.3,46.5,80.64,41.94,76c-2-2.06-2.16-4.37-.9-6.85A5.76,5.76,0,0,1,46.77,65.68Z"/>
    <path d="M129,120.83c9.83,0,19.66-.05,29.5,0,5.11,0,7.71,2.37,7.47,6.57-.27,4.81-3.37,5.81-7.59,5.79-18.83-.1-37.66,0-56.49,0-.83,0-1.67,0-2.5,0-4.09-.1-6.2-2.42-6.21-6.29s2.2-6,6.33-6C109.33,120.87,119.17,120.83,129,120.83Z"/>
  </g>
</svg>
