<svg id="图层_1" data-name="图层 1" xmlns="http://www.w3.org/2000/svg" viewBox="0 0 200 200">
  <title>盘点任务执行</title>
  <g>
    <path d="M158.13,60.61c4.55-7.84,9.07-15.7,13.65-23.52,1.71-2.92,3.86-5.35,7.62-3.33s4.08,5.29,2,8.87l-1.25,2.16c-4.81,8.35-9.12,17-14.55,25-6.68,9.75-9,20-8.65,31.78.72,23.64.23,47.32.21,71,0,11.09-4.66,15.92-15.73,15.95q-53.24.11-106.49,0c-10.94,0-15.8-5.06-15.81-16q0-71.49,0-143c0-11.18,4.85-16,16.19-16,35.33,0,70.66.12,106-.11,8.75-.06,16.51,4.61,16,15.84-.51,10.3-.11,20.64-.11,31ZM146,105.88l-.85-.34q-8.78,15.24-17.57,30.47c-3.07,5.32-6.13,10.66-9.29,15.93-1.53,2.55-3.84,3.79-6.77,2.63-2.56-1-4.1-3.08-3.6-5.89a16.21,16.21,0,0,1,2.17-5Q127,114.33,144.07,85a14.06,14.06,0,0,0,2-7.51c-.1-14.83,0-29.66,0-44.49,0-6.85-1.29-8.17-8.1-8.17q-49.49,0-99,0c-7.43,0-8.55,1.16-8.56,8.8q0,38.49,0,77c0,19.66,0,39.33,0,59,0,6,1.51,7.52,7.23,7.53q50.74,0,101.49,0c5.3,0,6.88-1.54,6.89-6.79Q146.07,138.12,146,105.88Z"/>
    <path d="M99.11,92.84c-6.66,0-13.32-.08-20,0-3.94.06-6.74-1.56-6.89-5.51s2.81-5.82,6.6-5.84c14-.06,28-.08,41.94,0,3.48,0,6.34,1.48,6.33,5.52s-2.62,5.79-6.54,5.78C113.42,92.83,106.27,92.84,99.11,92.84Z" style=""/>
    <path d="M99.47,65.17c-6.81,0-13.62,0-20.42,0-3.86,0-6.79-1.52-6.79-5.55S75.2,54,79,54q20.67,0,41.35,0c3.77,0,6.69,1.43,6.73,5.61s-3,5.54-6.71,5.54Q109.93,65.18,99.47,65.17Z"/>
    <path d="M95.12,120.16c-5.5,0-11-.07-16.49,0-3.79.07-6.22-1.57-6.41-5.36s2.53-5.5,5.78-5.55q17-.29,34,0c3.22.05,6,1.65,5.91,5.43s-2.47,5.53-6.27,5.48C106.12,120.11,100.62,120.16,95.12,120.16Z" style=""/>
    <path d="M85.8,148c-2.48,0-5,0-7.45,0-3.76-.09-6-2.22-6.11-5.8s2.43-5.26,5.87-5.31q7.94-.11,15.88,0c3.26,0,5.53,1.78,5.61,5.06a5.44,5.44,0,0,1-5.37,6c-2.79.23-5.62,0-8.43,0Z" style=""/>
    <path d="M62.9,114.42c.12,3.48-3.46,7.24-6.89,7.24-3.23,0-6.72-3.44-6.87-6.75a6.89,6.89,0,0,1,13.76-.49Z" style=""/>
    <path d="M62.88,87.17c.13,3.37-3.08,6.65-6.63,6.78s-7-2.92-7.1-6.31a7.18,7.18,0,0,1,6.64-7.36A7.08,7.08,0,0,1,62.88,87.17Z" style=""/>
    <path d="M62.9,59.69a6.92,6.92,0,0,1-7.21,6.64,6.72,6.72,0,1,1,.66-13.42A6.92,6.92,0,0,1,62.9,59.69Z" style=""/>
    <path d="M55.84,135.67a6.84,6.84,0,0,1,7.06,6.25,6.89,6.89,0,1,1-13.78.37A6.85,6.85,0,0,1,55.84,135.67Z" style=""/>
  </g>
</svg>
