<svg id="图层_1" data-name="图层 1" xmlns="http://www.w3.org/2000/svg" viewBox="0 0 200 200">
  <title>入库单派单</title>
  <g>
    <path d="M30.79,103q0-33.24,0-66.47C30.82,22.7,37,16.5,50.91,16.49q50,0,100,0c13.82,0,20.16,6.3,20.17,20.06q0,42.48,0,85c0,.5,0,1,0,1.5-.08,1.39.52,3-2,3s-2.08-1.54-2.08-3q0-16,0-32,0-27.49,0-55c0-10.67-4.58-15.27-15.13-15.27q-51,0-102,0c-10.4,0-14.91,4.5-14.91,14.9q0,67.22,0,134.45c0,10.13,4.79,14.8,15.08,14.8,26.66,0,53.31,0,80,.07,1.44,0,4-1.42,4.22,1.69.27,3.68-2.67,2.18-4.22,2.18q-40.23.14-80.47.05c-11.86,0-18.67-6.71-18.71-18.48C30.74,148,30.79,125.52,30.79,103Z" style=""/>
    <path d="M172.5,163.17H104.12c-1.16,0-2.33,0-3.49,0-1.79,0-1.58-1.22-1.63-2.38s.46-1.82,1.72-1.78,2.33,0,3.49,0H173c-7.44-7.26-13.83-13.46-20.18-19.72-1.17-1.16-3.32-2.17-.93-4.29s2.91.44,3.85,1.37c7.23,7.12,14.3,14.41,21.57,21.5,2.36,2.31,2.83,4,.19,6.5-7.45,7.14-14.67,14.52-22,21.78-1.07,1.06-1.91,2.94-3.9.84s0-2.86,1.05-3.88C158.93,176.73,165.29,170.39,172.5,163.17Z" style=""/>
    <path d="M99.23,53c-16.8,0-33.61,0-50.41,0-1.5,0-3.94,1.14-3.8-2.19.12-2.92,2.26-1.89,3.63-1.9q50.91-.08,101.82,0c1.39,0,3.5-1,3.55,2,.05,3.37-2.42,2.09-3.88,2.1C133.17,53,116.2,53,99.23,53Z"/>
    <path d="M99,90.19c-16.64,0-33.29,0-49.93-.06-1.44,0-4,1.36-4-1.94s2.56-2,4.06-2q50.43-.1,100.86,0c1.49,0,4-1.22,4,2s-2.62,1.89-4,1.9C133,90.22,116,90.19,99,90.19Z" style=""/>
    <path d="M78,123.81c9.47,0,18.95,0,28.42,0,1.39,0,3.58-1,3.52,2s-2.16,2-3.6,2q-28.92.07-57.84,0c-1.47,0-3.56.78-3.52-2.08s2.23-1.89,3.6-1.9C58.42,123.77,68.23,123.81,78,123.81Z" style=""/>
  </g>
</svg>
