<svg id="图层_1" data-name="图层 1" xmlns="http://www.w3.org/2000/svg" viewBox="0 0 200 200">
  <title>仓库配置</title>
  <g>
    <path d="M12.43,80a6.67,6.67,0,0,1-.24-1c.06-5.65-1.6-12.18.71-16.68,2.22-4.33,9.24-5.17,14.18-7.47C50.7,43.91,74.38,33,98,22c2.56-1.2,4.62-1.48,7.38-.16q41.33,19.81,82.83,39.26c2.37,1.12,3.61,2.36,3.43,5.22-.28,4.31-.07,8.66-.07,13-1.9.8-3.19-.57-4.59-1.19Q146,60,105,41.74a8.41,8.41,0,0,0-7.83,0C71,53.75,44.61,65.6,18.28,77.5,16.49,78.31,14.66,79.07,12.43,80Z"/>
    <path d="M69.1,121.51c-7.82,0-15.65-.1-23.47.05-2.72.05-3.73-.6-3.69-3.55q.23-21.47,0-42.94c0-2.67.77-3.4,3.36-3.29,5,.19,10,.2,15,0,2.74-.11,3.52,1,3.28,3.47-.16,1.65.21,3.37-.07,5-.83,4.82,1.05,5.82,5.8,6,5.54.21,5.16-2.51,5.09-6.23-.16-8.17,0-8.28,7.94-8.13,4.43.08,10.31-1.95,12.85.9,2.18,2.44.73,8.2.75,12.5,0,10.65-.14,21.31.1,32,.08,3.58-1,4.47-4.46,4.36C84.08,121.34,76.59,121.51,69.1,121.51Z"/>
    <path d="M68.74,179.51c-7.66,0-15.31-.07-23,0-2.52,0-3.88-.25-3.84-3.4.17-14.31.15-28.63,0-42.94,0-2.7.83-3.36,3.37-3.26,5,.18,10,.2,15,0,2.72-.11,3.53.88,3.28,3.42-.17,1.81.24,3.71-.09,5.48-.85,4.67,1.36,5.16,5.43,5.33,4.78.2,6.11-1.49,5.44-5.8-.15-1,.11-2,0-3-.69-4.22.63-6,5.26-5.49a88.59,88.59,0,0,0,13,.06c2.43-.09,3.5.36,3.47,3.19q-.22,21.47,0,42.94c0,3.09-1.22,3.5-3.8,3.46C84.39,179.43,76.56,179.51,68.74,179.51Z"/>
    <path d="M133.78,121.51c-7.82,0-15.65-.1-23.47.05-2.6.05-3.4-.7-3.37-3.35q.18-21.72,0-43.44c0-2.5.83-3.06,3.14-3q7.48.23,15,0c2.46-.08,3.73.47,3.44,3.24-.21,2,.21,4-.09,6-.67,4.29,1.15,5,5.16,5.18,4.88.2,6.63-1.22,5.77-6-.2-1.13.12-2.35-.06-3.49-.59-3.84.76-5.32,4.82-5a109.11,109.11,0,0,0,13.47,0c2.54-.1,3.44.59,3.41,3.3q-.2,21.47,0,42.94c0,3-1.08,3.58-3.75,3.54C149.42,121.42,141.6,121.51,133.78,121.51Z"/>
    <path d="M133.56,179.51c-7.66,0-15.31-.11-23,.06-2.76.06-3.7-.64-3.67-3.56.15-14.31.12-28.63,0-42.94,0-2.31.5-3.33,3-3.11,2.31.21,4.66,0,7,.05,3.64.06,8.29-1.16,10.65.63s.76,6.78.8,10.35c0,2.45.81,3.27,3.17,3a26.63,26.63,0,0,1,5,0c2.18.2,2.81-.63,2.83-2.8,0-3.61-1.68-8.67.72-10.45s7.29-.74,11.08-.76c9.75-.05,9.75,0,9.75,9.77,0,11.82-.15,23.64.09,35.45.07,3.61-1.08,4.46-4.48,4.35C148.88,179.34,141.22,179.51,133.56,179.51Z"/>
  </g>
</svg>
