<svg id="图层_1" data-name="图层 1" xmlns="http://www.w3.org/2000/svg" viewBox="0 0 200 200">
  <title>仓储</title>
  <g>
    <path d="M42.84,96.68c8.08-7.5,15.35-14.23,22.6-21q16.26-15.12,32.5-30.27c1.73-1.61,3-3.05,5.57-.63,17.92,16.64,36,33.09,54,49.61a22.14,22.14,0,0,1,1.58,1.79c-.49.31-.75.63-1,.59-5-.85-6.6.92-6.48,6.24.39,17.14,0,34.3.23,51.44,0,3.55-.59,4.81-4.54,4.79q-45.7-.28-91.41,0c-3.7,0-4.25-1.21-4.22-4.5.16-16.65.08-33.3.08-49.95C51.83,97,51.83,97,42.84,96.68Zm59,46.15c9.82,0,19.65-.12,29.47.07,3.05.06,4-.74,3.93-3.86-.17-13.82-.14-27.64,0-41.45a6.56,6.56,0,0,0-2.54-5.52C123,83.7,113.33,75.31,103.82,66.74c-2.28-2.05-3.52-1.88-5.68.17-9.05,8.58-18.27,17-27.52,25.35a6.35,6.35,0,0,0-2.14,5.26c.06,13.82.11,27.64,0,41.46,0,3.06.83,4,3.93,3.93C82.19,142.71,92,142.84,101.84,142.84Z"/>
    <path d="M192.08,96.84a17.52,17.52,0,0,1-3,0c-3.5-.61-4,1.11-4,4.19.13,17.66-.14,35.33.2,53,.09,4.65-1.37,5.52-5.53,5.26-5.81-.35-11.66-.18-17.49,0-2.34.05-3.4-.59-3.15-3.08.18-1.82,0-3.66,0-5.5,0-6.92,0-7,6.85-7.74,2-.21,2.5-1,2.49-2.8,0-14.5-.06-29,0-43.5,0-2.18-1.23-3.24-2.61-4.49-13.08-11.85-26-23.82-39.23-35.56-2.82-2.51-2.84-3.83-.1-6.45,7.83-7.49,7.67-7.6,15.63-.29Q166.3,71.95,190.44,94a27.52,27.52,0,0,0,2.32,1.73Z"/>
    <path d="M9.48,96.77,23.41,84c14-12.83,28-25.58,41.88-38.53,2.45-2.29,4-2.57,6.33,0,2.58,2.81,5.51,5.3,8.53,8.15C65.77,66.4,52.42,80.13,37.28,91.86a7.33,7.33,0,0,0-3.18,6.65c.17,13.33.2,26.66,0,40-.06,3.52.93,5,4.43,4.34s4.45.8,4.42,4.31c-.12,12,0,12.05-12.21,12-4.13,0-9.52,1.32-12-.75-2.68-2.2-.77-7.8-.8-11.9-.11-14.16,0-28.32,0-42.49C17.83,96.88,17.83,96.88,9.48,96.77Z"/>
    <path d="M124.85,101.29c-.19.32-.33.92-.63,1-4.4,1.27-2.68,4.55-2.34,7.27.16,1.22-1.41,2.36.07,3.66,1,.84,3.5.92,2.52,2.86a96.1,96.1,0,0,1-5.77,9.27c-.11.17-.83,0-1.25-.1-6.25-1.39-9.83.77-10.55,6.7-.22,1.81-.92,2.23-2.47,2.21-2.33,0-4.66-.08-7,0-2,.08-3.38-.07-3.39-2.82,0-2.47-6.76-6.4-8.83-5.12-2.63,1.63-3.42.28-4.46-1.67s-2.31-3.64-3.39-5.5c-.46-.78-1.54-1.74-.53-2.62C82,112,80.69,107.4,77,102.9c-1-1.27-.37-2.09.21-3,1.2-2,2.51-3.91,3.64-5.93s1.9-3.1,4.44-1.42c2.09,1.38,8.85-2.36,8.75-4.84-.14-3.6,1.74-3.65,4.3-3.51,2,.11,4,0,6,0,.95,0,2.55-.11,2.33,1.12-.89,5.11,4,4.83,6.22,7a2.07,2.07,0,0,0,2.23.68c1.28-.42,2.61-2.53,3.76-1.09C121.11,94.73,122.81,98,124.85,101.29Zm-15.68,8c0-5-3.08-8.21-7.91-8.34-5-.14-8.42,3.21-8.42,8.33s3.39,8.51,8.41,8.36C106.09,117.54,109.16,114.31,109.16,109.34Z"/>
  </g>
</svg>
