<svg id="图层_1" data-name="图层 1" xmlns="http://www.w3.org/2000/svg" viewBox="0 0 200 200">
  <title>移库报工</title>
  <g>
    <path d="M147,1c2.84,2.08,4.63,4.69,4,8.38s1.19,4.29,4.45,4.18c7-.23,13.94-.37,20.36,3.35,7.33,4.24,12.08,10.45,12.24,18.77q1.28,64.93,0,129.88c-.25,12.58-9.89,21.39-22.44,22.62-2,.19-4,.3-6,.3q-58.71,0-117.42,0c-18.76,0-28.7-9.88-28.71-28.54q0-59.21,0-118.42c0-14.31,6.95-24.44,18.63-27.18a49.55,49.55,0,0,1,14.42-.79c3.27.2,5.11-.43,4.45-4.18S52.17,3.08,55,1h5a10.21,10.21,0,0,1,3.49,9.15c-.35,2.6.72,3.42,3.35,3.41q34.16-.13,68.31,0c2.63,0,3.71-.81,3.35-3.41C138,6.46,139.38,3.49,142,1Zm29,100c0-20.5.05-41,0-61.5,0-8.36-5.06-13.31-13.38-13.49a53.55,53.55,0,0,1-6-.05c-4.33-.59-6.38.69-5.67,5.45a5.66,5.66,0,0,1-3.7,6.42,6.19,6.19,0,0,1-7-1.28c-2-1.93-1.91-4.59-1.72-7,.22-2.9-.87-3.57-3.64-3.56q-34,.16-68,0c-2.44,0-3.8.4-3.45,3.21a17,17,0,0,1-.23,4c-.43,3.66-2.83,5.19-6.2,5.12s-6.26-2.13-5.81-5.51c.95-7-2.93-7.33-8-6.77a29.73,29.73,0,0,1-3,0C30.89,26.09,26,30.86,26,40.15q0,60.75,0,121.5C26,171.06,31,176,40.57,176q60.5,0,121,0C171,176,176,171,176,161.5Q176,131.25,176,101Z"/>
    <path d="M100.85,132.16a18.51,18.51,0,0,1-18.34-20.85,4.5,4.5,0,0,0-1.87-4.61c-7-5.94-13.83-12-20.75-18-3.13-2.71-4.67-5.77-1.8-9.49,2.41-3.12,5.68-3,9.59.35,6.46,5.52,12.89,11.06,19.18,16.77,1.87,1.7,3.24,2.15,5.52.71a14.67,14.67,0,0,1,12.51-1.7c3.46,1.14,5.14-.15,7.25-2.28Q129,76,146.07,59.12c3-2.95,6.36-3.22,9.29-.32s2.77,6.23,0,9.33c-1,1.11-2.06,2.18-3.11,3.24-10.25,10.26-20.45,20.56-30.8,30.72-2.27,2.23-3.35,3.94-2.42,7.57C122,121.29,112.87,132.23,100.85,132.16Zm6.31-18.74c0-3.4-3.11-6.6-6.37-6.19-3.69.47-6.09,2.55-5.92,6.6.16,3.8,2.64,5.62,6.09,5.95C104.24,120.08,107.21,116.83,107.16,113.42Z"/>
    <path d="M107.16,113.42c0,3.41-2.92,6.66-6.21,6.35-3.44-.33-5.92-2.14-6.09-5.95-.17-4,2.23-6.13,5.92-6.6C104.05,106.82,107.12,110,107.16,113.42Z" style=""/>
  </g>
</svg>
