<svg id="图层_1" data-name="图层 1" xmlns="http://www.w3.org/2000/svg" viewBox="0 0 201 200"><defs><style>.cls-1{}</style></defs><title>出库单管理</title><path d="M7,100.35Q7,56.6,7,12.86C7,6.21,8.2,5,14.8,5H151.29c6.57,0,7.76,1.2,7.76,7.9q0,87.74,0,175.48c0,6.31-1.3,7.61-7.55,7.61h-137C8.27,196,7,194.7,7,188.34Q7,144.35,7,100.35Zm142.05.42c0-27.16-.09-54.32.1-81.48,0-3.86-1.06-4.56-4.68-4.55q-61.48.2-123,0c-3.75,0-4.61.89-4.6,4.61q.2,81.23,0,162.45c0,3.6,1,4.28,4.41,4.27q61.73-.19,123.46,0c3.49,0,4.38-.81,4.36-4.34C149,154.76,149.05,127.77,149.05,100.77Z"/><path d="M189,100.57q0,43.47,0,86.94a23.91,23.91,0,0,1-.09,4c-.48,2.8-2.2,4.53-5.11,4.44-2.66-.08-4.25-1.77-4.71-4.34a23.26,23.26,0,0,1-.09-4q0-87.19,0-174.38a19.61,19.61,0,0,1,.11-4c.53-2.53,2.16-4.17,4.84-4.2a4.73,4.73,0,0,1,4.91,4.11,21.25,21.25,0,0,1,.13,4.48Q189,57.1,189,100.57Z"/><path d="M63.75,143l12.83,12.88c2.4,2.41,3.53,5.22.84,7.87s-5.33,1.81-7.83-.75c-6.52-6.68-13.18-13.21-19.7-19.88-4-4.05-4-6.17-.12-10.13,6.4-6.56,12.91-13,19.36-19.52,2.5-2.51,5.36-3.88,8.26-1s1.46,5.79-1.05,8.21c-3.9,3.76-7.86,7.45-11.8,11.18l.71,1.18H104c4,0,8,.06,12,0,3.69-.08,6.42,1.16,6.3,5.24-.11,3.8-2.82,4.81-6.26,4.8-16,0-32,0-48,0Z"/><path class="cls-1" d="M82.95,40.48c13,0,26,0,39,0,3.6,0,7.05.43,7.09,5s-3.35,5.09-7,5.09q-39,0-78,0c-3.61,0-7-.44-7.08-5s3.35-5.09,7-5.08C57,40.5,70,40.48,82.95,40.48Z"/><path class="cls-1" d="M83,88.52c-13,0-26,0-39,0-3.62,0-7-.49-7-5s3.4-5,7-5q39,0,78,0c3.62,0,7,.48,7,5s-3.4,5.06-7,5C109,88.5,96,88.52,83,88.52Z"/></svg>