<svg id="图层_1" data-name="图层 1" xmlns="http://www.w3.org/2000/svg" viewBox="0 0 200 200">
  <title>出库</title>
  <g>
    <path d="M30.31,78.88c-2.79,2-4.71,3.26-6.51,4.69-3.14,2.49-6.27,3.46-9-.36s-.7-6.5,2.39-8.82q8.19-6.13,16.37-12.26C54.24,46.71,75,31.38,95.52,15.81c4-3,6.87-3.22,11-.12,25.86,19.58,51.9,38.92,77.87,58.35,4.43,3.32,5.62,6.67,3,9.51-3.17,3.49-6.37,2.15-9.64-.34C165.71,74.06,153.55,65,141.44,56c-12.38-9.28-24.79-18.52-37.1-27.88-2.26-1.72-3.77-2.08-6.32-.14Q71.61,48,44.87,67.69c-2.65,2-3.28,4.06-3.27,7.11q.13,51.71.05,103.43c0,7.14-1.5,9.9-5.44,10.06-4.18.18-5.91-2.77-5.91-10.09q0-46.22,0-92.44C30.31,83.79,30.31,81.81,30.31,78.88Z"/>
    <path d="M119,167.74c1.3-20.8,9-35.55,30.45-39.65,2.94-.56,2.86-2.1,2.81-4.16-.08-3.42.35-6.62,3.18-9.07,3.46-3,8-3.15,11.17.16,6.44,6.74,12.82,13.55,19,20.54,4,4.56,3.8,9.82-.27,14.43-5.84,6.62-11.81,13.12-17.65,19.74-2.9,3.29-6.24,5.09-10.58,3.33-4-1.61-4.84-5.09-4.9-9-.09-6.29-.7-6.64-6.7-4-5.25,2.33-8.67,6.62-11.69,11.27-2.31,3.55-5.48,5-9.4,3.55S118.92,170.34,119,167.74Zm42.86-43.89c0,2.17,0,3.14,0,4.11-.07,7.71-.45,8.25-8,8.82a33.26,33.26,0,0,0-11.39,3.3c-7.31,3.36-12.77,12.32-12.22,19.94,5.82-6.6,12.86-10.53,21.52-11.39s10,.31,10.09,8.83c0,1.06-.47,2.26.72,3.56,5-5.54,9.93-11.1,15.06-16.43,1.8-1.87.71-2.75-.46-4C172.4,135.35,167.6,130.08,161.89,123.85Z"/>
    <path d="M91,178.12c0-10.4-1-10.23,9.92-10.13,1.67,0,3.33.08,5,0,3.65-.15,5.11,1.76,5.09,5.19,0,3.67-.06,7.33,0,11,.06,3-1.53,4.21-4.29,4.28-1.83,0-3.66,0-5.5,0C91,188.51,91,188.51,91,178.12Z"/>
    <path d="M56.72,178.17C56.71,167,56.07,168,67,168c1.33,0,2.67.1,4,0,4.15-.35,5.73,1.84,5.71,5.65-.06,16.92,1.71,14.77-12.75,14.85-7.09,0-7.23-.24-7.26-7.31C56.71,180.17,56.72,179.17,56.72,178.17Z" style=""/>
    <path d="M101.31,131.49a29,29,0,0,0,3.48,0c4.94-.6,6.56,1.84,6.23,6.42a40.33,40.33,0,0,0,0,7.45c.57,5-1.94,6.25-6.43,6.22-16.75-.13-13.31.45-13.6-12.42-.17-7.62,0-7.63,7.81-7.64Z"/>
    <path d="M56.72,141.57c.12-10-1.44-10.14,10-10.09,10,0,10,0,10,10.2,0,1.17-.1,2.34,0,3.5.47,4.75-1.61,6.85-6.37,6.35a33.76,33.76,0,0,0-3.5,0C56.72,151.51,56.72,151.51,56.72,141.57Z" style=""/>
    <path d="M91,106.82c0-10.69-.88-10,10-10,10,0,10,0,10,10.19,0,11.12.65,10.12-10.35,10.15S91.08,117.21,91,106.82Z"/>
    <path d="M66.66,117.17c-11.06,0-9.89.55-9.93-10,0-11.48-.75-10.24,10.11-10.31h2c7.54,0,7.87.37,7.91,7.85,0,.83,0,1.66,0,2.5C76.74,117.17,76.74,117.17,66.66,117.17Z" style=""/>
  </g>
</svg>
