<svg id="图层_1" data-name="图层 1" xmlns="http://www.w3.org/2000/svg" viewBox="0 0 201 201">
  <title>基础功能</title>
  <g>
    <path d="M89,1h23c6.66,2.64,10.59,7.73,9.31,14.66-2,11,3.13,15.87,12.8,18.34,2,.51,3.16.77,4.7-.87a105.18,105.18,0,0,1,10.07-9.69c5-4.06,11.14-3.77,15.85.6,4.27,4,8.43,8.06,12.33,12.38,4.83,5.34,4.66,11.7-.2,17a62.16,62.16,0,0,1-7.44,7.38c-3.09,2.41-2.26,4.56-1.54,7.93,2.22,10.3,8.55,12.48,17.81,11.11C193,78.82,198.08,82.3,201,89v23c-2.79,7.18-8.25,9.9-15.67,9.53-3-.15-6-.06-9,0s-10.14,13.62-8.49,16.12a16.55,16.55,0,0,0,2.08,2.14c2.77,2.87,5.74,5.58,8.27,8.65,4.46,5.43,4.2,11.51-.49,16.64-2,2.21-4.21,4.26-6.33,6.38-12.51,12.51-16,12.67-28.35-.23-3.87-4-6.66-4.22-12-2.48-7.92,2.57-10.05,6.76-8.91,14.3,1.21,8-1.47,14.3-9.1,17.95H89c-6.9-3.4-9.64-9-8.88-16.55.26-2.63-.14-5.33.09-8S79,173.16,77,171.87c-9.18-5.89-16.28-4.08-22.14,4.8a10.88,10.88,0,0,1-3.44,2.83,11.74,11.74,0,0,1-14.28-1.25c-4.35-4.11-8.62-8.32-12.68-12.71-4.72-5.1-4.67-11.34,0-16.59a64.19,64.19,0,0,1,7.34-7.45c3.25-2.65,2.69-4.95,1.69-8.81-2.42-9.34-7.75-12-16.68-10.61C9.33,123.27,4,120,1,113V90c2.79-7.17,8.23-9.91,15.65-9.52,2.82.15,5.67-.15,8.48.07s3.63-1,5.08-3.27c5.81-9.25,4-16.34-4.88-22.13a7.46,7.46,0,0,1-1.41-1.41c-4.3-4.9-4.48-11.38-.07-16.21,4-4.41,8.27-8.67,12.69-12.68,5.12-4.65,11.46-4.55,16.62,0a68.1,68.1,0,0,1,7.4,7.4c2.45,3,4.55,2.79,8.29,1.83,9.64-2.48,12.66-7.93,11.07-17.35C78.67,9.34,82,4,89,1Zm25,177.43c0-2.67.14-5.34,0-8-.19-2.81.33-4.46,3.62-5.1a55.72,55.72,0,0,0,18.78-7.72c2.24-1.39,3.57-1.35,5.4.64,3.71,4,7.82,7.73,11.58,11.74,2.86,3,5.39,3.42,8.38.18s6.26-6.46,9.52-9.56c3-2.85,2.63-5.33-.28-8-4.31-3.92-8.41-8.06-12.74-12-1.8-1.62-2-2.91-.65-5a58.14,58.14,0,0,0,8.09-19.7c.56-2.61,1.68-3.09,4-3,5.66.12,11.34-.16,17,.1,4.67.21,6.3-2,6.22-6.27s-.06-8.33,0-12.49-1.73-6.48-6.28-6.34c-5.66.18-11.33,0-17,.08-2.31.05-3.41-.46-4-3a56.32,56.32,0,0,0-7.95-19.22c-1.54-2.27-.87-3.27.72-4.8,4.08-3.92,8-8.05,12.06-12,2.75-2.63,2.74-5,.11-7.69-3.16-3.19-6.28-6.43-9.3-9.76s-5.7-3.31-8.75,0c-3.81,4.18-7.93,8.09-11.83,12.18-1.38,1.45-2.47,2.29-4.56.88a57.37,57.37,0,0,0-19.63-8.24c-2.6-.58-3-1.92-3-4.18.1-5.66-.06-11.33.06-17,.09-4.19-1.73-6.19-5.93-6.13s-8.66.09-13,0c-4.49-.1-6.26,2.06-6.13,6.44.16,5.66,0,11.33.08,17,0,2.17-.57,3.15-2.86,3.71a62.78,62.78,0,0,0-20.1,8.45c-1.86,1.24-2.86.48-4.11-.83-3.91-4.1-8-8-11.83-12.19-3.26-3.62-6-3.33-9.12.11C37.61,35,34.48,38,31.33,41s-2.92,5.52.17,8.4c4,3.75,7.71,7.85,11.74,11.58,2,1.83,2.11,3.34.68,5.52a49.93,49.93,0,0,0-7.71,18.76c-.54,3.07-1.9,3.3-4.3,3.26-5.5-.09-11,.09-16.49-.07-4.5-.13-6.37,1.94-6.27,6.31s0,8.66,0,13c0,3.9,1.79,5.82,5.79,5.75,5.5-.09,11,.12,16.49-.08,2.9-.1,4.5.52,5.17,3.72a57.67,57.67,0,0,0,7.77,18.78c1.46,2.34,1.13,3.66-.8,5.38-4.22,3.76-8.23,7.77-12.38,11.61-2.74,2.53-3,5-.21,7.65,3.46,3.37,6.88,6.78,10.23,10.26,2.82,2.92,5.32,2.7,8-.2,4-4.25,8.19-8.3,12.18-12.54,1.45-1.55,2.59-2.07,4.58-.74a56.85,56.85,0,0,0,20.14,8.3c2.81.59,2.89,2,2.87,4.12-.06,5.83.11,11.66-.07,17.49-.12,3.91,1.81,5.48,5.39,5.54,3.83.06,7.66,0,11.49,0,7.21,0,8.14-.92,8.16-7.9C114,182.77,114,180.6,114,178.43Z"/>
    <path d="M102.5,64.86A37,37,0,0,1,140.07,102c.08,20.48-16.95,37.69-37.35,37.76a37.47,37.47,0,1,1-.23-74.95Zm1.34,66.48c16.5-.82,28.73-14,28-30.19A29.49,29.49,0,0,0,101,73.08a28.82,28.82,0,0,0-27.36,30.3C74.34,119.76,87.73,132.14,103.84,131.34Z"/>
  </g>
</svg>
