<svg id="图层_1" data-name="图层 1" xmlns="http://www.w3.org/2000/svg" viewBox="0 0 200 200">
  <title>库存管理</title>
  <g>
    <path d="M25.89,91.91c-2.57,1.39-4.2,3.1-6.51,2.82a6.29,6.29,0,0,1-5.66-4.24c-1.13-3.21.4-5.48,2.67-7.42q14.05-12,28.15-24Q69.68,37.77,94.82,16.45c5.28-4.48,6.82-4.47,12-.09L184.08,82c4.28,3.64,5.26,7,2.91,10.19s-5.59,3.16-11.06-.16c0,1.86,0,3.43,0,5q0,40,0,80c0,8.35-2.74,11.16-10.94,11.17q-64.22,0-128.44,0c-8.09,0-10.65-2.62-10.65-10.8C25.89,149.08,25.89,120.8,25.89,91.91ZM101,175.83c19.32,0,38.64,0,58,0,2.9,0,4.44-.24,4.42-3.9-.16-29.31-.11-58.62,0-87.93a6.5,6.5,0,0,0-2.56-5.52Q132,54.23,103.29,29.75c-1.92-1.64-3-1.61-4.89,0Q69.76,54.3,40.91,78.57a7,7,0,0,0-2.72,6q.13,43.47,0,86.93c0,3.47.87,4.49,4.41,4.46C62.05,175.74,81.54,175.83,101,175.83Z"/>
    <path d="M98,163.17c-10.74-.12-9.74,1.51-9.76-9.93,0-10-.62-8.72,8.89-8.74,11.7,0,9.86-.8,9.87,9.76C107,164.63,108.45,163,98,163.17Z" style=""/>
    <path d="M107,129.11c0,9.06,0,9.11-8.85,9-11.09-.08-9.9,1.54-10-10.17,0-1.33.07-2.66,0-4-.2-3.11,1.06-4.71,4.32-4.52,1.65.09,3.32,0,5,0C108.8,119.5,106.88,118.88,107,129.11Z" style=""/>
    <path d="M60.25,94.83c10,.14,9.36-1.56,9.36,9.27,0,10.36.85,9.4-9.31,9.41-11.12,0-9.31.6-9.4-9.19C50.81,94.83,50.88,94.83,60.25,94.83Z" style=""/>
    <path d="M125.89,153.6c0-9.11,0-9.12,9.37-9.11,10.3,0,9.37-.9,9.38,9.39,0,9.3,0,9.34-9.23,9.29C124.42,163.1,126,164.43,125.89,153.6Z" style=""/>
    <path d="M69.61,129c-.06,11.13.74,9.05-9.33,9.11-10.86.06-9.38,1.28-9.37-9.59,0-9.45-1.78-9.08,9-9C70.49,119.53,69.58,118.38,69.61,129Z" style=""/>
    <path d="M60.26,163.17c-10.71-.1-9.32,1.19-9.38-9.2-.05-9.49,0-9.5,9.47-9.49,10,0,9.26-.86,9.26,9,0,.17,0,.33,0,.5C69.55,165.16,70.36,162.94,60.26,163.17Z" style=""/>
  </g>
</svg>
