<svg id="图层_1" data-name="图层 1" xmlns="http://www.w3.org/2000/svg" viewBox="0 0 201 200">
  <title>盘点任务审核</title>
  <g>
    <path d="M4.49,99.69q0-44,0-88C4.5,3.88,5.37,3,13,3H149.48c7.18,0,8.39,1.2,8.39,8.38q0,24.25,0,48.49c0,2.2,0,4.35-1.76,6a4.66,4.66,0,0,1-5.12,1c-2.54-1-3.17-3.09-3.16-5.65.05-10.33,0-20.66,0-31,0-4.5-.23-9,.08-13.49.23-3.27-1-3.78-4-3.77q-62.74.13-125.48,0c-3.28,0-4.08.87-4.08,4.11q.15,83,0,166c0,3.73,1.25,4.27,4.54,4.23,14.33-.17,28.66,0,43-.1,3.29,0,6.07.65,6.93,4.26.76,3.16-1.73,5.73-5.7,5.75-17.5.06-35,0-52.49.06-4.6,0-6.2-2.34-6.19-6.53q0-17.5,0-35Q4.49,127.69,4.49,99.69Z" style=""/>
    <path d="M77.55,111.49a21.68,21.68,0,0,1,20.69,29.65c-1.26,3.17-.84,5.05,1.47,7.25,2.52,2.4,4.7,5.14,7,7.75s3.3,5.26.49,7.89-5.44,1.66-7.75-1c-.55-.62-1.15-1.2-1.68-1.84-4.31-5.24-7.61-9.45-16.65-6.8-12.46,3.65-24.16-6.92-25-19.78A21.74,21.74,0,0,1,77.55,111.49Zm.25,33.63a12,12,0,0,0,12.12-11.86c0-6.26-5.11-11.66-11.13-11.74-7.1-.1-12.71,5.13-12.71,11.84A12,12,0,0,0,77.8,145.12Z"/>
    <path d="M152.53,176.84c-6,0-12,0-18,0-3.65,0-6.46-1.36-6.36-5.3.1-3.7,2.84-4.74,6.31-4.76,4.28,0,9.95,1.89,12.49-.74,2.74-2.85.49-8.54.93-13,.29-2.93-.7-4.76-3.12-6.61A13,13,0,1,1,162,126.94c5.65,5.67,5.57,14.47-.91,19.2-3.23,2.35-3.36,4.92-3.18,8,.24,4.1-1.85,9.51.88,11.91,2.3,2,7.58.79,11.53.72,3.69-.07,7.13.51,7.14,4.91,0,4.66-3.62,5.23-7.45,5.17C164.18,176.77,158.35,176.84,152.53,176.84Z"/>
    <path d="M85.7,47c11.65,0,23.3.07,34.94,0,3.77,0,7.06.8,7,5.06s-3.34,5-7.09,5q-34.94-.11-69.88,0c-3.51,0-6.59-.64-6.72-4.8C43.85,47.74,47,47,50.76,47,62.4,47,74,47,85.7,47Z"/>
    <path d="M85.94,91c-11.81,0-23.63,0-35.44,0-3.58,0-6.5-.86-6.51-5s2.9-5,6.48-5q35.44.06,70.88,0c3.74,0,6.47,1.36,6.35,5.26-.12,3.59-2.82,4.83-6.32,4.8C109.57,90.95,97.75,91,85.94,91Z"/>
    <path d="M153,197.84c-3.5,0-7,.06-10.5,0-3.23-.07-5.55-1.46-5.59-5s2.11-5,5.47-5c7,0,14,0,21,0,3.33,0,5.59,1.37,5.62,4.87s-2.24,5-5.5,5.12C160,197.92,156.47,197.84,153,197.84Z" style=""/>
  </g>
</svg>
