<svg id="图层_1" data-name="图层 1" xmlns="http://www.w3.org/2000/svg" viewBox="0 0 201 200">
  <title>入库单管理</title>
  <g>
    <path d="M11,100.35q0-43.75,0-87.49C11,6.21,12.2,5,18.8,5H155.29c6.57,0,7.76,1.2,7.76,7.9q0,87.74,0,175.48c0,6.31-1.3,7.61-7.55,7.61h-137c-6.23,0-7.5-1.29-7.5-7.65Q11,144.35,11,100.35Zm142.05.42c0-27.16-.09-54.32.1-81.48,0-3.86-1.06-4.56-4.68-4.55q-61.48.2-123,0c-3.75,0-4.61.89-4.6,4.61q.2,81.23,0,162.45c0,3.6,1,4.28,4.41,4.27q61.73-.19,123.46,0c3.49,0,4.38-.81,4.36-4.34C153,154.76,153.05,127.77,153.05,100.77Z"/>
    <path d="M193,100.57q0,43.47,0,86.94a23.91,23.91,0,0,1-.09,4c-.48,2.8-2.2,4.53-5.11,4.44-2.66-.08-4.25-1.77-4.71-4.34a23.26,23.26,0,0,1-.09-4q0-87.19,0-174.38a19.61,19.61,0,0,1,.11-4c.53-2.53,2.16-4.17,4.84-4.2a4.73,4.73,0,0,1,4.91,4.11,21.25,21.25,0,0,1,.13,4.48Q193,57.1,193,100.57Z"/>
    <path d="M109,131.88c-4-3.78-7.94-7.54-11.88-11.34-2.54-2.45-3.89-5.39-1.12-8.28s5.73-1.47,8.2,1q9.86,9.93,19.73,19.86c3.23,3.23,3.13,6.24-.13,9.45-6.76,6.67-13.42,13.44-20.11,20.18-2.35,2.37-5,3.81-7.72.89-2.54-2.7-1.74-5.45.8-7.86,4.09-3.88,8.16-7.78,12.31-11.73-1.7-1.69-3.27-1-4.63-1q-23.25-.09-46.49,0c-3.67,0-7-.51-7-5s3.35-5,7-5c16.8.05,33.59,0,50.39,0Z"/>
    <path d="M86.95,40.48c13,0,26,0,39,0,3.6,0,7.05.43,7.09,5s-3.35,5.09-7,5.09q-39,0-78,0c-3.61,0-7-.44-7.08-5s3.35-5.09,7-5.08C61,40.5,74,40.48,86.95,40.48Z" style=""/>
    <path d="M87,88.52c-13,0-26,0-39,0-3.62,0-7-.49-7-5s3.4-5,7-5q39,0,78,0c3.62,0,7,.48,7,5s-3.4,5.06-7,5C113,88.5,100,88.52,87,88.52Z" style=""/>
  </g>
</svg>
