<svg id="图层_1" data-name="图层 1" xmlns="http://www.w3.org/2000/svg" viewBox="0 0 201 200">
  <title>盘点</title>
  <g>
    <path d="M4.49,99.68q0-44,0-88C4.5,3.88,5.37,3,13,3H149.49c7.18,0,8.38,1.19,8.39,8.38q0,23.75,0,47.49c0,1,.07,2,0,3-.31,3.24-1.87,5.44-5.38,5.23-3.22-.19-4.59-2.29-4.59-5.41q0-12.5,0-25c0-6.5-.23-13,.09-19.49.18-3.67-1.13-4.29-4.48-4.28q-62.49.17-125,0c-3.3,0-4.08.9-4.07,4.12q.15,83,0,166c0,3.74,1.27,4.26,4.55,4.22,13.83-.17,27.66-.07,41.49-.07a26.16,26.16,0,0,1,3.5,0c3,.41,5.08,2,5,5.18s-2.08,4.77-5.25,4.77q-26.75,0-53.49,0c-4.44,0-5.68-2.67-5.68-6.51q0-14.25,0-28.49Q4.49,130.93,4.49,99.68Z" style=""/>
    <path d="M161,140.19a33.57,33.57,0,0,1-5.6,18.85c-1.46,2.2-1.37,3.51.46,5.46,5.81,6.19,11.38,12.62,17,19,.89,1,1.87,1.91,2.67,3,2,2.66,2.72,5.61.07,8.09-2.85,2.68-5.88,1.81-8.32-.86-6.39-7-12.77-14.06-19-21.27-1.85-2.15-2.95-2.58-5.62-.94a36.77,36.77,0,1,1-9.41-67.25A36.89,36.89,0,0,1,161,140.19Zm-11-.47c0-14-11.49-25.75-25.12-25.72-14.92,0-26.74,11.51-26.68,25.9.05,13.94,11.75,25.65,25.84,25.88S150,154.11,150,139.72Z"/>
    <path d="M81,51.48c9,0,17.95,0,26.92,0,4,0,8,.1,8.4,5.4.29,3.77-2.56,5.64-8.17,5.65q-27.67,0-55.33,0c-3.92,0-7.58-.37-7.88-5.39-.23-3.86,2.46-5.65,8.15-5.65Q67.06,51.46,81,51.48Z" style=""/>
    <path d="M81,79.48c9.3,0,18.61,0,27.91,0,3.89,0,7.29.83,7.34,5.42s-3.14,5.67-7.14,5.66q-28.41-.07-56.83,0c-3.83,0-7.12-.73-7.38-5.4-.2-3.75,2.42-5.62,7.67-5.64C62.09,79.46,71.56,79.48,81,79.48Z" style=""/>
  </g>
</svg>
