<svg id="图层_1" data-name="图层 1" xmlns="http://www.w3.org/2000/svg" viewBox="0 0 200 200">
  <title>移库</title>
  <g>
    <path d="M79,145c0,10.49.05,21,0,31.47-.05,7.61-4,11.84-11.63,12q-21,.3-42,0c-7.73-.09-11.8-4.1-11.85-11.74q-.22-32,0-63.94c0-7.5,4.41-11.7,11.89-11.75q20.73-.12,41.46,0c7.82,0,12.07,4.28,12.12,12C79.07,123.69,79,134.35,79,145Zm-54.25-.52c0,9.16.11,18.31-.05,27.47-.07,3.86,1.34,5.33,5.26,5.26q16.23-.27,32.46,0c4.15.07,5.57-1.57,5.54-5.61q-.18-27,0-53.94c0-4.41-1.74-5.81-6-5.74-10.48.19-21,.29-31.46,0-4.82-.15-6,1.72-5.85,6.13C24.94,126.84,24.76,135.67,24.76,144.49Z"/>
    <path d="M122.94,56.8c0-10.32,0-20.64,0-31,0-8,3.84-12.18,11.79-12.28q21-.27,42,0c7.65.1,11.61,4.18,11.65,11.9q.18,31.71,0,63.43c0,8.14-4.27,12.07-12.52,12.1q-20,.07-40,0C127,101,123,97,122.95,88.27,122.9,77.78,122.94,67.29,122.94,56.8Zm54.23.18c0-9-.14-18,.07-26.95.09-3.87-1.2-5.33-5.15-5.27q-16.46.28-32.93,0c-3.93-.06-5.21,1.36-5.17,5.25q.22,27.2,0,54.39c0,4.25,1.65,5.52,5.62,5.47,10.64-.14,21.29-.17,31.94,0,4.4.08,5.82-1.71,5.71-6C177,75,177.16,66,177.16,57Z"/>
    <path d="M68.56,57.24v3c0,7.65,0,7.8-7.71,7.86-2.89,0-3.78.92-3.62,3.72a103.52,103.52,0,0,1,0,10.48c-.11,2.48,1.17,5.54-2.25,6.94-3.23,1.32-6.47,1.44-9.55-.4a24,24,0,0,1-3.55-2.72Q30,75.5,18.06,64.84c-5.94-5.36-5.9-9.79,0-15Q30,39.27,41.88,28.64c2.28-2,4.68-3.7,7.85-3.94,5.38-.41,7.54,1.53,7.55,6.9,0,4,0,8,0,12,0,1.68.22,2.83,2.34,3,2.91.19,7.08-1.52,8.42.92s.31,6.46.31,9.78Z"/>
    <path d="M151.7,111.88c2.59-.32,5,1.09,7.16,3,8.58,7.62,17.22,15.18,25.7,22.91,5.16,4.71,5,9.32-.24,14-8.19,7.3-16.43,14.56-24.62,21.88-2.3,2.06-4.81,3.55-8,3.68-5.13.21-7.11-1.71-7.12-6.88,0-3.66-.16-7.33,0-11,.17-2.94-.63-4.08-3.83-4.07-7.51,0-7.51-.15-7.51-7.62,0-1.33,0-2.66,0-4,0-3-.92-6.54.37-8.82,1.56-2.77,5.46-.92,8.31-1.07,2.42-.12,2.66-1.3,2.63-3.18-.05-4,0-8,0-12C144.64,113.45,146.09,111.94,151.7,111.88Z"/>
    <path d="M112,57.2a29.21,29.21,0,0,0,0,5c.88,5-1.05,6.41-6.05,6.18-3.92-.18-5.62-.73-5.19-5.09a95.56,95.56,0,0,0,0-13.43c-.11-2.58.65-3.68,3.32-3.37a20.41,20.41,0,0,0,4.47,0c2.54-.27,3.64.57,3.41,3.28C111.88,52.21,112,54.71,112,57.2Z" style=""/>
    <path d="M89.9,144.46a31.38,31.38,0,0,0-.05-5.47c-.83-4.63,1.31-5.19,5.4-5.34,4.8-.18,6.42,1.08,5.85,5.93a60.23,60.23,0,0,0,0,11.93c.28,3.42-1,4.14-4.17,4.08-7-.14-7,0-7-7.14Q89.9,146.45,89.9,144.46Z" style=""/>
    <path d="M90.17,57.25a27.91,27.91,0,0,0,0,5c.95,5.16-1.25,6.28-6.12,6.13-4-.12-5.59-.84-5.16-5.14a79.38,79.38,0,0,0,0-12.93c-.2-3.13.86-4.23,3.89-3.83a16.38,16.38,0,0,0,4,0c2.59-.29,3.6.68,3.38,3.33C90,52.26,90.17,54.77,90.17,57.25Z" style=""/>
    <path d="M122.92,144.55a40.16,40.16,0,0,0,.05,6c.65,4.28-1.19,5-5.17,5.19-5.13.26-6.71-1.3-6.13-6.29a50,50,0,0,0,0-11.42c-.64-5.53,3.12-4,5.95-4.16,3-.15,6.23-.7,5.36,4.26A38,38,0,0,0,122.92,144.55Z" style=""/>
  </g>
</svg>
